<?xml version="1.0" encoding="UTF-8" standalone="no"?>
<!DOCTYPE svg PUBLIC "-//W3C//DTD SVG 1.1//EN"
 "http://www.w3.org/Graphics/SVG/1.1/DTD/svg11.dtd">
<!-- Generated by graphviz version 6.0.1 (0)
 -->
<!-- Pages: 1 -->
<svg width="500pt" height="780pt"
 viewBox="0.00 0.00 500.00 779.72" xmlns="http://www.w3.org/2000/svg" xmlns:xlink="http://www.w3.org/1999/xlink">
<g id="graph0" class="graph" transform="scale(1 1) rotate(0) translate(4 775.72)">
<polygon fill="white" stroke="none" points="-4,4 -4,-775.72 496,-775.72 496,4 -4,4"/>
<g id="clust2" class="cluster">
<title>clusterspot (10)</title>
<path fill="none" stroke="black" d="M156,-243.91C156,-243.91 238,-243.91 238,-243.91 244,-243.91 250,-249.91 250,-255.91 250,-255.91 250,-445.84 250,-445.84 250,-451.84 244,-457.84 238,-457.84 238,-457.84 156,-457.84 156,-457.84 150,-457.84 144,-451.84 144,-445.84 144,-445.84 144,-255.91 144,-255.91 144,-249.91 150,-243.91 156,-243.91"/>
<text text-anchor="middle" x="217.5" y="-251.71" font-family="Times,serif" font-size="14.00">spot (10)</text>
</g>
<g id="clust1" class="cluster">
<title>cluster5</title>
<path fill="none" stroke="black" d="M256,-476.79C256,-476.79 340,-476.79 340,-476.79 346,-476.79 352,-482.79 352,-488.79 352,-488.79 352,-667.74 352,-667.74 352,-673.74 346,-679.74 340,-679.74 340,-679.74 256,-679.74 256,-679.74 250,-679.74 244,-673.74 244,-667.74 244,-667.74 244,-488.79 244,-488.79 244,-482.79 250,-476.79 256,-476.79"/>
<text text-anchor="middle" x="340.5" y="-484.59" font-family="Times,serif" font-size="14.00">5</text>
</g>
<g id="clust3" class="cluster">
<title>clusterposition (40) x clone (5)</title>
<path fill="none" stroke="black" d="M225,-121.95C225,-121.95 411,-121.95 411,-121.95 417,-121.95 423,-127.95 423,-133.95 423,-133.95 423,-223.91 423,-223.91 423,-229.91 417,-235.91 411,-235.91 411,-235.91 225,-235.91 225,-235.91 219,-235.91 213,-229.91 213,-223.91 213,-223.91 213,-133.95 213,-133.95 213,-127.95 219,-121.95 225,-121.95"/>
<text text-anchor="middle" x="348.5" y="-129.75" font-family="Times,serif" font-size="14.00">position (40) x clone (5)</text>
</g>
<g id="clust4" class="cluster">
<title>clusterspot (10) x clone (5)</title>
<path fill="none" stroke="black" d="M20,-254.88C20,-254.88 124,-254.88 124,-254.88 130,-254.88 136,-260.88 136,-266.88 136,-266.88 136,-678.72 136,-678.72 136,-684.72 130,-690.72 124,-690.72 124,-690.72 20,-690.72 20,-690.72 14,-690.72 8,-684.72 8,-678.72 8,-678.72 8,-266.88 8,-266.88 8,-260.88 14,-254.88 20,-254.88"/>
<text text-anchor="middle" x="72" y="-262.68" font-family="Times,serif" font-size="14.00">spot (10) x clone (5)</text>
</g>
<g id="clust5" class="cluster">
<title>clusterposition (40) x spot (10)</title>
<path fill="none" stroke="black" d="M68,-8C68,-8 193,-8 193,-8 199,-8 205,-14 205,-20 205,-20 205,-223.91 205,-223.91 205,-229.91 199,-235.91 193,-235.91 193,-235.91 68,-235.91 68,-235.91 62,-235.91 56,-229.91 56,-223.91 56,-223.91 56,-20 56,-20 56,-14 62,-8 68,-8"/>
<text text-anchor="middle" x="130.5" y="-15.8" font-family="Times,serif" font-size="14.00">position (40) x spot (10)</text>
</g>
<!-- ζ_s -->
<g id="node1" class="node">
<title>ζ_s</title>
<path fill="lightgrey" stroke="black" d="M111,-771.72C111,-771.72 45,-771.72 45,-771.72 39,-771.72 33,-765.72 33,-759.72 33,-759.72 33,-730.72 33,-730.72 33,-724.72 39,-718.72 45,-718.72 45,-718.72 111,-718.72 111,-718.72 117,-718.72 123,-724.72 123,-730.72 123,-730.72 123,-759.72 123,-759.72 123,-765.72 117,-771.72 111,-771.72"/>
<text text-anchor="middle" x="78" y="-756.52" font-family="Times,serif" font-size="14.00">ζ_s</text>
<text text-anchor="middle" x="78" y="-741.52" font-family="Times,serif" font-size="14.00">~</text>
<text text-anchor="middle" x="78" y="-726.52" font-family="Times,serif" font-size="14.00">ConstantData</text>
</g>
<!-- Π -->
<g id="node14" class="node">
<title>Π</title>
<ellipse fill="none" stroke="black" cx="78" cy="-645.24" rx="28.98" ry="37.45"/>
<text text-anchor="middle" x="78" y="-656.54" font-family="Times,serif" font-size="14.00">Π</text>
<text text-anchor="middle" x="78" y="-641.54" font-family="Times,serif" font-size="14.00">~</text>
<text text-anchor="middle" x="78" y="-626.54" font-family="Times,serif" font-size="14.00">Beta</text>
</g>
<!-- ζ_s&#45;&gt;Π -->
<g id="edge3" class="edge">
<title>ζ_s&#45;&gt;Π</title>
<path fill="none" stroke="black" d="M78,-718.48C78,-710.65 78,-701.8 78,-693.04"/>
<polygon fill="black" stroke="black" points="81.5,-692.87 78,-682.87 74.5,-692.87 81.5,-692.87"/>
</g>
<!-- r -->
<g id="node2" class="node">
<title>r</title>
<path fill="lightgrey" stroke="black" d="M372,-338.88C372,-338.88 306,-338.88 306,-338.88 300,-338.88 294,-332.88 294,-326.88 294,-326.88 294,-297.88 294,-297.88 294,-291.88 300,-285.88 306,-285.88 306,-285.88 372,-285.88 372,-285.88 378,-285.88 384,-291.88 384,-297.88 384,-297.88 384,-326.88 384,-326.88 384,-332.88 378,-338.88 372,-338.88"/>
<text text-anchor="middle" x="339" y="-323.68" font-family="Times,serif" font-size="14.00">r</text>
<text text-anchor="middle" x="339" y="-308.68" font-family="Times,serif" font-size="14.00">~</text>
<text text-anchor="middle" x="339" y="-293.68" font-family="Times,serif" font-size="14.00">ConstantData</text>
</g>
<!-- Φ -->
<g id="node10" class="node">
<title>Φ</title>
<ellipse fill="none" stroke="black" cx="372" cy="-190.43" rx="43.27" ry="37.45"/>
<text text-anchor="middle" x="372" y="-201.73" font-family="Times,serif" font-size="14.00">Φ</text>
<text text-anchor="middle" x="372" y="-186.73" font-family="Times,serif" font-size="14.00">~</text>
<text text-anchor="middle" x="372" y="-171.73" font-family="Times,serif" font-size="14.00">Gamma</text>
</g>
<!-- r&#45;&gt;Φ -->
<g id="edge11" class="edge">
<title>r&#45;&gt;Φ</title>
<path fill="none" stroke="black" d="M346.08,-285.65C349.97,-271.51 354.91,-253.56 359.43,-237.12"/>
<polygon fill="black" stroke="black" points="362.9,-237.7 362.18,-227.13 356.15,-235.84 362.9,-237.7"/>
</g>
<!-- p -->
<g id="node3" class="node">
<title>p</title>
<path fill="lightgrey" stroke="black" d="M480,-338.88C480,-338.88 414,-338.88 414,-338.88 408,-338.88 402,-332.88 402,-326.88 402,-326.88 402,-297.88 402,-297.88 402,-291.88 408,-285.88 414,-285.88 414,-285.88 480,-285.88 480,-285.88 486,-285.88 492,-291.88 492,-297.88 492,-297.88 492,-326.88 492,-326.88 492,-332.88 486,-338.88 480,-338.88"/>
<text text-anchor="middle" x="447" y="-323.68" font-family="Times,serif" font-size="14.00">p</text>
<text text-anchor="middle" x="447" y="-308.68" font-family="Times,serif" font-size="14.00">~</text>
<text text-anchor="middle" x="447" y="-293.68" font-family="Times,serif" font-size="14.00">ConstantData</text>
</g>
<!-- p&#45;&gt;Φ -->
<g id="edge10" class="edge">
<title>p&#45;&gt;Φ</title>
<path fill="none" stroke="black" d="M430.91,-285.65C421.31,-270.29 408.89,-250.43 397.93,-232.9"/>
<polygon fill="black" stroke="black" points="400.62,-230.61 392.35,-223.98 394.69,-234.32 400.62,-230.61"/>
</g>
<!-- F0 -->
<g id="node4" class="node">
<title>F0</title>
<path fill="lightgrey" stroke="black" d="M222,-560.79C222,-560.79 156,-560.79 156,-560.79 150,-560.79 144,-554.79 144,-548.79 144,-548.79 144,-519.79 144,-519.79 144,-513.79 150,-507.79 156,-507.79 156,-507.79 222,-507.79 222,-507.79 228,-507.79 234,-513.79 234,-519.79 234,-519.79 234,-548.79 234,-548.79 234,-554.79 228,-560.79 222,-560.79"/>
<text text-anchor="middle" x="189" y="-545.59" font-family="Times,serif" font-size="14.00">F0</text>
<text text-anchor="middle" x="189" y="-530.59" font-family="Times,serif" font-size="14.00">~</text>
<text text-anchor="middle" x="189" y="-515.59" font-family="Times,serif" font-size="14.00">ConstantData</text>
</g>
<!-- G -->
<g id="node13" class="node">
<title>G</title>
<ellipse fill="none" stroke="black" cx="83" cy="-423.34" rx="43.27" ry="37.45"/>
<text text-anchor="middle" x="83" y="-434.64" font-family="Times,serif" font-size="14.00">G</text>
<text text-anchor="middle" x="83" y="-419.64" font-family="Times,serif" font-size="14.00">~</text>
<text text-anchor="middle" x="83" y="-404.64" font-family="Times,serif" font-size="14.00">Gamma</text>
</g>
<!-- F0&#45;&gt;G -->
<g id="edge7" class="edge">
<title>F0&#45;&gt;G</title>
<path fill="none" stroke="black" d="M167.88,-507.72C159.45,-497.83 149.5,-486.57 140,-476.79 133.87,-470.48 127.16,-463.97 120.55,-457.77"/>
<polygon fill="black" stroke="black" points="122.6,-454.9 112.89,-450.68 117.85,-460.04 122.6,-454.9"/>
</g>
<!-- ℓ -->
<g id="node5" class="node">
<title>ℓ</title>
<path fill="lightgrey" stroke="black" d="M438,-671.74C438,-671.74 372,-671.74 372,-671.74 366,-671.74 360,-665.74 360,-659.74 360,-659.74 360,-630.74 360,-630.74 360,-624.74 366,-618.74 372,-618.74 372,-618.74 438,-618.74 438,-618.74 444,-618.74 450,-624.74 450,-630.74 450,-630.74 450,-659.74 450,-659.74 450,-665.74 444,-671.74 438,-671.74"/>
<text text-anchor="middle" x="405" y="-656.54" font-family="Times,serif" font-size="14.00">ℓ</text>
<text text-anchor="middle" x="405" y="-641.54" font-family="Times,serif" font-size="14.00">~</text>
<text text-anchor="middle" x="405" y="-626.54" font-family="Times,serif" font-size="14.00">ConstantData</text>
</g>
<!-- F_prime -->
<g id="node6" class="node">
<title>F_prime</title>
<polygon fill="none" stroke="black" points="343.5,-560.79 252.5,-560.79 252.5,-507.79 343.5,-507.79 343.5,-560.79"/>
<text text-anchor="middle" x="298" y="-545.59" font-family="Times,serif" font-size="14.00">F_prime</text>
<text text-anchor="middle" x="298" y="-530.59" font-family="Times,serif" font-size="14.00">~</text>
<text text-anchor="middle" x="298" y="-515.59" font-family="Times,serif" font-size="14.00">Deterministic</text>
</g>
<!-- ℓ&#45;&gt;F_prime -->
<g id="edge1" class="edge">
<title>ℓ&#45;&gt;F_prime</title>
<path fill="none" stroke="black" d="M379.91,-618.7C365.13,-603.64 346.27,-584.44 330.37,-568.25"/>
<polygon fill="black" stroke="black" points="332.8,-565.73 323.3,-561.05 327.81,-570.64 332.8,-565.73"/>
</g>
<!-- F_prime&#45;&gt;G -->
<g id="edge6" class="edge">
<title>F_prime&#45;&gt;G</title>
<path fill="none" stroke="black" d="M279.31,-507.61C269.73,-496.35 257.11,-484.07 243,-476.79 201.83,-455.55 183.33,-477.2 140,-460.81 134.78,-458.84 129.54,-456.34 124.45,-453.58"/>
<polygon fill="black" stroke="black" points="125.93,-450.39 115.53,-448.39 122.41,-456.44 125.93,-450.39"/>
</g>
<!-- F -->
<g id="node7" class="node">
<title>F</title>
<path fill="lightgrey" stroke="black" d="M330,-671.74C330,-671.74 264,-671.74 264,-671.74 258,-671.74 252,-665.74 252,-659.74 252,-659.74 252,-630.74 252,-630.74 252,-624.74 258,-618.74 264,-618.74 264,-618.74 330,-618.74 330,-618.74 336,-618.74 342,-624.74 342,-630.74 342,-630.74 342,-659.74 342,-659.74 342,-665.74 336,-671.74 330,-671.74"/>
<text text-anchor="middle" x="297" y="-656.54" font-family="Times,serif" font-size="14.00">F</text>
<text text-anchor="middle" x="297" y="-641.54" font-family="Times,serif" font-size="14.00">~</text>
<text text-anchor="middle" x="297" y="-626.54" font-family="Times,serif" font-size="14.00">ConstantData</text>
</g>
<!-- F&#45;&gt;F_prime -->
<g id="edge2" class="edge">
<title>F&#45;&gt;F_prime</title>
<path fill="none" stroke="black" d="M297.23,-618.7C297.36,-604.59 297.53,-586.84 297.67,-571.35"/>
<polygon fill="black" stroke="black" points="301.17,-571.08 297.76,-561.05 294.17,-571.02 301.17,-571.08"/>
</g>
<!-- Λ -->
<g id="node8" class="node">
<title>Λ</title>
<path fill="lightgrey" stroke="black" d="M230,-449.84C230,-449.84 164,-449.84 164,-449.84 158,-449.84 152,-443.84 152,-437.84 152,-437.84 152,-408.84 152,-408.84 152,-402.84 158,-396.84 164,-396.84 164,-396.84 230,-396.84 230,-396.84 236,-396.84 242,-402.84 242,-408.84 242,-408.84 242,-437.84 242,-437.84 242,-443.84 236,-449.84 230,-449.84"/>
<text text-anchor="middle" x="197" y="-434.64" font-family="Times,serif" font-size="14.00">Λ</text>
<text text-anchor="middle" x="197" y="-419.64" font-family="Times,serif" font-size="14.00">~</text>
<text text-anchor="middle" x="197" y="-404.64" font-family="Times,serif" font-size="14.00">ConstantData</text>
</g>
<!-- N -->
<g id="node9" class="node">
<title>N</title>
<ellipse fill="none" stroke="black" cx="195" cy="-312.38" rx="41.94" ry="37.45"/>
<text text-anchor="middle" x="195" y="-323.68" font-family="Times,serif" font-size="14.00">N</text>
<text text-anchor="middle" x="195" y="-308.68" font-family="Times,serif" font-size="14.00">~</text>
<text text-anchor="middle" x="195" y="-293.68" font-family="Times,serif" font-size="14.00">Poisson</text>
</g>
<!-- Λ&#45;&gt;N -->
<g id="edge9" class="edge">
<title>Λ&#45;&gt;N</title>
<path fill="none" stroke="black" d="M196.53,-396.79C196.33,-385.88 196.09,-372.79 195.86,-360.25"/>
<polygon fill="black" stroke="black" points="199.35,-359.84 195.67,-349.91 192.35,-359.97 199.35,-359.84"/>
</g>
<!-- D -->
<g id="node16" class="node">
<title>D</title>
<ellipse fill="none" stroke="black" cx="152" cy="-190.43" rx="41.94" ry="37.45"/>
<text text-anchor="middle" x="152" y="-201.73" font-family="Times,serif" font-size="14.00">D</text>
<text text-anchor="middle" x="152" y="-186.73" font-family="Times,serif" font-size="14.00">~</text>
<text text-anchor="middle" x="152" y="-171.73" font-family="Times,serif" font-size="14.00">Poisson</text>
</g>
<!-- N&#45;&gt;D -->
<g id="edge12" class="edge">
<title>N&#45;&gt;D</title>
<path fill="none" stroke="black" d="M182.45,-276.37C177.9,-263.68 172.7,-249.18 167.9,-235.79"/>
<polygon fill="black" stroke="black" points="171.16,-234.52 164.49,-226.28 164.57,-236.88 171.16,-234.52"/>
</g>
<!-- A -->
<g id="node17" class="node">
<title>A</title>
<ellipse fill="none" stroke="black" cx="149" cy="-76.48" rx="48.17" ry="37.45"/>
<text text-anchor="middle" x="149" y="-87.78" font-family="Times,serif" font-size="14.00">A</text>
<text text-anchor="middle" x="149" y="-72.78" font-family="Times,serif" font-size="14.00">~</text>
<text text-anchor="middle" x="149" y="-57.78" font-family="Times,serif" font-size="14.00">Binomial</text>
</g>
<!-- Φ&#45;&gt;A -->
<g id="edge14" class="edge">
<title>Φ&#45;&gt;A</title>
<path fill="none" stroke="black" d="M353.07,-156.34C344.45,-143.9 333.2,-130.68 320,-121.95 286.35,-99.7 242.14,-88.57 207.11,-83.01"/>
<polygon fill="black" stroke="black" points="207.42,-79.52 197.02,-81.52 206.4,-86.45 207.42,-79.52"/>
</g>
<!-- C -->
<g id="node11" class="node">
<title>C</title>
<path fill="lightgrey" stroke="black" d="M299,-216.93C299,-216.93 233,-216.93 233,-216.93 227,-216.93 221,-210.93 221,-204.93 221,-204.93 221,-175.93 221,-175.93 221,-169.93 227,-163.93 233,-163.93 233,-163.93 299,-163.93 299,-163.93 305,-163.93 311,-169.93 311,-175.93 311,-175.93 311,-204.93 311,-204.93 311,-210.93 305,-216.93 299,-216.93"/>
<text text-anchor="middle" x="266" y="-201.73" font-family="Times,serif" font-size="14.00">C</text>
<text text-anchor="middle" x="266" y="-186.73" font-family="Times,serif" font-size="14.00">~</text>
<text text-anchor="middle" x="266" y="-171.73" font-family="Times,serif" font-size="14.00">ConstantData</text>
</g>
<!-- C&#45;&gt;A -->
<g id="edge16" class="edge">
<title>C&#45;&gt;A</title>
<path fill="none" stroke="black" d="M246.71,-163.84C236.23,-150.68 222.64,-134.76 209,-121.95 203.98,-117.24 198.46,-112.58 192.87,-108.13"/>
<polygon fill="black" stroke="black" points="194.73,-105.14 184.67,-101.81 190.45,-110.69 194.73,-105.14"/>
</g>
<!-- Z -->
<g id="node12" class="node">
<title>Z</title>
<ellipse fill="none" stroke="black" cx="78" cy="-534.29" rx="48.17" ry="37.45"/>
<text text-anchor="middle" x="78" y="-545.59" font-family="Times,serif" font-size="14.00">Z</text>
<text text-anchor="middle" x="78" y="-530.59" font-family="Times,serif" font-size="14.00">~</text>
<text text-anchor="middle" x="78" y="-515.59" font-family="Times,serif" font-size="14.00">Bernoulli</text>
</g>
<!-- Z&#45;&gt;G -->
<g id="edge5" class="edge">
<title>Z&#45;&gt;G</title>
<path fill="none" stroke="black" d="M79.68,-496.71C80.05,-488.53 80.46,-479.75 80.85,-471.23"/>
<polygon fill="black" stroke="black" points="84.35,-471.16 81.32,-461.01 77.36,-470.84 84.35,-471.16"/>
</g>
<!-- H -->
<g id="node15" class="node">
<title>H</title>
<polygon fill="none" stroke="black" points="127.5,-338.88 36.5,-338.88 36.5,-285.88 127.5,-285.88 127.5,-338.88"/>
<text text-anchor="middle" x="82" y="-323.68" font-family="Times,serif" font-size="14.00">H</text>
<text text-anchor="middle" x="82" y="-308.68" font-family="Times,serif" font-size="14.00">~</text>
<text text-anchor="middle" x="82" y="-293.68" font-family="Times,serif" font-size="14.00">Deterministic</text>
</g>
<!-- G&#45;&gt;H -->
<g id="edge8" class="edge">
<title>G&#45;&gt;H</title>
<path fill="none" stroke="black" d="M82.66,-385.75C82.56,-374.02 82.44,-361.03 82.33,-349.34"/>
<polygon fill="black" stroke="black" points="85.83,-349 82.24,-339.04 78.83,-349.07 85.83,-349"/>
</g>
<!-- Π&#45;&gt;Z -->
<g id="edge4" class="edge">
<title>Π&#45;&gt;Z</title>
<path fill="none" stroke="black" d="M78,-607.66C78,-599.49 78,-590.71 78,-582.18"/>
<polygon fill="black" stroke="black" points="81.5,-581.96 78,-571.96 74.5,-581.96 81.5,-581.96"/>
</g>
<!-- H&#45;&gt;D -->
<g id="edge13" class="edge">
<title>H&#45;&gt;D</title>
<path fill="none" stroke="black" d="M97.02,-285.65C105.98,-270.29 117.57,-250.43 127.8,-232.9"/>
<polygon fill="black" stroke="black" points="130.99,-234.38 133,-223.98 124.94,-230.86 130.99,-234.38"/>
</g>
<!-- H&#45;&gt;A -->
<g id="edge17" class="edge">
<title>H&#45;&gt;A</title>
<path fill="none" stroke="black" d="M79.05,-285.61C75.88,-247.63 74.42,-175.37 101,-121.95 102.99,-117.95 105.5,-114.14 108.32,-110.53"/>
<polygon fill="black" stroke="black" points="110.96,-112.84 114.93,-103.02 105.7,-108.22 110.96,-112.84"/>
</g>
<!-- D&#45;&gt;A -->
<g id="edge15" class="edge">
<title>D&#45;&gt;A</title>
<path fill="none" stroke="black" d="M151.02,-152.77C150.77,-143.69 150.51,-133.83 150.26,-124.33"/>
<polygon fill="black" stroke="black" points="153.75,-124.12 149.98,-114.22 146.75,-124.31 153.75,-124.12"/>
</g>
</g>
</svg>
