<?xml version="1.0" encoding="UTF-8" standalone="no"?>
<!DOCTYPE svg PUBLIC "-//W3C//DTD SVG 1.1//EN"
 "http://www.w3.org/Graphics/SVG/1.1/DTD/svg11.dtd">
<!-- Generated by graphviz version 6.0.1 (0)
 -->
<!-- Pages: 1 -->
<svg width="790pt" height="777pt"
 viewBox="0.00 0.00 790.00 776.72" xmlns="http://www.w3.org/2000/svg" xmlns:xlink="http://www.w3.org/1999/xlink">
<g id="graph0" class="graph" transform="scale(1 1) rotate(0) translate(4 772.72)">
<polygon fill="white" stroke="none" points="-4,4 -4,-772.72 786,-772.72 786,4 -4,4"/>
<g id="clust1" class="cluster">
<title>clusterclone (5)</title>
<path fill="none" stroke="black" d="M588,-473.79C588,-473.79 672,-473.79 672,-473.79 678,-473.79 684,-479.79 684,-485.79 684,-485.79 684,-664.74 684,-664.74 684,-670.74 678,-676.74 672,-676.74 672,-676.74 588,-676.74 588,-676.74 582,-676.74 576,-670.74 576,-664.74 576,-664.74 576,-485.79 576,-485.79 576,-479.79 582,-473.79 588,-473.79"/>
<text text-anchor="middle" x="651.5" y="-481.59" font-family="Times,serif" font-size="14.00">clone (5)</text>
</g>
<g id="clust2" class="cluster">
<title>clusterspot (10)</title>
<path fill="none" stroke="black" d="M238,-240.91C238,-240.91 320,-240.91 320,-240.91 326,-240.91 332,-246.91 332,-252.91 332,-252.91 332,-442.84 332,-442.84 332,-448.84 326,-454.84 320,-454.84 320,-454.84 238,-454.84 238,-454.84 232,-454.84 226,-448.84 226,-442.84 226,-442.84 226,-252.91 226,-252.91 226,-246.91 232,-240.91 238,-240.91"/>
<text text-anchor="middle" x="299.5" y="-248.71" font-family="Times,serif" font-size="14.00">spot (10)</text>
</g>
<g id="clust3" class="cluster">
<title>clusterposition (40) x clone (5)</title>
<path fill="none" stroke="black" d="M20,-240.91C20,-240.91 206,-240.91 206,-240.91 212,-240.91 218,-246.91 218,-252.91 218,-252.91 218,-342.86 218,-342.86 218,-348.86 212,-354.86 206,-354.86 206,-354.86 20,-354.86 20,-354.86 14,-354.86 8,-348.86 8,-342.86 8,-342.86 8,-252.91 8,-252.91 8,-246.91 14,-240.91 20,-240.91"/>
<text text-anchor="middle" x="143.5" y="-248.71" font-family="Times,serif" font-size="14.00">position (40) x clone (5)</text>
</g>
<g id="clust4" class="cluster">
<title>clusterspot (10) x clone (5)</title>
<path fill="none" stroke="black" d="M352,-251.88C352,-251.88 456,-251.88 456,-251.88 462,-251.88 468,-257.88 468,-263.88 468,-263.88 468,-675.72 468,-675.72 468,-681.72 462,-687.72 456,-687.72 456,-687.72 352,-687.72 352,-687.72 346,-687.72 340,-681.72 340,-675.72 340,-675.72 340,-263.88 340,-263.88 340,-257.88 346,-251.88 352,-251.88"/>
<text text-anchor="middle" x="404" y="-259.68" font-family="Times,serif" font-size="14.00">spot (10) x clone (5)</text>
</g>
<g id="clust5" class="cluster">
<title>clusterposition (40) x spot (10)</title>
<path fill="none" stroke="black" d="M125,-8C125,-8 419,-8 419,-8 425,-8 431,-14 431,-20 431,-20 431,-220.91 431,-220.91 431,-226.91 425,-232.91 419,-232.91 419,-232.91 125,-232.91 125,-232.91 119,-232.91 113,-226.91 113,-220.91 113,-220.91 113,-20 113,-20 113,-14 119,-8 125,-8"/>
<text text-anchor="middle" x="356.5" y="-15.8" font-family="Times,serif" font-size="14.00">position (40) x spot (10)</text>
</g>
<!-- p -->
<g id="node1" class="node">
<title>p</title>
<path fill="lightgrey" stroke="black" d="M94,-446.84C94,-446.84 28,-446.84 28,-446.84 22,-446.84 16,-440.84 16,-434.84 16,-434.84 16,-405.84 16,-405.84 16,-399.84 22,-393.84 28,-393.84 28,-393.84 94,-393.84 94,-393.84 100,-393.84 106,-399.84 106,-405.84 106,-405.84 106,-434.84 106,-434.84 106,-440.84 100,-446.84 94,-446.84"/>
<text text-anchor="middle" x="61" y="-431.64" font-family="Times,serif" font-size="14.00">p</text>
<text text-anchor="middle" x="61" y="-416.64" font-family="Times,serif" font-size="14.00">~</text>
<text text-anchor="middle" x="61" y="-401.64" font-family="Times,serif" font-size="14.00">ConstantData</text>
</g>
<!-- Φ -->
<g id="node10" class="node">
<title>Φ</title>
<ellipse fill="none" stroke="black" cx="167" cy="-309.38" rx="43.27" ry="37.45"/>
<text text-anchor="middle" x="167" y="-320.68" font-family="Times,serif" font-size="14.00">Φ</text>
<text text-anchor="middle" x="167" y="-305.68" font-family="Times,serif" font-size="14.00">~</text>
<text text-anchor="middle" x="167" y="-290.68" font-family="Times,serif" font-size="14.00">Gamma</text>
</g>
<!-- p&#45;&gt;Φ -->
<g id="edge11" class="edge">
<title>p&#45;&gt;Φ</title>
<path fill="none" stroke="black" d="M85.85,-393.79C99.74,-379.52 117.25,-361.52 132.45,-345.9"/>
<polygon fill="black" stroke="black" points="135.23,-348.05 139.7,-338.45 130.22,-343.17 135.23,-348.05"/>
</g>
<!-- F0 -->
<g id="node2" class="node">
<title>F0</title>
<path fill="lightgrey" stroke="black" d="M554,-557.79C554,-557.79 488,-557.79 488,-557.79 482,-557.79 476,-551.79 476,-545.79 476,-545.79 476,-516.79 476,-516.79 476,-510.79 482,-504.79 488,-504.79 488,-504.79 554,-504.79 554,-504.79 560,-504.79 566,-510.79 566,-516.79 566,-516.79 566,-545.79 566,-545.79 566,-551.79 560,-557.79 554,-557.79"/>
<text text-anchor="middle" x="521" y="-542.59" font-family="Times,serif" font-size="14.00">F0</text>
<text text-anchor="middle" x="521" y="-527.59" font-family="Times,serif" font-size="14.00">~</text>
<text text-anchor="middle" x="521" y="-512.59" font-family="Times,serif" font-size="14.00">ConstantData</text>
</g>
<!-- G -->
<g id="node13" class="node">
<title>G</title>
<ellipse fill="none" stroke="black" cx="413" cy="-420.34" rx="43.27" ry="37.45"/>
<text text-anchor="middle" x="413" y="-431.64" font-family="Times,serif" font-size="14.00">G</text>
<text text-anchor="middle" x="413" y="-416.64" font-family="Times,serif" font-size="14.00">~</text>
<text text-anchor="middle" x="413" y="-401.64" font-family="Times,serif" font-size="14.00">Gamma</text>
</g>
<!-- F0&#45;&gt;G -->
<g id="edge5" class="edge">
<title>F0&#45;&gt;G</title>
<path fill="none" stroke="black" d="M499.97,-504.63C491.55,-494.74 481.58,-483.49 472,-473.79 465.42,-467.13 458.15,-460.29 451.03,-453.84"/>
<polygon fill="black" stroke="black" points="453.19,-451.08 443.4,-447.02 448.53,-456.3 453.19,-451.08"/>
</g>
<!-- r -->
<g id="node3" class="node">
<title>r</title>
<path fill="lightgrey" stroke="black" d="M202,-446.84C202,-446.84 136,-446.84 136,-446.84 130,-446.84 124,-440.84 124,-434.84 124,-434.84 124,-405.84 124,-405.84 124,-399.84 130,-393.84 136,-393.84 136,-393.84 202,-393.84 202,-393.84 208,-393.84 214,-399.84 214,-405.84 214,-405.84 214,-434.84 214,-434.84 214,-440.84 208,-446.84 202,-446.84"/>
<text text-anchor="middle" x="169" y="-431.64" font-family="Times,serif" font-size="14.00">r</text>
<text text-anchor="middle" x="169" y="-416.64" font-family="Times,serif" font-size="14.00">~</text>
<text text-anchor="middle" x="169" y="-401.64" font-family="Times,serif" font-size="14.00">ConstantData</text>
</g>
<!-- r&#45;&gt;Φ -->
<g id="edge10" class="edge">
<title>r&#45;&gt;Φ</title>
<path fill="none" stroke="black" d="M168.53,-393.79C168.33,-382.88 168.09,-369.79 167.86,-357.25"/>
<polygon fill="black" stroke="black" points="171.35,-356.84 167.67,-346.91 164.35,-356.97 171.35,-356.84"/>
</g>
<!-- ζ_s -->
<g id="node4" class="node">
<title>ζ_s</title>
<path fill="lightgrey" stroke="black" d="M443,-768.72C443,-768.72 377,-768.72 377,-768.72 371,-768.72 365,-762.72 365,-756.72 365,-756.72 365,-727.72 365,-727.72 365,-721.72 371,-715.72 377,-715.72 377,-715.72 443,-715.72 443,-715.72 449,-715.72 455,-721.72 455,-727.72 455,-727.72 455,-756.72 455,-756.72 455,-762.72 449,-768.72 443,-768.72"/>
<text text-anchor="middle" x="410" y="-753.52" font-family="Times,serif" font-size="14.00">ζ_s</text>
<text text-anchor="middle" x="410" y="-738.52" font-family="Times,serif" font-size="14.00">~</text>
<text text-anchor="middle" x="410" y="-723.52" font-family="Times,serif" font-size="14.00">ConstantData</text>
</g>
<!-- Π -->
<g id="node12" class="node">
<title>Π</title>
<ellipse fill="none" stroke="black" cx="410" cy="-642.24" rx="28.98" ry="37.45"/>
<text text-anchor="middle" x="410" y="-653.54" font-family="Times,serif" font-size="14.00">Π</text>
<text text-anchor="middle" x="410" y="-638.54" font-family="Times,serif" font-size="14.00">~</text>
<text text-anchor="middle" x="410" y="-623.54" font-family="Times,serif" font-size="14.00">Beta</text>
</g>
<!-- ζ_s&#45;&gt;Π -->
<g id="edge3" class="edge">
<title>ζ_s&#45;&gt;Π</title>
<path fill="none" stroke="black" d="M410,-715.48C410,-707.65 410,-698.8 410,-690.04"/>
<polygon fill="black" stroke="black" points="413.5,-689.87 410,-679.87 406.5,-689.87 413.5,-689.87"/>
</g>
<!-- ℓ -->
<g id="node5" class="node">
<title>ℓ</title>
<path fill="lightgrey" stroke="black" d="M770,-668.74C770,-668.74 704,-668.74 704,-668.74 698,-668.74 692,-662.74 692,-656.74 692,-656.74 692,-627.74 692,-627.74 692,-621.74 698,-615.74 704,-615.74 704,-615.74 770,-615.74 770,-615.74 776,-615.74 782,-621.74 782,-627.74 782,-627.74 782,-656.74 782,-656.74 782,-662.74 776,-668.74 770,-668.74"/>
<text text-anchor="middle" x="737" y="-653.54" font-family="Times,serif" font-size="14.00">ℓ</text>
<text text-anchor="middle" x="737" y="-638.54" font-family="Times,serif" font-size="14.00">~</text>
<text text-anchor="middle" x="737" y="-623.54" font-family="Times,serif" font-size="14.00">ConstantData</text>
</g>
<!-- F_prime -->
<g id="node7" class="node">
<title>F_prime</title>
<polygon fill="none" stroke="black" points="675.5,-557.79 584.5,-557.79 584.5,-504.79 675.5,-504.79 675.5,-557.79"/>
<text text-anchor="middle" x="630" y="-542.59" font-family="Times,serif" font-size="14.00">F_prime</text>
<text text-anchor="middle" x="630" y="-527.59" font-family="Times,serif" font-size="14.00">~</text>
<text text-anchor="middle" x="630" y="-512.59" font-family="Times,serif" font-size="14.00">Deterministic</text>
</g>
<!-- ℓ&#45;&gt;F_prime -->
<g id="edge2" class="edge">
<title>ℓ&#45;&gt;F_prime</title>
<path fill="none" stroke="black" d="M711.91,-615.7C697.13,-600.64 678.27,-581.44 662.37,-565.25"/>
<polygon fill="black" stroke="black" points="664.8,-562.73 655.3,-558.05 659.81,-567.64 664.8,-562.73"/>
</g>
<!-- F -->
<g id="node6" class="node">
<title>F</title>
<path fill="lightgrey" stroke="black" d="M662,-668.74C662,-668.74 596,-668.74 596,-668.74 590,-668.74 584,-662.74 584,-656.74 584,-656.74 584,-627.74 584,-627.74 584,-621.74 590,-615.74 596,-615.74 596,-615.74 662,-615.74 662,-615.74 668,-615.74 674,-621.74 674,-627.74 674,-627.74 674,-656.74 674,-656.74 674,-662.74 668,-668.74 662,-668.74"/>
<text text-anchor="middle" x="629" y="-653.54" font-family="Times,serif" font-size="14.00">F</text>
<text text-anchor="middle" x="629" y="-638.54" font-family="Times,serif" font-size="14.00">~</text>
<text text-anchor="middle" x="629" y="-623.54" font-family="Times,serif" font-size="14.00">ConstantData</text>
</g>
<!-- F&#45;&gt;F_prime -->
<g id="edge1" class="edge">
<title>F&#45;&gt;F_prime</title>
<path fill="none" stroke="black" d="M629.23,-615.7C629.36,-601.59 629.53,-583.84 629.67,-568.35"/>
<polygon fill="black" stroke="black" points="633.17,-568.08 629.76,-558.05 626.17,-568.02 633.17,-568.08"/>
</g>
<!-- F_prime&#45;&gt;G -->
<g id="edge6" class="edge">
<title>F_prime&#45;&gt;G</title>
<path fill="none" stroke="black" d="M609.99,-504.74C600.39,-493.92 588.14,-481.95 575,-473.79 541.21,-452.79 498.17,-439.38 464.96,-431.37"/>
<polygon fill="black" stroke="black" points="465.51,-427.91 454.98,-429.06 463.93,-434.73 465.51,-427.91"/>
</g>
<!-- Λ -->
<g id="node8" class="node">
<title>Λ</title>
<path fill="lightgrey" stroke="black" d="M312,-446.84C312,-446.84 246,-446.84 246,-446.84 240,-446.84 234,-440.84 234,-434.84 234,-434.84 234,-405.84 234,-405.84 234,-399.84 240,-393.84 246,-393.84 246,-393.84 312,-393.84 312,-393.84 318,-393.84 324,-399.84 324,-405.84 324,-405.84 324,-434.84 324,-434.84 324,-440.84 318,-446.84 312,-446.84"/>
<text text-anchor="middle" x="279" y="-431.64" font-family="Times,serif" font-size="14.00">Λ</text>
<text text-anchor="middle" x="279" y="-416.64" font-family="Times,serif" font-size="14.00">~</text>
<text text-anchor="middle" x="279" y="-401.64" font-family="Times,serif" font-size="14.00">ConstantData</text>
</g>
<!-- N -->
<g id="node9" class="node">
<title>N</title>
<ellipse fill="none" stroke="black" cx="280" cy="-309.38" rx="41.94" ry="37.45"/>
<text text-anchor="middle" x="280" y="-320.68" font-family="Times,serif" font-size="14.00">N</text>
<text text-anchor="middle" x="280" y="-305.68" font-family="Times,serif" font-size="14.00">~</text>
<text text-anchor="middle" x="280" y="-290.68" font-family="Times,serif" font-size="14.00">Poisson</text>
</g>
<!-- Λ&#45;&gt;N -->
<g id="edge9" class="edge">
<title>Λ&#45;&gt;N</title>
<path fill="none" stroke="black" d="M279.23,-393.79C279.33,-382.88 279.45,-369.79 279.57,-357.25"/>
<polygon fill="black" stroke="black" points="283.07,-356.94 279.66,-346.91 276.07,-356.88 283.07,-356.94"/>
</g>
<!-- D -->
<g id="node18" class="node">
<title>D</title>
<ellipse fill="lightgrey" stroke="black" cx="381" cy="-187.43" rx="41.94" ry="37.45"/>
<text text-anchor="middle" x="381" y="-198.73" font-family="Times,serif" font-size="14.00">D</text>
<text text-anchor="middle" x="381" y="-183.73" font-family="Times,serif" font-size="14.00">~</text>
<text text-anchor="middle" x="381" y="-168.73" font-family="Times,serif" font-size="14.00">Poisson</text>
</g>
<!-- N&#45;&gt;D -->
<g id="edge13" class="edge">
<title>N&#45;&gt;D</title>
<path fill="none" stroke="black" d="M304.43,-278.74C314.21,-266.93 325.59,-253.24 336,-240.91 340.32,-235.79 344.89,-230.41 349.4,-225.13"/>
<polygon fill="black" stroke="black" points="352.08,-227.38 355.92,-217.5 346.76,-222.83 352.08,-227.38"/>
</g>
<!-- A_denom -->
<g id="node16" class="node">
<title>A_denom</title>
<polygon fill="none" stroke="black" points="321.5,-213.93 230.5,-213.93 230.5,-160.93 321.5,-160.93 321.5,-213.93"/>
<text text-anchor="middle" x="276" y="-198.73" font-family="Times,serif" font-size="14.00">A_denom</text>
<text text-anchor="middle" x="276" y="-183.73" font-family="Times,serif" font-size="14.00">~</text>
<text text-anchor="middle" x="276" y="-168.73" font-family="Times,serif" font-size="14.00">Deterministic</text>
</g>
<!-- Φ&#45;&gt;A_denom -->
<g id="edge18" class="edge">
<title>Φ&#45;&gt;A_denom</title>
<path fill="none" stroke="black" d="M190.64,-277.86C200.1,-266.06 211.28,-252.61 222,-240.91 227.97,-234.4 234.55,-227.67 241,-221.29"/>
<polygon fill="black" stroke="black" points="243.76,-223.48 248.47,-213.99 238.87,-218.47 243.76,-223.48"/>
</g>
<!-- A_num -->
<g id="node19" class="node">
<title>A_num</title>
<polygon fill="none" stroke="black" points="212.5,-213.93 121.5,-213.93 121.5,-160.93 212.5,-160.93 212.5,-213.93"/>
<text text-anchor="middle" x="167" y="-198.73" font-family="Times,serif" font-size="14.00">A_num</text>
<text text-anchor="middle" x="167" y="-183.73" font-family="Times,serif" font-size="14.00">~</text>
<text text-anchor="middle" x="167" y="-168.73" font-family="Times,serif" font-size="14.00">Deterministic</text>
</g>
<!-- Φ&#45;&gt;A_num -->
<g id="edge15" class="edge">
<title>Φ&#45;&gt;A_num</title>
<path fill="none" stroke="black" d="M167,-271.74C167,-256.77 167,-239.51 167,-224.59"/>
<polygon fill="black" stroke="black" points="170.5,-224.2 167,-214.2 163.5,-224.2 170.5,-224.2"/>
</g>
<!-- C -->
<g id="node11" class="node">
<title>C</title>
<path fill="lightgrey" stroke="black" d="M94,-335.88C94,-335.88 28,-335.88 28,-335.88 22,-335.88 16,-329.88 16,-323.88 16,-323.88 16,-294.88 16,-294.88 16,-288.88 22,-282.88 28,-282.88 28,-282.88 94,-282.88 94,-282.88 100,-282.88 106,-288.88 106,-294.88 106,-294.88 106,-323.88 106,-323.88 106,-329.88 100,-335.88 94,-335.88"/>
<text text-anchor="middle" x="61" y="-320.68" font-family="Times,serif" font-size="14.00">C</text>
<text text-anchor="middle" x="61" y="-305.68" font-family="Times,serif" font-size="14.00">~</text>
<text text-anchor="middle" x="61" y="-290.68" font-family="Times,serif" font-size="14.00">ConstantData</text>
</g>
<!-- C&#45;&gt;A_num -->
<g id="edge16" class="edge">
<title>C&#45;&gt;A_num</title>
<path fill="none" stroke="black" d="M80.39,-282.87C90.41,-270.02 103.02,-254.35 115,-240.91 120.76,-234.44 127.11,-227.73 133.32,-221.35"/>
<polygon fill="black" stroke="black" points="135.99,-223.64 140.52,-214.06 131,-218.72 135.99,-223.64"/>
</g>
<!-- Z -->
<g id="node15" class="node">
<title>Z</title>
<ellipse fill="none" stroke="black" cx="410" cy="-531.29" rx="48.17" ry="37.45"/>
<text text-anchor="middle" x="410" y="-542.59" font-family="Times,serif" font-size="14.00">Z</text>
<text text-anchor="middle" x="410" y="-527.59" font-family="Times,serif" font-size="14.00">~</text>
<text text-anchor="middle" x="410" y="-512.59" font-family="Times,serif" font-size="14.00">Bernoulli</text>
</g>
<!-- Π&#45;&gt;Z -->
<g id="edge4" class="edge">
<title>Π&#45;&gt;Z</title>
<path fill="none" stroke="black" d="M410,-604.66C410,-596.49 410,-587.71 410,-579.18"/>
<polygon fill="black" stroke="black" points="413.5,-578.96 410,-568.96 406.5,-578.96 413.5,-578.96"/>
</g>
<!-- H -->
<g id="node14" class="node">
<title>H</title>
<polygon fill="none" stroke="black" points="439.5,-335.88 348.5,-335.88 348.5,-282.88 439.5,-282.88 439.5,-335.88"/>
<text text-anchor="middle" x="394" y="-320.68" font-family="Times,serif" font-size="14.00">H</text>
<text text-anchor="middle" x="394" y="-305.68" font-family="Times,serif" font-size="14.00">~</text>
<text text-anchor="middle" x="394" y="-290.68" font-family="Times,serif" font-size="14.00">Deterministic</text>
</g>
<!-- G&#45;&gt;H -->
<g id="edge8" class="edge">
<title>G&#45;&gt;H</title>
<path fill="none" stroke="black" d="M406.67,-383.06C404.6,-371.18 402.3,-358.01 400.24,-346.17"/>
<polygon fill="black" stroke="black" points="403.66,-345.43 398.5,-336.18 396.77,-346.63 403.66,-345.43"/>
</g>
<!-- H&#45;&gt;A_denom -->
<g id="edge17" class="edge">
<title>H&#45;&gt;A_denom</title>
<path fill="none" stroke="black" d="M373.34,-282.63C362.61,-269.72 349.05,-254.07 336,-240.91 329.35,-234.19 321.97,-227.33 314.74,-220.87"/>
<polygon fill="black" stroke="black" points="316.8,-218.02 306.98,-214.05 312.17,-223.28 316.8,-218.02"/>
</g>
<!-- H&#45;&gt;D -->
<g id="edge12" class="edge">
<title>H&#45;&gt;D</title>
<path fill="none" stroke="black" d="M391.21,-282.65C389.72,-268.87 387.83,-251.47 386.09,-235.38"/>
<polygon fill="black" stroke="black" points="389.53,-234.61 384.97,-225.04 382.57,-235.36 389.53,-234.61"/>
</g>
<!-- H&#45;&gt;A_num -->
<g id="edge14" class="edge">
<title>H&#45;&gt;A_num</title>
<path fill="none" stroke="black" d="M379.18,-282.67C369.07,-267.71 354.22,-250.06 336,-240.91 313.31,-229.51 245.63,-242.21 222,-232.91 214.37,-229.9 206.97,-225.44 200.21,-220.48"/>
<polygon fill="black" stroke="black" points="202.04,-217.46 192.02,-214.01 197.7,-222.95 202.04,-217.46"/>
</g>
<!-- Z&#45;&gt;G -->
<g id="edge7" class="edge">
<title>Z&#45;&gt;G</title>
<path fill="none" stroke="black" d="M411.01,-493.71C411.23,-485.53 411.47,-476.75 411.71,-468.23"/>
<polygon fill="black" stroke="black" points="415.21,-468.1 411.99,-458.01 408.22,-467.91 415.21,-468.1"/>
</g>
<!-- A -->
<g id="node17" class="node">
<title>A</title>
<ellipse fill="lightgrey" stroke="black" cx="276" cy="-76.48" rx="48.17" ry="37.45"/>
<text text-anchor="middle" x="276" y="-87.78" font-family="Times,serif" font-size="14.00">A</text>
<text text-anchor="middle" x="276" y="-72.78" font-family="Times,serif" font-size="14.00">~</text>
<text text-anchor="middle" x="276" y="-57.78" font-family="Times,serif" font-size="14.00">Binomial</text>
</g>
<!-- A_denom&#45;&gt;A -->
<g id="edge19" class="edge">
<title>A_denom&#45;&gt;A</title>
<path fill="none" stroke="black" d="M276,-160.89C276,-149.98 276,-136.89 276,-124.35"/>
<polygon fill="black" stroke="black" points="279.5,-124 276,-114 272.5,-124 279.5,-124"/>
</g>
<!-- D&#45;&gt;A -->
<g id="edge20" class="edge">
<title>D&#45;&gt;A</title>
<path fill="none" stroke="black" d="M354.23,-158.65C341.3,-145.23 325.59,-128.94 311.66,-114.48"/>
<polygon fill="black" stroke="black" points="314.02,-111.88 304.56,-107.11 308.98,-116.74 314.02,-111.88"/>
</g>
<!-- A_num&#45;&gt;A -->
<g id="edge21" class="edge">
<title>A_num&#45;&gt;A</title>
<path fill="none" stroke="black" d="M192.56,-160.89C206.51,-146.94 224.02,-129.43 239.4,-114.06"/>
<polygon fill="black" stroke="black" points="242.15,-116.26 246.75,-106.71 237.21,-111.31 242.15,-116.26"/>
</g>
</g>
</svg>
