<?xml version="1.0" encoding="UTF-8" standalone="no"?>
<!DOCTYPE svg PUBLIC "-//W3C//DTD SVG 1.1//EN"
 "http://www.w3.org/Graphics/SVG/1.1/DTD/svg11.dtd">
<!-- Generated by graphviz version 6.0.1 (0)
 -->
<!-- Pages: 1 -->
<svg width="784pt" height="780pt"
 viewBox="0.00 0.00 784.00 779.72" xmlns="http://www.w3.org/2000/svg" xmlns:xlink="http://www.w3.org/1999/xlink">
<g id="graph0" class="graph" transform="scale(1 1) rotate(0) translate(4 775.72)">
<polygon fill="white" stroke="none" points="-4,4 -4,-775.72 780,-775.72 780,4 -4,4"/>
<g id="clust1" class="cluster">
<title>cluster5</title>
<path fill="none" stroke="black" d="M582,-476.79C582,-476.79 666,-476.79 666,-476.79 672,-476.79 678,-482.79 678,-488.79 678,-488.79 678,-667.74 678,-667.74 678,-673.74 672,-679.74 666,-679.74 666,-679.74 582,-679.74 582,-679.74 576,-679.74 570,-673.74 570,-667.74 570,-667.74 570,-488.79 570,-488.79 570,-482.79 576,-476.79 582,-476.79"/>
<text text-anchor="middle" x="666.5" y="-484.59" font-family="Times,serif" font-size="14.00">5</text>
</g>
<g id="clust2" class="cluster">
<title>clusterspot (10)</title>
<path fill="none" stroke="black" d="M232,-243.91C232,-243.91 314,-243.91 314,-243.91 320,-243.91 326,-249.91 326,-255.91 326,-255.91 326,-445.84 326,-445.84 326,-451.84 320,-457.84 314,-457.84 314,-457.84 232,-457.84 232,-457.84 226,-457.84 220,-451.84 220,-445.84 220,-445.84 220,-255.91 220,-255.91 220,-249.91 226,-243.91 232,-243.91"/>
<text text-anchor="middle" x="293.5" y="-251.71" font-family="Times,serif" font-size="14.00">spot (10)</text>
</g>
<g id="clust3" class="cluster">
<title>clusterposition (40) x clone (5)</title>
<path fill="none" stroke="black" d="M20,-121.95C20,-121.95 206,-121.95 206,-121.95 212,-121.95 218,-127.95 218,-133.95 218,-133.95 218,-223.91 218,-223.91 218,-229.91 212,-235.91 206,-235.91 206,-235.91 20,-235.91 20,-235.91 14,-235.91 8,-229.91 8,-223.91 8,-223.91 8,-133.95 8,-133.95 8,-127.95 14,-121.95 20,-121.95"/>
<text text-anchor="middle" x="143.5" y="-129.75" font-family="Times,serif" font-size="14.00">position (40) x clone (5)</text>
</g>
<g id="clust4" class="cluster">
<title>clusterspot (10) x clone (5)</title>
<path fill="none" stroke="black" d="M346,-254.88C346,-254.88 450,-254.88 450,-254.88 456,-254.88 462,-260.88 462,-266.88 462,-266.88 462,-678.72 462,-678.72 462,-684.72 456,-690.72 450,-690.72 450,-690.72 346,-690.72 346,-690.72 340,-690.72 334,-684.72 334,-678.72 334,-678.72 334,-266.88 334,-266.88 334,-260.88 340,-254.88 346,-254.88"/>
<text text-anchor="middle" x="398" y="-262.68" font-family="Times,serif" font-size="14.00">spot (10) x clone (5)</text>
</g>
<g id="clust5" class="cluster">
<title>clusterposition (40) x spot (10)</title>
<path fill="none" stroke="black" d="M238,-8C238,-8 363,-8 363,-8 369,-8 375,-14 375,-20 375,-20 375,-223.91 375,-223.91 375,-229.91 369,-235.91 363,-235.91 363,-235.91 238,-235.91 238,-235.91 232,-235.91 226,-229.91 226,-223.91 226,-223.91 226,-20 226,-20 226,-14 232,-8 238,-8"/>
<text text-anchor="middle" x="300.5" y="-15.8" font-family="Times,serif" font-size="14.00">position (40) x spot (10)</text>
</g>
<!-- p -->
<g id="node1" class="node">
<title>p</title>
<path fill="lightgrey" stroke="black" d="M92,-338.88C92,-338.88 26,-338.88 26,-338.88 20,-338.88 14,-332.88 14,-326.88 14,-326.88 14,-297.88 14,-297.88 14,-291.88 20,-285.88 26,-285.88 26,-285.88 92,-285.88 92,-285.88 98,-285.88 104,-291.88 104,-297.88 104,-297.88 104,-326.88 104,-326.88 104,-332.88 98,-338.88 92,-338.88"/>
<text text-anchor="middle" x="59" y="-323.68" font-family="Times,serif" font-size="14.00">p</text>
<text text-anchor="middle" x="59" y="-308.68" font-family="Times,serif" font-size="14.00">~</text>
<text text-anchor="middle" x="59" y="-293.68" font-family="Times,serif" font-size="14.00">ConstantData</text>
</g>
<!-- Φ -->
<g id="node10" class="node">
<title>Φ</title>
<ellipse fill="none" stroke="black" cx="167" cy="-190.43" rx="43.27" ry="37.45"/>
<text text-anchor="middle" x="167" y="-201.73" font-family="Times,serif" font-size="14.00">Φ</text>
<text text-anchor="middle" x="167" y="-186.73" font-family="Times,serif" font-size="14.00">~</text>
<text text-anchor="middle" x="167" y="-171.73" font-family="Times,serif" font-size="14.00">Gamma</text>
</g>
<!-- p&#45;&gt;Φ -->
<g id="edge10" class="edge">
<title>p&#45;&gt;Φ</title>
<path fill="none" stroke="black" d="M78.28,-285.77C88.27,-272.89 100.9,-257.24 113,-243.91 118.5,-237.85 124.54,-231.62 130.52,-225.66"/>
<polygon fill="black" stroke="black" points="133.34,-227.8 138.03,-218.29 128.44,-222.8 133.34,-227.8"/>
</g>
<!-- ζ_s -->
<g id="node2" class="node">
<title>ζ_s</title>
<path fill="lightgrey" stroke="black" d="M437,-771.72C437,-771.72 371,-771.72 371,-771.72 365,-771.72 359,-765.72 359,-759.72 359,-759.72 359,-730.72 359,-730.72 359,-724.72 365,-718.72 371,-718.72 371,-718.72 437,-718.72 437,-718.72 443,-718.72 449,-724.72 449,-730.72 449,-730.72 449,-759.72 449,-759.72 449,-765.72 443,-771.72 437,-771.72"/>
<text text-anchor="middle" x="404" y="-756.52" font-family="Times,serif" font-size="14.00">ζ_s</text>
<text text-anchor="middle" x="404" y="-741.52" font-family="Times,serif" font-size="14.00">~</text>
<text text-anchor="middle" x="404" y="-726.52" font-family="Times,serif" font-size="14.00">ConstantData</text>
</g>
<!-- Π -->
<g id="node14" class="node">
<title>Π</title>
<ellipse fill="none" stroke="black" cx="404" cy="-645.24" rx="28.98" ry="37.45"/>
<text text-anchor="middle" x="404" y="-656.54" font-family="Times,serif" font-size="14.00">Π</text>
<text text-anchor="middle" x="404" y="-641.54" font-family="Times,serif" font-size="14.00">~</text>
<text text-anchor="middle" x="404" y="-626.54" font-family="Times,serif" font-size="14.00">Beta</text>
</g>
<!-- ζ_s&#45;&gt;Π -->
<g id="edge3" class="edge">
<title>ζ_s&#45;&gt;Π</title>
<path fill="none" stroke="black" d="M404,-718.48C404,-710.65 404,-701.8 404,-693.04"/>
<polygon fill="black" stroke="black" points="407.5,-692.87 404,-682.87 400.5,-692.87 407.5,-692.87"/>
</g>
<!-- F0 -->
<g id="node3" class="node">
<title>F0</title>
<path fill="lightgrey" stroke="black" d="M548,-560.79C548,-560.79 482,-560.79 482,-560.79 476,-560.79 470,-554.79 470,-548.79 470,-548.79 470,-519.79 470,-519.79 470,-513.79 476,-507.79 482,-507.79 482,-507.79 548,-507.79 548,-507.79 554,-507.79 560,-513.79 560,-519.79 560,-519.79 560,-548.79 560,-548.79 560,-554.79 554,-560.79 548,-560.79"/>
<text text-anchor="middle" x="515" y="-545.59" font-family="Times,serif" font-size="14.00">F0</text>
<text text-anchor="middle" x="515" y="-530.59" font-family="Times,serif" font-size="14.00">~</text>
<text text-anchor="middle" x="515" y="-515.59" font-family="Times,serif" font-size="14.00">ConstantData</text>
</g>
<!-- G -->
<g id="node15" class="node">
<title>G</title>
<ellipse fill="none" stroke="black" cx="407" cy="-423.34" rx="43.27" ry="37.45"/>
<text text-anchor="middle" x="407" y="-434.64" font-family="Times,serif" font-size="14.00">G</text>
<text text-anchor="middle" x="407" y="-419.64" font-family="Times,serif" font-size="14.00">~</text>
<text text-anchor="middle" x="407" y="-404.64" font-family="Times,serif" font-size="14.00">Gamma</text>
</g>
<!-- F0&#45;&gt;G -->
<g id="edge5" class="edge">
<title>F0&#45;&gt;G</title>
<path fill="none" stroke="black" d="M493.97,-507.63C485.55,-497.74 475.58,-486.49 466,-476.79 459.42,-470.13 452.15,-463.29 445.03,-456.84"/>
<polygon fill="black" stroke="black" points="447.19,-454.08 437.4,-450.02 442.53,-459.3 447.19,-454.08"/>
</g>
<!-- ℓ -->
<g id="node4" class="node">
<title>ℓ</title>
<path fill="lightgrey" stroke="black" d="M764,-671.74C764,-671.74 698,-671.74 698,-671.74 692,-671.74 686,-665.74 686,-659.74 686,-659.74 686,-630.74 686,-630.74 686,-624.74 692,-618.74 698,-618.74 698,-618.74 764,-618.74 764,-618.74 770,-618.74 776,-624.74 776,-630.74 776,-630.74 776,-659.74 776,-659.74 776,-665.74 770,-671.74 764,-671.74"/>
<text text-anchor="middle" x="731" y="-656.54" font-family="Times,serif" font-size="14.00">ℓ</text>
<text text-anchor="middle" x="731" y="-641.54" font-family="Times,serif" font-size="14.00">~</text>
<text text-anchor="middle" x="731" y="-626.54" font-family="Times,serif" font-size="14.00">ConstantData</text>
</g>
<!-- F_prime -->
<g id="node6" class="node">
<title>F_prime</title>
<polygon fill="none" stroke="black" points="669.5,-560.79 578.5,-560.79 578.5,-507.79 669.5,-507.79 669.5,-560.79"/>
<text text-anchor="middle" x="624" y="-545.59" font-family="Times,serif" font-size="14.00">F_prime</text>
<text text-anchor="middle" x="624" y="-530.59" font-family="Times,serif" font-size="14.00">~</text>
<text text-anchor="middle" x="624" y="-515.59" font-family="Times,serif" font-size="14.00">Deterministic</text>
</g>
<!-- ℓ&#45;&gt;F_prime -->
<g id="edge1" class="edge">
<title>ℓ&#45;&gt;F_prime</title>
<path fill="none" stroke="black" d="M705.91,-618.7C691.13,-603.64 672.27,-584.44 656.37,-568.25"/>
<polygon fill="black" stroke="black" points="658.8,-565.73 649.3,-561.05 653.81,-570.64 658.8,-565.73"/>
</g>
<!-- r -->
<g id="node5" class="node">
<title>r</title>
<path fill="lightgrey" stroke="black" d="M200,-338.88C200,-338.88 134,-338.88 134,-338.88 128,-338.88 122,-332.88 122,-326.88 122,-326.88 122,-297.88 122,-297.88 122,-291.88 128,-285.88 134,-285.88 134,-285.88 200,-285.88 200,-285.88 206,-285.88 212,-291.88 212,-297.88 212,-297.88 212,-326.88 212,-326.88 212,-332.88 206,-338.88 200,-338.88"/>
<text text-anchor="middle" x="167" y="-323.68" font-family="Times,serif" font-size="14.00">r</text>
<text text-anchor="middle" x="167" y="-308.68" font-family="Times,serif" font-size="14.00">~</text>
<text text-anchor="middle" x="167" y="-293.68" font-family="Times,serif" font-size="14.00">ConstantData</text>
</g>
<!-- r&#45;&gt;Φ -->
<g id="edge11" class="edge">
<title>r&#45;&gt;Φ</title>
<path fill="none" stroke="black" d="M167,-285.65C167,-271.87 167,-254.47 167,-238.38"/>
<polygon fill="black" stroke="black" points="170.5,-238.04 167,-228.04 163.5,-238.04 170.5,-238.04"/>
</g>
<!-- F_prime&#45;&gt;G -->
<g id="edge6" class="edge">
<title>F_prime&#45;&gt;G</title>
<path fill="none" stroke="black" d="M603.99,-507.74C594.39,-496.92 582.14,-484.95 569,-476.79 535.21,-455.79 492.17,-442.38 458.96,-434.37"/>
<polygon fill="black" stroke="black" points="459.51,-430.91 448.98,-432.06 457.93,-437.73 459.51,-430.91"/>
</g>
<!-- F -->
<g id="node7" class="node">
<title>F</title>
<path fill="lightgrey" stroke="black" d="M656,-671.74C656,-671.74 590,-671.74 590,-671.74 584,-671.74 578,-665.74 578,-659.74 578,-659.74 578,-630.74 578,-630.74 578,-624.74 584,-618.74 590,-618.74 590,-618.74 656,-618.74 656,-618.74 662,-618.74 668,-624.74 668,-630.74 668,-630.74 668,-659.74 668,-659.74 668,-665.74 662,-671.74 656,-671.74"/>
<text text-anchor="middle" x="623" y="-656.54" font-family="Times,serif" font-size="14.00">F</text>
<text text-anchor="middle" x="623" y="-641.54" font-family="Times,serif" font-size="14.00">~</text>
<text text-anchor="middle" x="623" y="-626.54" font-family="Times,serif" font-size="14.00">ConstantData</text>
</g>
<!-- F&#45;&gt;F_prime -->
<g id="edge2" class="edge">
<title>F&#45;&gt;F_prime</title>
<path fill="none" stroke="black" d="M623.23,-618.7C623.36,-604.59 623.53,-586.84 623.67,-571.35"/>
<polygon fill="black" stroke="black" points="627.17,-571.08 623.76,-561.05 620.17,-571.02 627.17,-571.08"/>
</g>
<!-- N -->
<g id="node8" class="node">
<title>N</title>
<ellipse fill="none" stroke="black" cx="274" cy="-312.38" rx="41.94" ry="37.45"/>
<text text-anchor="middle" x="274" y="-323.68" font-family="Times,serif" font-size="14.00">N</text>
<text text-anchor="middle" x="274" y="-308.68" font-family="Times,serif" font-size="14.00">~</text>
<text text-anchor="middle" x="274" y="-293.68" font-family="Times,serif" font-size="14.00">Poisson</text>
</g>
<!-- D -->
<g id="node17" class="node">
<title>D</title>
<ellipse fill="lightgrey" stroke="black" cx="282" cy="-190.43" rx="41.94" ry="37.45"/>
<text text-anchor="middle" x="282" y="-201.73" font-family="Times,serif" font-size="14.00">D</text>
<text text-anchor="middle" x="282" y="-186.73" font-family="Times,serif" font-size="14.00">~</text>
<text text-anchor="middle" x="282" y="-171.73" font-family="Times,serif" font-size="14.00">Poisson</text>
</g>
<!-- N&#45;&gt;D -->
<g id="edge12" class="edge">
<title>N&#45;&gt;D</title>
<path fill="none" stroke="black" d="M276.44,-274.74C277.22,-263.11 278.09,-250.1 278.9,-237.88"/>
<polygon fill="black" stroke="black" points="282.4,-238.06 279.57,-227.85 275.41,-237.59 282.4,-238.06"/>
</g>
<!-- Λ -->
<g id="node9" class="node">
<title>Λ</title>
<path fill="lightgrey" stroke="black" d="M306,-449.84C306,-449.84 240,-449.84 240,-449.84 234,-449.84 228,-443.84 228,-437.84 228,-437.84 228,-408.84 228,-408.84 228,-402.84 234,-396.84 240,-396.84 240,-396.84 306,-396.84 306,-396.84 312,-396.84 318,-402.84 318,-408.84 318,-408.84 318,-437.84 318,-437.84 318,-443.84 312,-449.84 306,-449.84"/>
<text text-anchor="middle" x="273" y="-434.64" font-family="Times,serif" font-size="14.00">Λ</text>
<text text-anchor="middle" x="273" y="-419.64" font-family="Times,serif" font-size="14.00">~</text>
<text text-anchor="middle" x="273" y="-404.64" font-family="Times,serif" font-size="14.00">ConstantData</text>
</g>
<!-- Λ&#45;&gt;N -->
<g id="edge9" class="edge">
<title>Λ&#45;&gt;N</title>
<path fill="none" stroke="black" d="M273.23,-396.79C273.33,-385.88 273.45,-372.79 273.57,-360.25"/>
<polygon fill="black" stroke="black" points="277.07,-359.94 273.66,-349.91 270.07,-359.88 277.07,-359.94"/>
</g>
<!-- A -->
<g id="node16" class="node">
<title>A</title>
<ellipse fill="lightgrey" stroke="black" cx="282" cy="-76.48" rx="48.17" ry="37.45"/>
<text text-anchor="middle" x="282" y="-87.78" font-family="Times,serif" font-size="14.00">A</text>
<text text-anchor="middle" x="282" y="-72.78" font-family="Times,serif" font-size="14.00">~</text>
<text text-anchor="middle" x="282" y="-57.78" font-family="Times,serif" font-size="14.00">Binomial</text>
</g>
<!-- Φ&#45;&gt;A -->
<g id="edge16" class="edge">
<title>Φ&#45;&gt;A</title>
<path fill="none" stroke="black" d="M189.59,-158.48C198.99,-146.49 210.41,-133.02 222,-121.95 226.98,-117.2 232.47,-112.51 238.05,-108.05"/>
<polygon fill="black" stroke="black" points="240.47,-110.6 246.24,-101.71 236.19,-105.07 240.47,-110.6"/>
</g>
<!-- C -->
<g id="node11" class="node">
<title>C</title>
<path fill="lightgrey" stroke="black" d="M94,-216.93C94,-216.93 28,-216.93 28,-216.93 22,-216.93 16,-210.93 16,-204.93 16,-204.93 16,-175.93 16,-175.93 16,-169.93 22,-163.93 28,-163.93 28,-163.93 94,-163.93 94,-163.93 100,-163.93 106,-169.93 106,-175.93 106,-175.93 106,-204.93 106,-204.93 106,-210.93 100,-216.93 94,-216.93"/>
<text text-anchor="middle" x="61" y="-201.73" font-family="Times,serif" font-size="14.00">C</text>
<text text-anchor="middle" x="61" y="-186.73" font-family="Times,serif" font-size="14.00">~</text>
<text text-anchor="middle" x="61" y="-171.73" font-family="Times,serif" font-size="14.00">ConstantData</text>
</g>
<!-- C&#45;&gt;A -->
<g id="edge17" class="edge">
<title>C&#45;&gt;A</title>
<path fill="none" stroke="black" d="M75.72,-163.9C85.2,-149.58 98.79,-132.53 115,-121.95 147.56,-100.71 189.96,-89.57 223.88,-83.76"/>
<polygon fill="black" stroke="black" points="224.79,-87.16 234.11,-82.12 223.69,-80.25 224.79,-87.16"/>
</g>
<!-- Z -->
<g id="node12" class="node">
<title>Z</title>
<ellipse fill="none" stroke="black" cx="404" cy="-534.29" rx="48.17" ry="37.45"/>
<text text-anchor="middle" x="404" y="-545.59" font-family="Times,serif" font-size="14.00">Z</text>
<text text-anchor="middle" x="404" y="-530.59" font-family="Times,serif" font-size="14.00">~</text>
<text text-anchor="middle" x="404" y="-515.59" font-family="Times,serif" font-size="14.00">Bernoulli</text>
</g>
<!-- Z&#45;&gt;G -->
<g id="edge7" class="edge">
<title>Z&#45;&gt;G</title>
<path fill="none" stroke="black" d="M405.01,-496.71C405.23,-488.53 405.47,-479.75 405.71,-471.23"/>
<polygon fill="black" stroke="black" points="409.21,-471.1 405.99,-461.01 402.22,-470.91 409.21,-471.1"/>
</g>
<!-- H -->
<g id="node13" class="node">
<title>H</title>
<polygon fill="none" stroke="black" points="433.5,-338.88 342.5,-338.88 342.5,-285.88 433.5,-285.88 433.5,-338.88"/>
<text text-anchor="middle" x="388" y="-323.68" font-family="Times,serif" font-size="14.00">H</text>
<text text-anchor="middle" x="388" y="-308.68" font-family="Times,serif" font-size="14.00">~</text>
<text text-anchor="middle" x="388" y="-293.68" font-family="Times,serif" font-size="14.00">Deterministic</text>
</g>
<!-- H&#45;&gt;A -->
<g id="edge15" class="edge">
<title>H&#45;&gt;A</title>
<path fill="none" stroke="black" d="M385.19,-285.59C380.03,-247.26 366.35,-174.2 333,-121.95 330.37,-117.84 327.25,-113.89 323.87,-110.15"/>
<polygon fill="black" stroke="black" points="326.15,-107.48 316.64,-102.82 321.17,-112.4 326.15,-107.48"/>
</g>
<!-- H&#45;&gt;D -->
<g id="edge13" class="edge">
<title>H&#45;&gt;D</title>
<path fill="none" stroke="black" d="M366.15,-285.59C355.36,-272.95 342.09,-257.55 330,-243.91 325.21,-238.51 320.11,-232.84 315.09,-227.31"/>
<polygon fill="black" stroke="black" points="317.64,-224.92 308.32,-219.88 312.47,-229.63 317.64,-224.92"/>
</g>
<!-- Π&#45;&gt;Z -->
<g id="edge4" class="edge">
<title>Π&#45;&gt;Z</title>
<path fill="none" stroke="black" d="M404,-607.66C404,-599.49 404,-590.71 404,-582.18"/>
<polygon fill="black" stroke="black" points="407.5,-581.96 404,-571.96 400.5,-581.96 407.5,-581.96"/>
</g>
<!-- G&#45;&gt;H -->
<g id="edge8" class="edge">
<title>G&#45;&gt;H</title>
<path fill="none" stroke="black" d="M400.67,-386.06C398.6,-374.18 396.3,-361.01 394.24,-349.17"/>
<polygon fill="black" stroke="black" points="397.66,-348.43 392.5,-339.18 390.77,-349.63 397.66,-348.43"/>
</g>
<!-- D&#45;&gt;A -->
<g id="edge14" class="edge">
<title>D&#45;&gt;A</title>
<path fill="none" stroke="black" d="M282,-152.77C282,-143.69 282,-133.83 282,-124.33"/>
<polygon fill="black" stroke="black" points="285.5,-124.22 282,-114.22 278.5,-124.22 285.5,-124.22"/>
</g>
</g>
</svg>
