<?xml version="1.0" encoding="UTF-8" standalone="no"?>
<!DOCTYPE svg PUBLIC "-//W3C//DTD SVG 1.1//EN"
 "http://www.w3.org/Graphics/SVG/1.1/DTD/svg11.dtd">
<!-- Generated by graphviz version 6.0.1 (0)
 -->
<!-- Pages: 1 -->
<svg width="529pt" height="777pt"
 viewBox="0.00 0.00 528.71 776.72" xmlns="http://www.w3.org/2000/svg" xmlns:xlink="http://www.w3.org/1999/xlink">
<g id="graph0" class="graph" transform="scale(1 1) rotate(0) translate(4 772.72)">
<polygon fill="white" stroke="none" points="-4,4 -4,-772.72 524.71,-772.72 524.71,4 -4,4"/>
<g id="clust3" class="cluster">
<title>clusterposition (40) x clone (5)</title>
<path fill="none" stroke="black" d="M289,-240.91C289,-240.91 475,-240.91 475,-240.91 481,-240.91 487,-246.91 487,-252.91 487,-252.91 487,-342.86 487,-342.86 487,-348.86 481,-354.86 475,-354.86 475,-354.86 289,-354.86 289,-354.86 283,-354.86 277,-348.86 277,-342.86 277,-342.86 277,-252.91 277,-252.91 277,-246.91 283,-240.91 289,-240.91"/>
<text text-anchor="middle" x="412.5" y="-248.71" font-family="Times,serif" font-size="14.00">position (40) x clone (5)</text>
</g>
<g id="clust4" class="cluster">
<title>clusterspot (10) x clone (5)</title>
<path fill="none" stroke="black" d="M153,-251.88C153,-251.88 257,-251.88 257,-251.88 263,-251.88 269,-257.88 269,-263.88 269,-263.88 269,-675.72 269,-675.72 269,-681.72 263,-687.72 257,-687.72 257,-687.72 153,-687.72 153,-687.72 147,-687.72 141,-681.72 141,-675.72 141,-675.72 141,-263.88 141,-263.88 141,-257.88 147,-251.88 153,-251.88"/>
<text text-anchor="middle" x="205" y="-259.68" font-family="Times,serif" font-size="14.00">spot (10) x clone (5)</text>
</g>
<g id="clust5" class="cluster">
<title>clusterposition (40) x spot (10)</title>
<path fill="none" stroke="black" d="M20,-8C20,-8 145,-8 145,-8 151,-8 157,-14 157,-20 157,-20 157,-220.91 157,-220.91 157,-226.91 151,-232.91 145,-232.91 145,-232.91 20,-232.91 20,-232.91 14,-232.91 8,-226.91 8,-220.91 8,-220.91 8,-20 8,-20 8,-14 14,-8 20,-8"/>
<text text-anchor="middle" x="82.5" y="-15.8" font-family="Times,serif" font-size="14.00">position (40) x spot (10)</text>
</g>
<g id="clust2" class="cluster">
<title>clusterspot (10)</title>
<path fill="none" stroke="black" d="M39,-240.91C39,-240.91 121,-240.91 121,-240.91 127,-240.91 133,-246.91 133,-252.91 133,-252.91 133,-442.84 133,-442.84 133,-448.84 127,-454.84 121,-454.84 121,-454.84 39,-454.84 39,-454.84 33,-454.84 27,-448.84 27,-442.84 27,-442.84 27,-252.91 27,-252.91 27,-246.91 33,-240.91 39,-240.91"/>
<text text-anchor="middle" x="100.5" y="-248.71" font-family="Times,serif" font-size="14.00">spot (10)</text>
</g>
<g id="clust6" class="cluster">
<title>cluster40 x 10</title>
<path fill="none" stroke="black" d="M177,-129.93C177,-129.93 370,-129.93 370,-129.93 376,-129.93 382,-135.93 382,-141.93 382,-141.93 382,-209.93 382,-209.93 382,-215.93 376,-221.93 370,-221.93 370,-221.93 177,-221.93 177,-221.93 171,-221.93 165,-215.93 165,-209.93 165,-209.93 165,-141.93 165,-141.93 165,-135.93 171,-129.93 177,-129.93"/>
<text text-anchor="middle" x="353" y="-137.73" font-family="Times,serif" font-size="14.00">40 x 10</text>
</g>
<g id="clust1" class="cluster">
<title>cluster5</title>
<path fill="none" stroke="black" d="M387,-473.79C387,-473.79 471,-473.79 471,-473.79 477,-473.79 483,-479.79 483,-485.79 483,-485.79 483,-664.74 483,-664.74 483,-670.74 477,-676.74 471,-676.74 471,-676.74 387,-676.74 387,-676.74 381,-676.74 375,-670.74 375,-664.74 375,-664.74 375,-485.79 375,-485.79 375,-479.79 381,-473.79 387,-473.79"/>
<text text-anchor="middle" x="471.5" y="-481.59" font-family="Times,serif" font-size="14.00">5</text>
</g>
<!-- r -->
<g id="node1" class="node">
<title>r</title>
<path fill="lightgrey" stroke="black" d="M361,-446.84C361,-446.84 295,-446.84 295,-446.84 289,-446.84 283,-440.84 283,-434.84 283,-434.84 283,-405.84 283,-405.84 283,-399.84 289,-393.84 295,-393.84 295,-393.84 361,-393.84 361,-393.84 367,-393.84 373,-399.84 373,-405.84 373,-405.84 373,-434.84 373,-434.84 373,-440.84 367,-446.84 361,-446.84"/>
<text text-anchor="middle" x="328" y="-431.64" font-family="Times,serif" font-size="14.00">r</text>
<text text-anchor="middle" x="328" y="-416.64" font-family="Times,serif" font-size="14.00">~</text>
<text text-anchor="middle" x="328" y="-401.64" font-family="Times,serif" font-size="14.00">ConstantData</text>
</g>
<!-- Φ -->
<g id="node10" class="node">
<title>Φ</title>
<ellipse fill="none" stroke="black" cx="328" cy="-309.38" rx="43.27" ry="37.45"/>
<text text-anchor="middle" x="328" y="-320.68" font-family="Times,serif" font-size="14.00">Φ</text>
<text text-anchor="middle" x="328" y="-305.68" font-family="Times,serif" font-size="14.00">~</text>
<text text-anchor="middle" x="328" y="-290.68" font-family="Times,serif" font-size="14.00">Gamma</text>
</g>
<!-- r&#45;&gt;Φ -->
<g id="edge10" class="edge">
<title>r&#45;&gt;Φ</title>
<path fill="none" stroke="black" d="M328,-393.79C328,-382.88 328,-369.79 328,-357.25"/>
<polygon fill="black" stroke="black" points="331.5,-356.91 328,-346.91 324.5,-356.91 331.5,-356.91"/>
</g>
<!-- p -->
<g id="node2" class="node">
<title>p</title>
<path fill="lightgrey" stroke="black" d="M507,-768.72C507,-768.72 441,-768.72 441,-768.72 435,-768.72 429,-762.72 429,-756.72 429,-756.72 429,-727.72 429,-727.72 429,-721.72 435,-715.72 441,-715.72 441,-715.72 507,-715.72 507,-715.72 513,-715.72 519,-721.72 519,-727.72 519,-727.72 519,-756.72 519,-756.72 519,-762.72 513,-768.72 507,-768.72"/>
<text text-anchor="middle" x="474" y="-753.52" font-family="Times,serif" font-size="14.00">p</text>
<text text-anchor="middle" x="474" y="-738.52" font-family="Times,serif" font-size="14.00">~</text>
<text text-anchor="middle" x="474" y="-723.52" font-family="Times,serif" font-size="14.00">ConstantData</text>
</g>
<!-- ℓ -->
<g id="node3" class="node">
<title>ℓ</title>
<path fill="lightgrey" stroke="black" d="M355,-668.74C355,-668.74 289,-668.74 289,-668.74 283,-668.74 277,-662.74 277,-656.74 277,-656.74 277,-627.74 277,-627.74 277,-621.74 283,-615.74 289,-615.74 289,-615.74 355,-615.74 355,-615.74 361,-615.74 367,-621.74 367,-627.74 367,-627.74 367,-656.74 367,-656.74 367,-662.74 361,-668.74 355,-668.74"/>
<text text-anchor="middle" x="322" y="-653.54" font-family="Times,serif" font-size="14.00">ℓ</text>
<text text-anchor="middle" x="322" y="-638.54" font-family="Times,serif" font-size="14.00">~</text>
<text text-anchor="middle" x="322" y="-623.54" font-family="Times,serif" font-size="14.00">ConstantData</text>
</g>
<!-- F_prime -->
<g id="node6" class="node">
<title>F_prime</title>
<polygon fill="none" stroke="black" points="474.5,-557.79 383.5,-557.79 383.5,-504.79 474.5,-504.79 474.5,-557.79"/>
<text text-anchor="middle" x="429" y="-542.59" font-family="Times,serif" font-size="14.00">F_prime</text>
<text text-anchor="middle" x="429" y="-527.59" font-family="Times,serif" font-size="14.00">~</text>
<text text-anchor="middle" x="429" y="-512.59" font-family="Times,serif" font-size="14.00">Deterministic</text>
</g>
<!-- ℓ&#45;&gt;F_prime -->
<g id="edge2" class="edge">
<title>ℓ&#45;&gt;F_prime</title>
<path fill="none" stroke="black" d="M347.09,-615.7C361.87,-600.64 380.73,-581.44 396.63,-565.25"/>
<polygon fill="black" stroke="black" points="399.19,-567.64 403.7,-558.05 394.2,-562.73 399.19,-567.64"/>
</g>
<!-- F0 -->
<g id="node4" class="node">
<title>F0</title>
<path fill="lightgrey" stroke="black" d="M121,-557.79C121,-557.79 55,-557.79 55,-557.79 49,-557.79 43,-551.79 43,-545.79 43,-545.79 43,-516.79 43,-516.79 43,-510.79 49,-504.79 55,-504.79 55,-504.79 121,-504.79 121,-504.79 127,-504.79 133,-510.79 133,-516.79 133,-516.79 133,-545.79 133,-545.79 133,-551.79 127,-557.79 121,-557.79"/>
<text text-anchor="middle" x="88" y="-542.59" font-family="Times,serif" font-size="14.00">F0</text>
<text text-anchor="middle" x="88" y="-527.59" font-family="Times,serif" font-size="14.00">~</text>
<text text-anchor="middle" x="88" y="-512.59" font-family="Times,serif" font-size="14.00">ConstantData</text>
</g>
<!-- G -->
<g id="node12" class="node">
<title>G</title>
<ellipse fill="none" stroke="black" cx="213" cy="-420.34" rx="43.27" ry="37.45"/>
<text text-anchor="middle" x="213" y="-431.64" font-family="Times,serif" font-size="14.00">G</text>
<text text-anchor="middle" x="213" y="-416.64" font-family="Times,serif" font-size="14.00">~</text>
<text text-anchor="middle" x="213" y="-401.64" font-family="Times,serif" font-size="14.00">Gamma</text>
</g>
<!-- F0&#45;&gt;G -->
<g id="edge5" class="edge">
<title>F0&#45;&gt;G</title>
<path fill="none" stroke="black" d="M107.96,-504.57C116.39,-494.45 126.65,-483.06 137,-473.79 146.99,-464.84 158.57,-456.14 169.64,-448.48"/>
<polygon fill="black" stroke="black" points="171.64,-451.34 177.96,-442.84 167.72,-445.55 171.64,-451.34"/>
</g>
<!-- ζ_s -->
<g id="node5" class="node">
<title>ζ_s</title>
<path fill="lightgrey" stroke="black" d="M399,-768.72C399,-768.72 333,-768.72 333,-768.72 327,-768.72 321,-762.72 321,-756.72 321,-756.72 321,-727.72 321,-727.72 321,-721.72 327,-715.72 333,-715.72 333,-715.72 399,-715.72 399,-715.72 405,-715.72 411,-721.72 411,-727.72 411,-727.72 411,-756.72 411,-756.72 411,-762.72 405,-768.72 399,-768.72"/>
<text text-anchor="middle" x="366" y="-753.52" font-family="Times,serif" font-size="14.00">ζ_s</text>
<text text-anchor="middle" x="366" y="-738.52" font-family="Times,serif" font-size="14.00">~</text>
<text text-anchor="middle" x="366" y="-723.52" font-family="Times,serif" font-size="14.00">ConstantData</text>
</g>
<!-- ζ_s&#45;&gt;Φ -->
<g id="edge11" class="edge">
<title>ζ_s&#45;&gt;Φ</title>
<path fill="none" stroke="black" d="M411.01,-719.78C414.05,-718.39 417.06,-717.03 420,-715.72 449.49,-702.6 469.11,-714.58 487,-687.72 539.7,-608.58 522.78,-561.88 487,-473.79 474.38,-442.72 408.8,-381.19 365.9,-343.13"/>
<polygon fill="black" stroke="black" points="367.99,-340.3 358.17,-336.31 363.36,-345.55 367.99,-340.3"/>
</g>
<!-- Π -->
<g id="node15" class="node">
<title>Π</title>
<ellipse fill="none" stroke="black" cx="221" cy="-642.24" rx="28.98" ry="37.45"/>
<text text-anchor="middle" x="221" y="-653.54" font-family="Times,serif" font-size="14.00">Π</text>
<text text-anchor="middle" x="221" y="-638.54" font-family="Times,serif" font-size="14.00">~</text>
<text text-anchor="middle" x="221" y="-623.54" font-family="Times,serif" font-size="14.00">Beta</text>
</g>
<!-- ζ_s&#45;&gt;Π -->
<g id="edge3" class="edge">
<title>ζ_s&#45;&gt;Π</title>
<path fill="none" stroke="black" d="M320.62,-719.57C303.53,-710.63 284.3,-699.58 268,-687.72 262.26,-683.55 256.49,-678.73 251.06,-673.83"/>
<polygon fill="black" stroke="black" points="253.08,-670.93 243.38,-666.67 248.31,-676.05 253.08,-670.93"/>
</g>
<!-- F_prime&#45;&gt;G -->
<g id="edge6" class="edge">
<title>F_prime&#45;&gt;G</title>
<path fill="none" stroke="black" d="M383.3,-510.39C352.11,-496.46 310.08,-476.97 274,-457.81 268.35,-454.81 262.49,-451.53 256.73,-448.21"/>
<polygon fill="black" stroke="black" points="258.21,-445.02 247.81,-442.98 254.67,-451.06 258.21,-445.02"/>
</g>
<!-- F -->
<g id="node7" class="node">
<title>F</title>
<path fill="lightgrey" stroke="black" d="M463,-668.74C463,-668.74 397,-668.74 397,-668.74 391,-668.74 385,-662.74 385,-656.74 385,-656.74 385,-627.74 385,-627.74 385,-621.74 391,-615.74 397,-615.74 397,-615.74 463,-615.74 463,-615.74 469,-615.74 475,-621.74 475,-627.74 475,-627.74 475,-656.74 475,-656.74 475,-662.74 469,-668.74 463,-668.74"/>
<text text-anchor="middle" x="430" y="-653.54" font-family="Times,serif" font-size="14.00">F</text>
<text text-anchor="middle" x="430" y="-638.54" font-family="Times,serif" font-size="14.00">~</text>
<text text-anchor="middle" x="430" y="-623.54" font-family="Times,serif" font-size="14.00">ConstantData</text>
</g>
<!-- F&#45;&gt;F_prime -->
<g id="edge1" class="edge">
<title>F&#45;&gt;F_prime</title>
<path fill="none" stroke="black" d="M429.77,-615.7C429.64,-601.59 429.47,-583.84 429.33,-568.35"/>
<polygon fill="black" stroke="black" points="432.83,-568.02 429.24,-558.05 425.83,-568.08 432.83,-568.02"/>
</g>
<!-- N -->
<g id="node8" class="node">
<title>N</title>
<ellipse fill="none" stroke="black" cx="81" cy="-309.38" rx="41.94" ry="37.45"/>
<text text-anchor="middle" x="81" y="-320.68" font-family="Times,serif" font-size="14.00">N</text>
<text text-anchor="middle" x="81" y="-305.68" font-family="Times,serif" font-size="14.00">~</text>
<text text-anchor="middle" x="81" y="-290.68" font-family="Times,serif" font-size="14.00">Poisson</text>
</g>
<!-- D -->
<g id="node17" class="node">
<title>D</title>
<ellipse fill="lightgrey" stroke="black" cx="101" cy="-187.43" rx="41.94" ry="37.45"/>
<text text-anchor="middle" x="101" y="-198.73" font-family="Times,serif" font-size="14.00">D</text>
<text text-anchor="middle" x="101" y="-183.73" font-family="Times,serif" font-size="14.00">~</text>
<text text-anchor="middle" x="101" y="-168.73" font-family="Times,serif" font-size="14.00">Poisson</text>
</g>
<!-- N&#45;&gt;D -->
<g id="edge13" class="edge">
<title>N&#45;&gt;D</title>
<path fill="none" stroke="black" d="M87.05,-272.07C89.01,-260.32 91.21,-247.14 93.27,-234.77"/>
<polygon fill="black" stroke="black" points="96.77,-235.06 94.97,-224.62 89.87,-233.91 96.77,-235.06"/>
</g>
<!-- Λ -->
<g id="node9" class="node">
<title>Λ</title>
<path fill="lightgrey" stroke="black" d="M113,-446.84C113,-446.84 47,-446.84 47,-446.84 41,-446.84 35,-440.84 35,-434.84 35,-434.84 35,-405.84 35,-405.84 35,-399.84 41,-393.84 47,-393.84 47,-393.84 113,-393.84 113,-393.84 119,-393.84 125,-399.84 125,-405.84 125,-405.84 125,-434.84 125,-434.84 125,-440.84 119,-446.84 113,-446.84"/>
<text text-anchor="middle" x="80" y="-431.64" font-family="Times,serif" font-size="14.00">Λ</text>
<text text-anchor="middle" x="80" y="-416.64" font-family="Times,serif" font-size="14.00">~</text>
<text text-anchor="middle" x="80" y="-401.64" font-family="Times,serif" font-size="14.00">ConstantData</text>
</g>
<!-- Λ&#45;&gt;N -->
<g id="edge9" class="edge">
<title>Λ&#45;&gt;N</title>
<path fill="none" stroke="black" d="M80.23,-393.79C80.33,-382.88 80.45,-369.79 80.57,-357.25"/>
<polygon fill="black" stroke="black" points="84.07,-356.94 80.66,-346.91 77.07,-356.88 84.07,-356.94"/>
</g>
<!-- A_denom -->
<g id="node18" class="node">
<title>A_denom</title>
<polygon fill="none" stroke="black" points="264.5,-213.93 173.5,-213.93 173.5,-160.93 264.5,-160.93 264.5,-213.93"/>
<text text-anchor="middle" x="219" y="-198.73" font-family="Times,serif" font-size="14.00">A_denom</text>
<text text-anchor="middle" x="219" y="-183.73" font-family="Times,serif" font-size="14.00">~</text>
<text text-anchor="middle" x="219" y="-168.73" font-family="Times,serif" font-size="14.00">Deterministic</text>
</g>
<!-- Φ&#45;&gt;A_denom -->
<g id="edge18" class="edge">
<title>Φ&#45;&gt;A_denom</title>
<path fill="none" stroke="black" d="M304.36,-277.86C294.9,-266.06 283.72,-252.61 273,-240.91 267.03,-234.4 260.45,-227.67 254,-221.29"/>
<polygon fill="black" stroke="black" points="256.13,-218.47 246.53,-213.99 251.24,-223.48 256.13,-218.47"/>
</g>
<!-- A_num -->
<g id="node19" class="node">
<title>A_num</title>
<polygon fill="none" stroke="black" points="373.5,-213.93 282.5,-213.93 282.5,-160.93 373.5,-160.93 373.5,-213.93"/>
<text text-anchor="middle" x="328" y="-198.73" font-family="Times,serif" font-size="14.00">A_num</text>
<text text-anchor="middle" x="328" y="-183.73" font-family="Times,serif" font-size="14.00">~</text>
<text text-anchor="middle" x="328" y="-168.73" font-family="Times,serif" font-size="14.00">Deterministic</text>
</g>
<!-- Φ&#45;&gt;A_num -->
<g id="edge15" class="edge">
<title>Φ&#45;&gt;A_num</title>
<path fill="none" stroke="black" d="M328,-271.74C328,-256.77 328,-239.51 328,-224.59"/>
<polygon fill="black" stroke="black" points="331.5,-224.2 328,-214.2 324.5,-224.2 331.5,-224.2"/>
</g>
<!-- C -->
<g id="node11" class="node">
<title>C</title>
<path fill="lightgrey" stroke="black" d="M467,-335.88C467,-335.88 401,-335.88 401,-335.88 395,-335.88 389,-329.88 389,-323.88 389,-323.88 389,-294.88 389,-294.88 389,-288.88 395,-282.88 401,-282.88 401,-282.88 467,-282.88 467,-282.88 473,-282.88 479,-288.88 479,-294.88 479,-294.88 479,-323.88 479,-323.88 479,-329.88 473,-335.88 467,-335.88"/>
<text text-anchor="middle" x="434" y="-320.68" font-family="Times,serif" font-size="14.00">C</text>
<text text-anchor="middle" x="434" y="-305.68" font-family="Times,serif" font-size="14.00">~</text>
<text text-anchor="middle" x="434" y="-290.68" font-family="Times,serif" font-size="14.00">ConstantData</text>
</g>
<!-- C&#45;&gt;A_num -->
<g id="edge16" class="edge">
<title>C&#45;&gt;A_num</title>
<path fill="none" stroke="black" d="M414.61,-282.87C404.59,-270.02 391.98,-254.35 380,-240.91 374.24,-234.44 367.89,-227.73 361.68,-221.35"/>
<polygon fill="black" stroke="black" points="364,-218.72 354.48,-214.06 359.01,-223.64 364,-218.72"/>
</g>
<!-- H -->
<g id="node13" class="node">
<title>H</title>
<polygon fill="none" stroke="black" points="259.5,-335.88 168.5,-335.88 168.5,-282.88 259.5,-282.88 259.5,-335.88"/>
<text text-anchor="middle" x="214" y="-320.68" font-family="Times,serif" font-size="14.00">H</text>
<text text-anchor="middle" x="214" y="-305.68" font-family="Times,serif" font-size="14.00">~</text>
<text text-anchor="middle" x="214" y="-290.68" font-family="Times,serif" font-size="14.00">Deterministic</text>
</g>
<!-- G&#45;&gt;H -->
<g id="edge8" class="edge">
<title>G&#45;&gt;H</title>
<path fill="none" stroke="black" d="M213.34,-382.75C213.44,-371.02 213.56,-358.03 213.67,-346.34"/>
<polygon fill="black" stroke="black" points="217.17,-346.07 213.76,-336.04 210.17,-346 217.17,-346.07"/>
</g>
<!-- H&#45;&gt;D -->
<g id="edge12" class="edge">
<title>H&#45;&gt;D</title>
<path fill="none" stroke="black" d="M189.76,-282.65C173.76,-265.66 152.56,-243.17 134.9,-224.42"/>
<polygon fill="black" stroke="black" points="136.98,-221.51 127.57,-216.64 131.88,-226.31 136.98,-221.51"/>
</g>
<!-- H&#45;&gt;A_denom -->
<g id="edge17" class="edge">
<title>H&#45;&gt;A_denom</title>
<path fill="none" stroke="black" d="M215.07,-282.65C215.78,-265.57 216.73,-242.93 217.51,-224.12"/>
<polygon fill="black" stroke="black" points="221.01,-224.26 217.93,-214.12 214.02,-223.97 221.01,-224.26"/>
</g>
<!-- H&#45;&gt;A_num -->
<g id="edge14" class="edge">
<title>H&#45;&gt;A_num</title>
<path fill="none" stroke="black" d="M235.6,-282.58C246.54,-269.8 260.19,-254.28 273,-240.91 279.17,-234.47 285.91,-227.77 292.49,-221.4"/>
<polygon fill="black" stroke="black" points="295.31,-223.56 300.11,-214.11 290.46,-218.5 295.31,-223.56"/>
</g>
<!-- Z -->
<g id="node14" class="node">
<title>Z</title>
<ellipse fill="none" stroke="black" cx="213" cy="-531.29" rx="48.17" ry="37.45"/>
<text text-anchor="middle" x="213" y="-542.59" font-family="Times,serif" font-size="14.00">Z</text>
<text text-anchor="middle" x="213" y="-527.59" font-family="Times,serif" font-size="14.00">~</text>
<text text-anchor="middle" x="213" y="-512.59" font-family="Times,serif" font-size="14.00">Bernoulli</text>
</g>
<!-- Z&#45;&gt;G -->
<g id="edge7" class="edge">
<title>Z&#45;&gt;G</title>
<path fill="none" stroke="black" d="M213,-493.71C213,-485.53 213,-476.75 213,-468.23"/>
<polygon fill="black" stroke="black" points="216.5,-468.01 213,-458.01 209.5,-468.01 216.5,-468.01"/>
</g>
<!-- Π&#45;&gt;Z -->
<g id="edge4" class="edge">
<title>Π&#45;&gt;Z</title>
<path fill="none" stroke="black" d="M218.31,-604.66C217.71,-596.49 217.07,-587.71 216.44,-579.18"/>
<polygon fill="black" stroke="black" points="219.92,-578.68 215.69,-568.96 212.93,-579.19 219.92,-578.68"/>
</g>
<!-- A -->
<g id="node16" class="node">
<title>A</title>
<ellipse fill="lightgrey" stroke="black" cx="101" cy="-76.48" rx="48.17" ry="37.45"/>
<text text-anchor="middle" x="101" y="-87.78" font-family="Times,serif" font-size="14.00">A</text>
<text text-anchor="middle" x="101" y="-72.78" font-family="Times,serif" font-size="14.00">~</text>
<text text-anchor="middle" x="101" y="-57.78" font-family="Times,serif" font-size="14.00">Binomial</text>
</g>
<!-- D&#45;&gt;A -->
<g id="edge21" class="edge">
<title>D&#45;&gt;A</title>
<path fill="none" stroke="black" d="M101,-149.85C101,-141.67 101,-132.89 101,-124.37"/>
<polygon fill="black" stroke="black" points="104.5,-124.15 101,-114.15 97.5,-124.15 104.5,-124.15"/>
</g>
<!-- A_denom&#45;&gt;A -->
<g id="edge19" class="edge">
<title>A_denom&#45;&gt;A</title>
<path fill="none" stroke="black" d="M193.3,-160.81C183.33,-151.03 171.74,-139.85 161,-129.93 154.5,-123.93 147.5,-117.65 140.65,-111.61"/>
<polygon fill="black" stroke="black" points="142.56,-108.62 132.73,-104.66 137.94,-113.88 142.56,-108.62"/>
</g>
<!-- A_num&#45;&gt;A -->
<g id="edge20" class="edge">
<title>A_num&#45;&gt;A</title>
<path fill="none" stroke="black" d="M308.05,-160.77C298.47,-149.93 286.21,-137.98 273,-129.93 237.7,-108.41 192.89,-95.12 157.86,-87.3"/>
<polygon fill="black" stroke="black" points="158.31,-83.82 147.79,-85.14 156.84,-90.66 158.31,-83.82"/>
</g>
</g>
</svg>
