<?xml version="1.0" encoding="UTF-8" standalone="no"?>
<!DOCTYPE svg PUBLIC "-//W3C//DTD SVG 1.1//EN"
 "http://www.w3.org/Graphics/SVG/1.1/DTD/svg11.dtd">
<!-- Generated by graphviz version 6.0.1 (0)
 -->
<!-- Pages: 1 -->
<svg width="524pt" height="777pt"
 viewBox="0.00 0.00 524.00 776.72" xmlns="http://www.w3.org/2000/svg" xmlns:xlink="http://www.w3.org/1999/xlink">
<g id="graph0" class="graph" transform="scale(1 1) rotate(0) translate(4 772.72)">
<polygon fill="white" stroke="none" points="-4,4 -4,-772.72 520,-772.72 520,4 -4,4"/>
<g id="clust3" class="cluster">
<title>clusterposition (40) x clone (5)</title>
<path fill="none" stroke="black" d="M270,-240.91C270,-240.91 456,-240.91 456,-240.91 462,-240.91 468,-246.91 468,-252.91 468,-252.91 468,-342.86 468,-342.86 468,-348.86 462,-354.86 456,-354.86 456,-354.86 270,-354.86 270,-354.86 264,-354.86 258,-348.86 258,-342.86 258,-342.86 258,-252.91 258,-252.91 258,-246.91 264,-240.91 270,-240.91"/>
<text text-anchor="middle" x="393.5" y="-248.71" font-family="Times,serif" font-size="14.00">position (40) x clone (5)</text>
</g>
<g id="clust4" class="cluster">
<title>clusterspot (10) x clone (5)</title>
<path fill="none" stroke="black" d="M20,-251.88C20,-251.88 124,-251.88 124,-251.88 130,-251.88 136,-257.88 136,-263.88 136,-263.88 136,-675.72 136,-675.72 136,-681.72 130,-687.72 124,-687.72 124,-687.72 20,-687.72 20,-687.72 14,-687.72 8,-681.72 8,-675.72 8,-675.72 8,-263.88 8,-263.88 8,-257.88 14,-251.88 20,-251.88"/>
<text text-anchor="middle" x="72" y="-259.68" font-family="Times,serif" font-size="14.00">spot (10) x clone (5)</text>
</g>
<g id="clust5" class="cluster">
<title>clusterposition (40) x spot (10)</title>
<path fill="none" stroke="black" d="M43,-8C43,-8 337,-8 337,-8 343,-8 349,-14 349,-20 349,-20 349,-220.91 349,-220.91 349,-226.91 343,-232.91 337,-232.91 337,-232.91 43,-232.91 43,-232.91 37,-232.91 31,-226.91 31,-220.91 31,-220.91 31,-20 31,-20 31,-14 37,-8 43,-8"/>
<text text-anchor="middle" x="274.5" y="-15.8" font-family="Times,serif" font-size="14.00">position (40) x spot (10)</text>
</g>
<g id="clust1" class="cluster">
<title>clusterclone (5)</title>
<path fill="none" stroke="black" d="M256,-473.79C256,-473.79 340,-473.79 340,-473.79 346,-473.79 352,-479.79 352,-485.79 352,-485.79 352,-664.74 352,-664.74 352,-670.74 346,-676.74 340,-676.74 340,-676.74 256,-676.74 256,-676.74 250,-676.74 244,-670.74 244,-664.74 244,-664.74 244,-485.79 244,-485.79 244,-479.79 250,-473.79 256,-473.79"/>
<text text-anchor="middle" x="319.5" y="-481.59" font-family="Times,serif" font-size="14.00">clone (5)</text>
</g>
<g id="clust2" class="cluster">
<title>clusterspot (10)</title>
<path fill="none" stroke="black" d="M156,-240.91C156,-240.91 238,-240.91 238,-240.91 244,-240.91 250,-246.91 250,-252.91 250,-252.91 250,-442.84 250,-442.84 250,-448.84 244,-454.84 238,-454.84 238,-454.84 156,-454.84 156,-454.84 150,-454.84 144,-448.84 144,-442.84 144,-442.84 144,-252.91 144,-252.91 144,-246.91 150,-240.91 156,-240.91"/>
<text text-anchor="middle" x="217.5" y="-248.71" font-family="Times,serif" font-size="14.00">spot (10)</text>
</g>
<!-- ζ_s -->
<g id="node1" class="node">
<title>ζ_s</title>
<path fill="lightgrey" stroke="black" d="M111,-768.72C111,-768.72 45,-768.72 45,-768.72 39,-768.72 33,-762.72 33,-756.72 33,-756.72 33,-727.72 33,-727.72 33,-721.72 39,-715.72 45,-715.72 45,-715.72 111,-715.72 111,-715.72 117,-715.72 123,-721.72 123,-727.72 123,-727.72 123,-756.72 123,-756.72 123,-762.72 117,-768.72 111,-768.72"/>
<text text-anchor="middle" x="78" y="-753.52" font-family="Times,serif" font-size="14.00">ζ_s</text>
<text text-anchor="middle" x="78" y="-738.52" font-family="Times,serif" font-size="14.00">~</text>
<text text-anchor="middle" x="78" y="-723.52" font-family="Times,serif" font-size="14.00">ConstantData</text>
</g>
<!-- Π -->
<g id="node12" class="node">
<title>Π</title>
<ellipse fill="none" stroke="black" cx="78" cy="-642.24" rx="28.98" ry="37.45"/>
<text text-anchor="middle" x="78" y="-653.54" font-family="Times,serif" font-size="14.00">Π</text>
<text text-anchor="middle" x="78" y="-638.54" font-family="Times,serif" font-size="14.00">~</text>
<text text-anchor="middle" x="78" y="-623.54" font-family="Times,serif" font-size="14.00">Beta</text>
</g>
<!-- ζ_s&#45;&gt;Π -->
<g id="edge3" class="edge">
<title>ζ_s&#45;&gt;Π</title>
<path fill="none" stroke="black" d="M78,-715.48C78,-707.65 78,-698.8 78,-690.04"/>
<polygon fill="black" stroke="black" points="81.5,-689.87 78,-679.87 74.5,-689.87 81.5,-689.87"/>
</g>
<!-- F0 -->
<g id="node2" class="node">
<title>F0</title>
<path fill="lightgrey" stroke="black" d="M222,-557.79C222,-557.79 156,-557.79 156,-557.79 150,-557.79 144,-551.79 144,-545.79 144,-545.79 144,-516.79 144,-516.79 144,-510.79 150,-504.79 156,-504.79 156,-504.79 222,-504.79 222,-504.79 228,-504.79 234,-510.79 234,-516.79 234,-516.79 234,-545.79 234,-545.79 234,-551.79 228,-557.79 222,-557.79"/>
<text text-anchor="middle" x="189" y="-542.59" font-family="Times,serif" font-size="14.00">F0</text>
<text text-anchor="middle" x="189" y="-527.59" font-family="Times,serif" font-size="14.00">~</text>
<text text-anchor="middle" x="189" y="-512.59" font-family="Times,serif" font-size="14.00">ConstantData</text>
</g>
<!-- G -->
<g id="node14" class="node">
<title>G</title>
<ellipse fill="none" stroke="black" cx="83" cy="-420.34" rx="43.27" ry="37.45"/>
<text text-anchor="middle" x="83" y="-431.64" font-family="Times,serif" font-size="14.00">G</text>
<text text-anchor="middle" x="83" y="-416.64" font-family="Times,serif" font-size="14.00">~</text>
<text text-anchor="middle" x="83" y="-401.64" font-family="Times,serif" font-size="14.00">Gamma</text>
</g>
<!-- F0&#45;&gt;G -->
<g id="edge5" class="edge">
<title>F0&#45;&gt;G</title>
<path fill="none" stroke="black" d="M167.88,-504.72C159.45,-494.83 149.5,-483.57 140,-473.79 133.87,-467.48 127.16,-460.97 120.55,-454.77"/>
<polygon fill="black" stroke="black" points="122.6,-451.9 112.89,-447.68 117.85,-457.04 122.6,-451.9"/>
</g>
<!-- ℓ -->
<g id="node3" class="node">
<title>ℓ</title>
<path fill="lightgrey" stroke="black" d="M438,-668.74C438,-668.74 372,-668.74 372,-668.74 366,-668.74 360,-662.74 360,-656.74 360,-656.74 360,-627.74 360,-627.74 360,-621.74 366,-615.74 372,-615.74 372,-615.74 438,-615.74 438,-615.74 444,-615.74 450,-621.74 450,-627.74 450,-627.74 450,-656.74 450,-656.74 450,-662.74 444,-668.74 438,-668.74"/>
<text text-anchor="middle" x="405" y="-653.54" font-family="Times,serif" font-size="14.00">ℓ</text>
<text text-anchor="middle" x="405" y="-638.54" font-family="Times,serif" font-size="14.00">~</text>
<text text-anchor="middle" x="405" y="-623.54" font-family="Times,serif" font-size="14.00">ConstantData</text>
</g>
<!-- F_prime -->
<g id="node6" class="node">
<title>F_prime</title>
<polygon fill="none" stroke="black" points="343.5,-557.79 252.5,-557.79 252.5,-504.79 343.5,-504.79 343.5,-557.79"/>
<text text-anchor="middle" x="298" y="-542.59" font-family="Times,serif" font-size="14.00">F_prime</text>
<text text-anchor="middle" x="298" y="-527.59" font-family="Times,serif" font-size="14.00">~</text>
<text text-anchor="middle" x="298" y="-512.59" font-family="Times,serif" font-size="14.00">Deterministic</text>
</g>
<!-- ℓ&#45;&gt;F_prime -->
<g id="edge1" class="edge">
<title>ℓ&#45;&gt;F_prime</title>
<path fill="none" stroke="black" d="M379.91,-615.7C365.13,-600.64 346.27,-581.44 330.37,-565.25"/>
<polygon fill="black" stroke="black" points="332.8,-562.73 323.3,-558.05 327.81,-567.64 332.8,-562.73"/>
</g>
<!-- r -->
<g id="node4" class="node">
<title>r</title>
<path fill="lightgrey" stroke="black" d="M396,-446.84C396,-446.84 330,-446.84 330,-446.84 324,-446.84 318,-440.84 318,-434.84 318,-434.84 318,-405.84 318,-405.84 318,-399.84 324,-393.84 330,-393.84 330,-393.84 396,-393.84 396,-393.84 402,-393.84 408,-399.84 408,-405.84 408,-405.84 408,-434.84 408,-434.84 408,-440.84 402,-446.84 396,-446.84"/>
<text text-anchor="middle" x="363" y="-431.64" font-family="Times,serif" font-size="14.00">r</text>
<text text-anchor="middle" x="363" y="-416.64" font-family="Times,serif" font-size="14.00">~</text>
<text text-anchor="middle" x="363" y="-401.64" font-family="Times,serif" font-size="14.00">ConstantData</text>
</g>
<!-- Φ -->
<g id="node10" class="node">
<title>Φ</title>
<ellipse fill="none" stroke="black" cx="417" cy="-309.38" rx="43.27" ry="37.45"/>
<text text-anchor="middle" x="417" y="-320.68" font-family="Times,serif" font-size="14.00">Φ</text>
<text text-anchor="middle" x="417" y="-305.68" font-family="Times,serif" font-size="14.00">~</text>
<text text-anchor="middle" x="417" y="-290.68" font-family="Times,serif" font-size="14.00">Gamma</text>
</g>
<!-- r&#45;&gt;Φ -->
<g id="edge11" class="edge">
<title>r&#45;&gt;Φ</title>
<path fill="none" stroke="black" d="M375.66,-393.79C381.64,-381.73 388.94,-367.01 395.73,-353.3"/>
<polygon fill="black" stroke="black" points="399.02,-354.54 400.33,-344.02 392.75,-351.43 399.02,-354.54"/>
</g>
<!-- p -->
<g id="node5" class="node">
<title>p</title>
<path fill="lightgrey" stroke="black" d="M504,-446.84C504,-446.84 438,-446.84 438,-446.84 432,-446.84 426,-440.84 426,-434.84 426,-434.84 426,-405.84 426,-405.84 426,-399.84 432,-393.84 438,-393.84 438,-393.84 504,-393.84 504,-393.84 510,-393.84 516,-399.84 516,-405.84 516,-405.84 516,-434.84 516,-434.84 516,-440.84 510,-446.84 504,-446.84"/>
<text text-anchor="middle" x="471" y="-431.64" font-family="Times,serif" font-size="14.00">p</text>
<text text-anchor="middle" x="471" y="-416.64" font-family="Times,serif" font-size="14.00">~</text>
<text text-anchor="middle" x="471" y="-401.64" font-family="Times,serif" font-size="14.00">ConstantData</text>
</g>
<!-- p&#45;&gt;Φ -->
<g id="edge10" class="edge">
<title>p&#45;&gt;Φ</title>
<path fill="none" stroke="black" d="M458.34,-393.79C452.36,-381.73 445.06,-367.01 438.27,-353.3"/>
<polygon fill="black" stroke="black" points="441.25,-351.43 433.67,-344.02 434.98,-354.54 441.25,-351.43"/>
</g>
<!-- F_prime&#45;&gt;G -->
<g id="edge6" class="edge">
<title>F_prime&#45;&gt;G</title>
<path fill="none" stroke="black" d="M279.31,-504.61C269.73,-493.35 257.11,-481.07 243,-473.79 201.83,-452.55 183.33,-474.2 140,-457.81 134.78,-455.84 129.54,-453.34 124.45,-450.58"/>
<polygon fill="black" stroke="black" points="125.93,-447.39 115.53,-445.39 122.41,-453.44 125.93,-447.39"/>
</g>
<!-- F -->
<g id="node7" class="node">
<title>F</title>
<path fill="lightgrey" stroke="black" d="M330,-668.74C330,-668.74 264,-668.74 264,-668.74 258,-668.74 252,-662.74 252,-656.74 252,-656.74 252,-627.74 252,-627.74 252,-621.74 258,-615.74 264,-615.74 264,-615.74 330,-615.74 330,-615.74 336,-615.74 342,-621.74 342,-627.74 342,-627.74 342,-656.74 342,-656.74 342,-662.74 336,-668.74 330,-668.74"/>
<text text-anchor="middle" x="297" y="-653.54" font-family="Times,serif" font-size="14.00">F</text>
<text text-anchor="middle" x="297" y="-638.54" font-family="Times,serif" font-size="14.00">~</text>
<text text-anchor="middle" x="297" y="-623.54" font-family="Times,serif" font-size="14.00">ConstantData</text>
</g>
<!-- F&#45;&gt;F_prime -->
<g id="edge2" class="edge">
<title>F&#45;&gt;F_prime</title>
<path fill="none" stroke="black" d="M297.23,-615.7C297.36,-601.59 297.53,-583.84 297.67,-568.35"/>
<polygon fill="black" stroke="black" points="301.17,-568.08 297.76,-558.05 294.17,-568.02 301.17,-568.08"/>
</g>
<!-- N -->
<g id="node8" class="node">
<title>N</title>
<ellipse fill="none" stroke="black" cx="195" cy="-309.38" rx="41.94" ry="37.45"/>
<text text-anchor="middle" x="195" y="-320.68" font-family="Times,serif" font-size="14.00">N</text>
<text text-anchor="middle" x="195" y="-305.68" font-family="Times,serif" font-size="14.00">~</text>
<text text-anchor="middle" x="195" y="-290.68" font-family="Times,serif" font-size="14.00">Poisson</text>
</g>
<!-- D -->
<g id="node17" class="node">
<title>D</title>
<ellipse fill="lightgrey" stroke="black" cx="190" cy="-187.43" rx="41.94" ry="37.45"/>
<text text-anchor="middle" x="190" y="-198.73" font-family="Times,serif" font-size="14.00">D</text>
<text text-anchor="middle" x="190" y="-183.73" font-family="Times,serif" font-size="14.00">~</text>
<text text-anchor="middle" x="190" y="-168.73" font-family="Times,serif" font-size="14.00">Poisson</text>
</g>
<!-- N&#45;&gt;D -->
<g id="edge13" class="edge">
<title>N&#45;&gt;D</title>
<path fill="none" stroke="black" d="M193.47,-271.74C193,-260.34 192.47,-247.6 191.97,-235.58"/>
<polygon fill="black" stroke="black" points="195.45,-235.11 191.54,-225.26 188.45,-235.4 195.45,-235.11"/>
</g>
<!-- Λ -->
<g id="node9" class="node">
<title>Λ</title>
<path fill="lightgrey" stroke="black" d="M230,-446.84C230,-446.84 164,-446.84 164,-446.84 158,-446.84 152,-440.84 152,-434.84 152,-434.84 152,-405.84 152,-405.84 152,-399.84 158,-393.84 164,-393.84 164,-393.84 230,-393.84 230,-393.84 236,-393.84 242,-399.84 242,-405.84 242,-405.84 242,-434.84 242,-434.84 242,-440.84 236,-446.84 230,-446.84"/>
<text text-anchor="middle" x="197" y="-431.64" font-family="Times,serif" font-size="14.00">Λ</text>
<text text-anchor="middle" x="197" y="-416.64" font-family="Times,serif" font-size="14.00">~</text>
<text text-anchor="middle" x="197" y="-401.64" font-family="Times,serif" font-size="14.00">ConstantData</text>
</g>
<!-- Λ&#45;&gt;N -->
<g id="edge9" class="edge">
<title>Λ&#45;&gt;N</title>
<path fill="none" stroke="black" d="M196.53,-393.79C196.33,-382.88 196.09,-369.79 195.86,-357.25"/>
<polygon fill="black" stroke="black" points="199.35,-356.84 195.67,-346.91 192.35,-356.97 199.35,-356.84"/>
</g>
<!-- A_num -->
<g id="node19" class="node">
<title>A_num</title>
<polygon fill="none" stroke="black" points="340.5,-213.93 249.5,-213.93 249.5,-160.93 340.5,-160.93 340.5,-213.93"/>
<text text-anchor="middle" x="295" y="-198.73" font-family="Times,serif" font-size="14.00">A_num</text>
<text text-anchor="middle" x="295" y="-183.73" font-family="Times,serif" font-size="14.00">~</text>
<text text-anchor="middle" x="295" y="-168.73" font-family="Times,serif" font-size="14.00">Deterministic</text>
</g>
<!-- Φ&#45;&gt;A_num -->
<g id="edge15" class="edge">
<title>Φ&#45;&gt;A_num</title>
<path fill="none" stroke="black" d="M395.35,-276.69C386.58,-264.87 375.95,-251.71 365,-240.91 357.78,-233.79 349.57,-226.81 341.37,-220.39"/>
<polygon fill="black" stroke="black" points="343.29,-217.45 333.22,-214.17 339.05,-223.02 343.29,-217.45"/>
</g>
<!-- C -->
<g id="node11" class="node">
<title>C</title>
<path fill="lightgrey" stroke="black" d="M344,-335.88C344,-335.88 278,-335.88 278,-335.88 272,-335.88 266,-329.88 266,-323.88 266,-323.88 266,-294.88 266,-294.88 266,-288.88 272,-282.88 278,-282.88 278,-282.88 344,-282.88 344,-282.88 350,-282.88 356,-288.88 356,-294.88 356,-294.88 356,-323.88 356,-323.88 356,-329.88 350,-335.88 344,-335.88"/>
<text text-anchor="middle" x="311" y="-320.68" font-family="Times,serif" font-size="14.00">C</text>
<text text-anchor="middle" x="311" y="-305.68" font-family="Times,serif" font-size="14.00">~</text>
<text text-anchor="middle" x="311" y="-290.68" font-family="Times,serif" font-size="14.00">ConstantData</text>
</g>
<!-- C&#45;&gt;A_num -->
<g id="edge16" class="edge">
<title>C&#45;&gt;A_num</title>
<path fill="none" stroke="black" d="M307.57,-282.65C305.29,-265.57 302.27,-242.93 299.76,-224.12"/>
<polygon fill="black" stroke="black" points="303.22,-223.57 298.43,-214.12 296.28,-224.5 303.22,-223.57"/>
</g>
<!-- Z -->
<g id="node15" class="node">
<title>Z</title>
<ellipse fill="none" stroke="black" cx="78" cy="-531.29" rx="48.17" ry="37.45"/>
<text text-anchor="middle" x="78" y="-542.59" font-family="Times,serif" font-size="14.00">Z</text>
<text text-anchor="middle" x="78" y="-527.59" font-family="Times,serif" font-size="14.00">~</text>
<text text-anchor="middle" x="78" y="-512.59" font-family="Times,serif" font-size="14.00">Bernoulli</text>
</g>
<!-- Π&#45;&gt;Z -->
<g id="edge4" class="edge">
<title>Π&#45;&gt;Z</title>
<path fill="none" stroke="black" d="M78,-604.66C78,-596.49 78,-587.71 78,-579.18"/>
<polygon fill="black" stroke="black" points="81.5,-578.96 78,-568.96 74.5,-578.96 81.5,-578.96"/>
</g>
<!-- H -->
<g id="node13" class="node">
<title>H</title>
<polygon fill="none" stroke="black" points="127.5,-335.88 36.5,-335.88 36.5,-282.88 127.5,-282.88 127.5,-335.88"/>
<text text-anchor="middle" x="82" y="-320.68" font-family="Times,serif" font-size="14.00">H</text>
<text text-anchor="middle" x="82" y="-305.68" font-family="Times,serif" font-size="14.00">~</text>
<text text-anchor="middle" x="82" y="-290.68" font-family="Times,serif" font-size="14.00">Deterministic</text>
</g>
<!-- A_denom -->
<g id="node16" class="node">
<title>A_denom</title>
<polygon fill="none" stroke="black" points="130.5,-213.93 39.5,-213.93 39.5,-160.93 130.5,-160.93 130.5,-213.93"/>
<text text-anchor="middle" x="85" y="-198.73" font-family="Times,serif" font-size="14.00">A_denom</text>
<text text-anchor="middle" x="85" y="-183.73" font-family="Times,serif" font-size="14.00">~</text>
<text text-anchor="middle" x="85" y="-168.73" font-family="Times,serif" font-size="14.00">Deterministic</text>
</g>
<!-- H&#45;&gt;A_denom -->
<g id="edge17" class="edge">
<title>H&#45;&gt;A_denom</title>
<path fill="none" stroke="black" d="M82.64,-282.65C83.07,-265.65 83.63,-243.14 84.1,-224.38"/>
<polygon fill="black" stroke="black" points="87.61,-224.2 84.36,-214.12 80.61,-224.03 87.61,-224.2"/>
</g>
<!-- H&#45;&gt;D -->
<g id="edge12" class="edge">
<title>H&#45;&gt;D</title>
<path fill="none" stroke="black" d="M103.46,-282.8C114.26,-270.07 127.66,-254.54 140,-240.91 145.05,-235.33 150.47,-229.49 155.81,-223.82"/>
<polygon fill="black" stroke="black" points="158.66,-225.9 163,-216.23 153.58,-221.08 158.66,-225.9"/>
</g>
<!-- H&#45;&gt;A_num -->
<g id="edge14" class="edge">
<title>H&#45;&gt;A_num</title>
<path fill="none" stroke="black" d="M96.84,-282.72C106.97,-267.79 121.82,-250.14 140,-240.91 180.15,-220.52 199.25,-249.78 241,-232.91 248.52,-229.87 255.8,-225.39 262.44,-220.42"/>
<polygon fill="black" stroke="black" points="264.89,-222.94 270.48,-213.95 260.5,-217.49 264.89,-222.94"/>
</g>
<!-- G&#45;&gt;H -->
<g id="edge8" class="edge">
<title>G&#45;&gt;H</title>
<path fill="none" stroke="black" d="M82.66,-382.75C82.56,-371.02 82.44,-358.03 82.33,-346.34"/>
<polygon fill="black" stroke="black" points="85.83,-346 82.24,-336.04 78.83,-346.07 85.83,-346"/>
</g>
<!-- Z&#45;&gt;G -->
<g id="edge7" class="edge">
<title>Z&#45;&gt;G</title>
<path fill="none" stroke="black" d="M79.68,-493.71C80.05,-485.53 80.46,-476.75 80.85,-468.23"/>
<polygon fill="black" stroke="black" points="84.35,-468.16 81.32,-458.01 77.36,-467.84 84.35,-468.16"/>
</g>
<!-- A -->
<g id="node18" class="node">
<title>A</title>
<ellipse fill="lightgrey" stroke="black" cx="190" cy="-76.48" rx="48.17" ry="37.45"/>
<text text-anchor="middle" x="190" y="-87.78" font-family="Times,serif" font-size="14.00">A</text>
<text text-anchor="middle" x="190" y="-72.78" font-family="Times,serif" font-size="14.00">~</text>
<text text-anchor="middle" x="190" y="-57.78" font-family="Times,serif" font-size="14.00">Binomial</text>
</g>
<!-- A_denom&#45;&gt;A -->
<g id="edge18" class="edge">
<title>A_denom&#45;&gt;A</title>
<path fill="none" stroke="black" d="M109.62,-160.89C122.95,-147.05 139.67,-129.7 154.4,-114.42"/>
<polygon fill="black" stroke="black" points="157.03,-116.73 161.45,-107.1 151.99,-111.88 157.03,-116.73"/>
</g>
<!-- D&#45;&gt;A -->
<g id="edge19" class="edge">
<title>D&#45;&gt;A</title>
<path fill="none" stroke="black" d="M190,-149.85C190,-141.67 190,-132.89 190,-124.37"/>
<polygon fill="black" stroke="black" points="193.5,-124.15 190,-114.15 186.5,-124.15 193.5,-124.15"/>
</g>
<!-- A_num&#45;&gt;A -->
<g id="edge20" class="edge">
<title>A_num&#45;&gt;A</title>
<path fill="none" stroke="black" d="M270.38,-160.89C257.05,-147.05 240.33,-129.7 225.6,-114.42"/>
<polygon fill="black" stroke="black" points="228.01,-111.88 218.55,-107.1 222.97,-116.73 228.01,-111.88"/>
</g>
</g>
</svg>
