<?xml version="1.0" encoding="UTF-8" standalone="no"?>
<!DOCTYPE svg PUBLIC "-//W3C//DTD SVG 1.1//EN"
 "http://www.w3.org/Graphics/SVG/1.1/DTD/svg11.dtd">
<!-- Generated by graphviz version 6.0.1 (0)
 -->
<!-- Pages: 1 -->
<svg width="484pt" height="777pt"
 viewBox="0.00 0.00 484.00 776.72" xmlns="http://www.w3.org/2000/svg" xmlns:xlink="http://www.w3.org/1999/xlink">
<g id="graph0" class="graph" transform="scale(1 1) rotate(0) translate(4 772.72)">
<polygon fill="white" stroke="none" points="-4,4 -4,-772.72 480,-772.72 480,4 -4,4"/>
<g id="clust1" class="cluster">
<title>clusterclone (5)</title>
<path fill="none" stroke="black" d="M256,-473.79C256,-473.79 340,-473.79 340,-473.79 346,-473.79 352,-479.79 352,-485.79 352,-485.79 352,-664.74 352,-664.74 352,-670.74 346,-676.74 340,-676.74 340,-676.74 256,-676.74 256,-676.74 250,-676.74 244,-670.74 244,-664.74 244,-664.74 244,-485.79 244,-485.79 244,-479.79 250,-473.79 256,-473.79"/>
<text text-anchor="middle" x="319.5" y="-481.59" font-family="Times,serif" font-size="14.00">clone (5)</text>
</g>
<g id="clust4" class="cluster">
<title>clusterspot (10)</title>
<path fill="none" stroke="black" d="M374,-251.88C374,-251.88 456,-251.88 456,-251.88 462,-251.88 468,-257.88 468,-263.88 468,-263.88 468,-331.88 468,-331.88 468,-337.88 462,-343.88 456,-343.88 456,-343.88 374,-343.88 374,-343.88 368,-343.88 362,-337.88 362,-331.88 362,-331.88 362,-263.88 362,-263.88 362,-257.88 368,-251.88 374,-251.88"/>
<text text-anchor="middle" x="435.5" y="-259.68" font-family="Times,serif" font-size="14.00">spot (10)</text>
</g>
<g id="clust2" class="cluster">
<title>clusterposition (40) x clone (5)</title>
<path fill="none" stroke="black" d="M156,-240.91C156,-240.91 342,-240.91 342,-240.91 348,-240.91 354,-246.91 354,-252.91 354,-252.91 354,-342.86 354,-342.86 354,-348.86 348,-354.86 342,-354.86 342,-354.86 156,-354.86 156,-354.86 150,-354.86 144,-348.86 144,-342.86 144,-342.86 144,-252.91 144,-252.91 144,-246.91 150,-240.91 156,-240.91"/>
<text text-anchor="middle" x="279.5" y="-248.71" font-family="Times,serif" font-size="14.00">position (40) x clone (5)</text>
</g>
<g id="clust3" class="cluster">
<title>clusterspot (10) x clone (5)</title>
<path fill="none" stroke="black" d="M20,-251.88C20,-251.88 124,-251.88 124,-251.88 130,-251.88 136,-257.88 136,-263.88 136,-263.88 136,-675.72 136,-675.72 136,-681.72 130,-687.72 124,-687.72 124,-687.72 20,-687.72 20,-687.72 14,-687.72 8,-681.72 8,-675.72 8,-675.72 8,-263.88 8,-263.88 8,-257.88 14,-251.88 20,-251.88"/>
<text text-anchor="middle" x="72" y="-259.68" font-family="Times,serif" font-size="14.00">spot (10) x clone (5)</text>
</g>
<g id="clust5" class="cluster">
<title>clusterposition (40) x spot (10)</title>
<path fill="none" stroke="black" d="M155,-8C155,-8 340,-8 340,-8 346,-8 352,-14 352,-20 352,-20 352,-220.91 352,-220.91 352,-226.91 346,-232.91 340,-232.91 340,-232.91 155,-232.91 155,-232.91 149,-232.91 143,-226.91 143,-220.91 143,-220.91 143,-20 143,-20 143,-14 149,-8 155,-8"/>
<text text-anchor="middle" x="277.5" y="-15.8" font-family="Times,serif" font-size="14.00">position (40) x spot (10)</text>
</g>
<!-- ζ_s -->
<g id="node1" class="node">
<title>ζ_s</title>
<path fill="lightgrey" stroke="black" d="M111,-768.72C111,-768.72 45,-768.72 45,-768.72 39,-768.72 33,-762.72 33,-756.72 33,-756.72 33,-727.72 33,-727.72 33,-721.72 39,-715.72 45,-715.72 45,-715.72 111,-715.72 111,-715.72 117,-715.72 123,-721.72 123,-727.72 123,-727.72 123,-756.72 123,-756.72 123,-762.72 117,-768.72 111,-768.72"/>
<text text-anchor="middle" x="78" y="-753.52" font-family="Times,serif" font-size="14.00">ζ_s</text>
<text text-anchor="middle" x="78" y="-738.52" font-family="Times,serif" font-size="14.00">~</text>
<text text-anchor="middle" x="78" y="-723.52" font-family="Times,serif" font-size="14.00">ConstantData</text>
</g>
<!-- Π -->
<g id="node12" class="node">
<title>Π</title>
<ellipse fill="none" stroke="black" cx="78" cy="-642.24" rx="28.98" ry="37.45"/>
<text text-anchor="middle" x="78" y="-653.54" font-family="Times,serif" font-size="14.00">Π</text>
<text text-anchor="middle" x="78" y="-638.54" font-family="Times,serif" font-size="14.00">~</text>
<text text-anchor="middle" x="78" y="-623.54" font-family="Times,serif" font-size="14.00">Beta</text>
</g>
<!-- ζ_s&#45;&gt;Π -->
<g id="edge3" class="edge">
<title>ζ_s&#45;&gt;Π</title>
<path fill="none" stroke="black" d="M78,-715.48C78,-707.65 78,-698.8 78,-690.04"/>
<polygon fill="black" stroke="black" points="81.5,-689.87 78,-679.87 74.5,-689.87 81.5,-689.87"/>
</g>
<!-- ℓ -->
<g id="node2" class="node">
<title>ℓ</title>
<path fill="lightgrey" stroke="black" d="M438,-668.74C438,-668.74 372,-668.74 372,-668.74 366,-668.74 360,-662.74 360,-656.74 360,-656.74 360,-627.74 360,-627.74 360,-621.74 366,-615.74 372,-615.74 372,-615.74 438,-615.74 438,-615.74 444,-615.74 450,-621.74 450,-627.74 450,-627.74 450,-656.74 450,-656.74 450,-662.74 444,-668.74 438,-668.74"/>
<text text-anchor="middle" x="405" y="-653.54" font-family="Times,serif" font-size="14.00">ℓ</text>
<text text-anchor="middle" x="405" y="-638.54" font-family="Times,serif" font-size="14.00">~</text>
<text text-anchor="middle" x="405" y="-623.54" font-family="Times,serif" font-size="14.00">ConstantData</text>
</g>
<!-- F_prime -->
<g id="node7" class="node">
<title>F_prime</title>
<polygon fill="none" stroke="black" points="343.5,-557.79 252.5,-557.79 252.5,-504.79 343.5,-504.79 343.5,-557.79"/>
<text text-anchor="middle" x="298" y="-542.59" font-family="Times,serif" font-size="14.00">F_prime</text>
<text text-anchor="middle" x="298" y="-527.59" font-family="Times,serif" font-size="14.00">~</text>
<text text-anchor="middle" x="298" y="-512.59" font-family="Times,serif" font-size="14.00">Deterministic</text>
</g>
<!-- ℓ&#45;&gt;F_prime -->
<g id="edge2" class="edge">
<title>ℓ&#45;&gt;F_prime</title>
<path fill="none" stroke="black" d="M379.91,-615.7C365.13,-600.64 346.27,-581.44 330.37,-565.25"/>
<polygon fill="black" stroke="black" points="332.8,-562.73 323.3,-558.05 327.81,-567.64 332.8,-562.73"/>
</g>
<!-- p -->
<g id="node3" class="node">
<title>p</title>
<path fill="lightgrey" stroke="black" d="M282,-446.84C282,-446.84 216,-446.84 216,-446.84 210,-446.84 204,-440.84 204,-434.84 204,-434.84 204,-405.84 204,-405.84 204,-399.84 210,-393.84 216,-393.84 216,-393.84 282,-393.84 282,-393.84 288,-393.84 294,-399.84 294,-405.84 294,-405.84 294,-434.84 294,-434.84 294,-440.84 288,-446.84 282,-446.84"/>
<text text-anchor="middle" x="249" y="-431.64" font-family="Times,serif" font-size="14.00">p</text>
<text text-anchor="middle" x="249" y="-416.64" font-family="Times,serif" font-size="14.00">~</text>
<text text-anchor="middle" x="249" y="-401.64" font-family="Times,serif" font-size="14.00">ConstantData</text>
</g>
<!-- Φ -->
<g id="node8" class="node">
<title>Φ</title>
<ellipse fill="none" stroke="black" cx="303" cy="-309.38" rx="43.27" ry="37.45"/>
<text text-anchor="middle" x="303" y="-320.68" font-family="Times,serif" font-size="14.00">Φ</text>
<text text-anchor="middle" x="303" y="-305.68" font-family="Times,serif" font-size="14.00">~</text>
<text text-anchor="middle" x="303" y="-290.68" font-family="Times,serif" font-size="14.00">Gamma</text>
</g>
<!-- p&#45;&gt;Φ -->
<g id="edge9" class="edge">
<title>p&#45;&gt;Φ</title>
<path fill="none" stroke="black" d="M261.66,-393.79C267.64,-381.73 274.94,-367.01 281.73,-353.3"/>
<polygon fill="black" stroke="black" points="285.02,-354.54 286.33,-344.02 278.75,-351.43 285.02,-354.54"/>
</g>
<!-- F0 -->
<g id="node4" class="node">
<title>F0</title>
<path fill="lightgrey" stroke="black" d="M222,-557.79C222,-557.79 156,-557.79 156,-557.79 150,-557.79 144,-551.79 144,-545.79 144,-545.79 144,-516.79 144,-516.79 144,-510.79 150,-504.79 156,-504.79 156,-504.79 222,-504.79 222,-504.79 228,-504.79 234,-510.79 234,-516.79 234,-516.79 234,-545.79 234,-545.79 234,-551.79 228,-557.79 222,-557.79"/>
<text text-anchor="middle" x="189" y="-542.59" font-family="Times,serif" font-size="14.00">F0</text>
<text text-anchor="middle" x="189" y="-527.59" font-family="Times,serif" font-size="14.00">~</text>
<text text-anchor="middle" x="189" y="-512.59" font-family="Times,serif" font-size="14.00">ConstantData</text>
</g>
<!-- G -->
<g id="node13" class="node">
<title>G</title>
<ellipse fill="none" stroke="black" cx="83" cy="-420.34" rx="43.27" ry="37.45"/>
<text text-anchor="middle" x="83" y="-431.64" font-family="Times,serif" font-size="14.00">G</text>
<text text-anchor="middle" x="83" y="-416.64" font-family="Times,serif" font-size="14.00">~</text>
<text text-anchor="middle" x="83" y="-401.64" font-family="Times,serif" font-size="14.00">Gamma</text>
</g>
<!-- F0&#45;&gt;G -->
<g id="edge6" class="edge">
<title>F0&#45;&gt;G</title>
<path fill="none" stroke="black" d="M167.88,-504.72C159.45,-494.83 149.5,-483.57 140,-473.79 133.87,-467.48 127.16,-460.97 120.55,-454.77"/>
<polygon fill="black" stroke="black" points="122.6,-451.9 112.89,-447.68 117.85,-457.04 122.6,-451.9"/>
</g>
<!-- r -->
<g id="node5" class="node">
<title>r</title>
<path fill="lightgrey" stroke="black" d="M390,-446.84C390,-446.84 324,-446.84 324,-446.84 318,-446.84 312,-440.84 312,-434.84 312,-434.84 312,-405.84 312,-405.84 312,-399.84 318,-393.84 324,-393.84 324,-393.84 390,-393.84 390,-393.84 396,-393.84 402,-399.84 402,-405.84 402,-405.84 402,-434.84 402,-434.84 402,-440.84 396,-446.84 390,-446.84"/>
<text text-anchor="middle" x="357" y="-431.64" font-family="Times,serif" font-size="14.00">r</text>
<text text-anchor="middle" x="357" y="-416.64" font-family="Times,serif" font-size="14.00">~</text>
<text text-anchor="middle" x="357" y="-401.64" font-family="Times,serif" font-size="14.00">ConstantData</text>
</g>
<!-- r&#45;&gt;Φ -->
<g id="edge10" class="edge">
<title>r&#45;&gt;Φ</title>
<path fill="none" stroke="black" d="M344.34,-393.79C338.36,-381.73 331.06,-367.01 324.27,-353.3"/>
<polygon fill="black" stroke="black" points="327.25,-351.43 319.67,-344.02 320.98,-354.54 327.25,-351.43"/>
</g>
<!-- F -->
<g id="node6" class="node">
<title>F</title>
<path fill="lightgrey" stroke="black" d="M330,-668.74C330,-668.74 264,-668.74 264,-668.74 258,-668.74 252,-662.74 252,-656.74 252,-656.74 252,-627.74 252,-627.74 252,-621.74 258,-615.74 264,-615.74 264,-615.74 330,-615.74 330,-615.74 336,-615.74 342,-621.74 342,-627.74 342,-627.74 342,-656.74 342,-656.74 342,-662.74 336,-668.74 330,-668.74"/>
<text text-anchor="middle" x="297" y="-653.54" font-family="Times,serif" font-size="14.00">F</text>
<text text-anchor="middle" x="297" y="-638.54" font-family="Times,serif" font-size="14.00">~</text>
<text text-anchor="middle" x="297" y="-623.54" font-family="Times,serif" font-size="14.00">ConstantData</text>
</g>
<!-- F&#45;&gt;F_prime -->
<g id="edge1" class="edge">
<title>F&#45;&gt;F_prime</title>
<path fill="none" stroke="black" d="M297.23,-615.7C297.36,-601.59 297.53,-583.84 297.67,-568.35"/>
<polygon fill="black" stroke="black" points="301.17,-568.08 297.76,-558.05 294.17,-568.02 301.17,-568.08"/>
</g>
<!-- F_prime&#45;&gt;G -->
<g id="edge7" class="edge">
<title>F_prime&#45;&gt;G</title>
<path fill="none" stroke="black" d="M277.97,-504.76C268.38,-493.95 256.12,-481.98 243,-473.79 242.38,-473.4 179.58,-452.86 132.86,-437.6"/>
<polygon fill="black" stroke="black" points="133.75,-434.22 123.16,-434.44 131.58,-440.87 133.75,-434.22"/>
</g>
<!-- A_prob -->
<g id="node16" class="node">
<title>A_prob</title>
<polygon fill="none" stroke="black" points="242.5,-213.93 151.5,-213.93 151.5,-160.93 242.5,-160.93 242.5,-213.93"/>
<text text-anchor="middle" x="197" y="-198.73" font-family="Times,serif" font-size="14.00">A_prob</text>
<text text-anchor="middle" x="197" y="-183.73" font-family="Times,serif" font-size="14.00">~</text>
<text text-anchor="middle" x="197" y="-168.73" font-family="Times,serif" font-size="14.00">Deterministic</text>
</g>
<!-- Φ&#45;&gt;A_prob -->
<g id="edge14" class="edge">
<title>Φ&#45;&gt;A_prob</title>
<path fill="none" stroke="black" d="M280.34,-277.07C271.54,-265.42 261.14,-252.28 251,-240.91 245.18,-234.38 238.72,-227.69 232.35,-221.36"/>
<polygon fill="black" stroke="black" points="234.55,-218.62 224.96,-214.13 229.66,-223.62 234.55,-218.62"/>
</g>
<!-- C -->
<g id="node9" class="node">
<title>C</title>
<path fill="lightgrey" stroke="black" d="M230,-335.88C230,-335.88 164,-335.88 164,-335.88 158,-335.88 152,-329.88 152,-323.88 152,-323.88 152,-294.88 152,-294.88 152,-288.88 158,-282.88 164,-282.88 164,-282.88 230,-282.88 230,-282.88 236,-282.88 242,-288.88 242,-294.88 242,-294.88 242,-323.88 242,-323.88 242,-329.88 236,-335.88 230,-335.88"/>
<text text-anchor="middle" x="197" y="-320.68" font-family="Times,serif" font-size="14.00">C</text>
<text text-anchor="middle" x="197" y="-305.68" font-family="Times,serif" font-size="14.00">~</text>
<text text-anchor="middle" x="197" y="-290.68" font-family="Times,serif" font-size="14.00">ConstantData</text>
</g>
<!-- C&#45;&gt;A_prob -->
<g id="edge15" class="edge">
<title>C&#45;&gt;A_prob</title>
<path fill="none" stroke="black" d="M197,-282.65C197,-265.65 197,-243.14 197,-224.38"/>
<polygon fill="black" stroke="black" points="200.5,-224.12 197,-214.12 193.5,-224.12 200.5,-224.12"/>
</g>
<!-- Z -->
<g id="node10" class="node">
<title>Z</title>
<ellipse fill="none" stroke="black" cx="78" cy="-531.29" rx="48.17" ry="37.45"/>
<text text-anchor="middle" x="78" y="-542.59" font-family="Times,serif" font-size="14.00">Z</text>
<text text-anchor="middle" x="78" y="-527.59" font-family="Times,serif" font-size="14.00">~</text>
<text text-anchor="middle" x="78" y="-512.59" font-family="Times,serif" font-size="14.00">Bernoulli</text>
</g>
<!-- Z&#45;&gt;G -->
<g id="edge5" class="edge">
<title>Z&#45;&gt;G</title>
<path fill="none" stroke="black" d="M79.68,-493.71C80.05,-485.53 80.46,-476.75 80.85,-468.23"/>
<polygon fill="black" stroke="black" points="84.35,-468.16 81.32,-458.01 77.36,-467.84 84.35,-468.16"/>
</g>
<!-- H -->
<g id="node11" class="node">
<title>H</title>
<polygon fill="none" stroke="black" points="127.5,-335.88 36.5,-335.88 36.5,-282.88 127.5,-282.88 127.5,-335.88"/>
<text text-anchor="middle" x="82" y="-320.68" font-family="Times,serif" font-size="14.00">H</text>
<text text-anchor="middle" x="82" y="-305.68" font-family="Times,serif" font-size="14.00">~</text>
<text text-anchor="middle" x="82" y="-290.68" font-family="Times,serif" font-size="14.00">Deterministic</text>
</g>
<!-- D -->
<g id="node15" class="node">
<title>D</title>
<ellipse fill="lightgrey" stroke="black" cx="302" cy="-187.43" rx="41.94" ry="37.45"/>
<text text-anchor="middle" x="302" y="-198.73" font-family="Times,serif" font-size="14.00">D</text>
<text text-anchor="middle" x="302" y="-183.73" font-family="Times,serif" font-size="14.00">~</text>
<text text-anchor="middle" x="302" y="-168.73" font-family="Times,serif" font-size="14.00">Poisson</text>
</g>
<!-- H&#45;&gt;D -->
<g id="edge11" class="edge">
<title>H&#45;&gt;D</title>
<path fill="none" stroke="black" d="M96.82,-282.68C106.94,-267.73 121.79,-250.08 140,-240.91 184.18,-218.67 205.34,-251.92 251,-232.91 256.91,-230.45 262.61,-227.02 267.93,-223.15"/>
<polygon fill="black" stroke="black" points="270.29,-225.74 275.94,-216.78 265.93,-220.26 270.29,-225.74"/>
</g>
<!-- H&#45;&gt;A_prob -->
<g id="edge13" class="edge">
<title>H&#45;&gt;A_prob</title>
<path fill="none" stroke="black" d="M102.81,-282.77C113.57,-269.9 127.12,-254.24 140,-240.91 146.45,-234.23 153.57,-227.34 160.52,-220.83"/>
<polygon fill="black" stroke="black" points="163,-223.31 167.97,-213.95 158.25,-218.17 163,-223.31"/>
</g>
<!-- Π&#45;&gt;Z -->
<g id="edge4" class="edge">
<title>Π&#45;&gt;Z</title>
<path fill="none" stroke="black" d="M78,-604.66C78,-596.49 78,-587.71 78,-579.18"/>
<polygon fill="black" stroke="black" points="81.5,-578.96 78,-568.96 74.5,-578.96 81.5,-578.96"/>
</g>
<!-- G&#45;&gt;H -->
<g id="edge8" class="edge">
<title>G&#45;&gt;H</title>
<path fill="none" stroke="black" d="M82.66,-382.75C82.56,-371.02 82.44,-358.03 82.33,-346.34"/>
<polygon fill="black" stroke="black" points="85.83,-346 82.24,-336.04 78.83,-346.07 85.83,-346"/>
</g>
<!-- N -->
<g id="node14" class="node">
<title>N</title>
<path fill="lightgrey" stroke="black" d="M448,-335.88C448,-335.88 382,-335.88 382,-335.88 376,-335.88 370,-329.88 370,-323.88 370,-323.88 370,-294.88 370,-294.88 370,-288.88 376,-282.88 382,-282.88 382,-282.88 448,-282.88 448,-282.88 454,-282.88 460,-288.88 460,-294.88 460,-294.88 460,-323.88 460,-323.88 460,-329.88 454,-335.88 448,-335.88"/>
<text text-anchor="middle" x="415" y="-320.68" font-family="Times,serif" font-size="14.00">N</text>
<text text-anchor="middle" x="415" y="-305.68" font-family="Times,serif" font-size="14.00">~</text>
<text text-anchor="middle" x="415" y="-290.68" font-family="Times,serif" font-size="14.00">ConstantData</text>
</g>
<!-- N&#45;&gt;D -->
<g id="edge12" class="edge">
<title>N&#45;&gt;D</title>
<path fill="none" stroke="black" d="M394.56,-282.78C383.99,-269.91 370.67,-254.25 358,-240.91 351.93,-234.52 345.26,-227.93 338.71,-221.67"/>
<polygon fill="black" stroke="black" points="340.78,-218.82 331.11,-214.5 335.98,-223.91 340.78,-218.82"/>
</g>
<!-- A -->
<g id="node17" class="node">
<title>A</title>
<ellipse fill="lightgrey" stroke="black" cx="247" cy="-76.48" rx="48.17" ry="37.45"/>
<text text-anchor="middle" x="247" y="-87.78" font-family="Times,serif" font-size="14.00">A</text>
<text text-anchor="middle" x="247" y="-72.78" font-family="Times,serif" font-size="14.00">~</text>
<text text-anchor="middle" x="247" y="-57.78" font-family="Times,serif" font-size="14.00">Binomial</text>
</g>
<!-- D&#45;&gt;A -->
<g id="edge16" class="edge">
<title>D&#45;&gt;A</title>
<path fill="none" stroke="black" d="M285.05,-152.85C279.92,-142.7 274.22,-131.4 268.82,-120.71"/>
<polygon fill="black" stroke="black" points="271.81,-118.86 264.18,-111.51 265.56,-122.01 271.81,-118.86"/>
</g>
<!-- A_prob&#45;&gt;A -->
<g id="edge17" class="edge">
<title>A_prob&#45;&gt;A</title>
<path fill="none" stroke="black" d="M208.72,-160.89C214.16,-149.03 220.79,-134.6 226.98,-121.09"/>
<polygon fill="black" stroke="black" points="230.2,-122.48 231.19,-111.94 223.83,-119.56 230.2,-122.48"/>
</g>
</g>
</svg>
