<?xml version="1.0" encoding="UTF-8" standalone="no"?>
<!DOCTYPE svg PUBLIC "-//W3C//DTD SVG 1.1//EN"
 "http://www.w3.org/Graphics/SVG/1.1/DTD/svg11.dtd">
<!-- Generated by graphviz version 6.0.1 (0)
 -->
<!-- Pages: 1 -->
<svg width="790pt" height="688pt"
 viewBox="0.00 0.00 790.00 687.74" xmlns="http://www.w3.org/2000/svg" xmlns:xlink="http://www.w3.org/1999/xlink">
<g id="graph0" class="graph" transform="scale(1 1) rotate(0) translate(4 683.74)">
<polygon fill="white" stroke="none" points="-4,4 -4,-683.74 786,-683.74 786,4 -4,4"/>
<g id="clust1" class="cluster">
<title>clusterclone (5)</title>
<path fill="none" stroke="black" d="M110,-362.86C110,-362.86 194,-362.86 194,-362.86 200,-362.86 206,-368.86 206,-374.86 206,-374.86 206,-553.81 206,-553.81 206,-559.81 200,-565.81 194,-565.81 194,-565.81 110,-565.81 110,-565.81 104,-565.81 98,-559.81 98,-553.81 98,-553.81 98,-374.86 98,-374.86 98,-368.86 104,-362.86 110,-362.86"/>
<text text-anchor="middle" x="173.5" y="-370.66" font-family="Times,serif" font-size="14.00">clone (5)</text>
</g>
<g id="clust2" class="cluster">
<title>clusterspot (20)</title>
<path fill="none" stroke="black" d="M462,-240.91C462,-240.91 544,-240.91 544,-240.91 550,-240.91 556,-246.91 556,-252.91 556,-252.91 556,-442.86 556,-442.86 556,-448.86 550,-454.86 544,-454.86 544,-454.86 462,-454.86 462,-454.86 456,-454.86 450,-448.86 450,-442.86 450,-442.86 450,-252.91 450,-252.91 450,-246.91 456,-240.91 462,-240.91"/>
<text text-anchor="middle" x="523.5" y="-248.71" font-family="Times,serif" font-size="14.00">spot (20)</text>
</g>
<g id="clust3" class="cluster">
<title>clusterposition (100) x clone (5)</title>
<path fill="none" stroke="black" d="M576,-240.91C576,-240.91 762,-240.91 762,-240.91 768,-240.91 774,-246.91 774,-252.91 774,-252.91 774,-342.86 774,-342.86 774,-348.86 768,-354.86 762,-354.86 762,-354.86 576,-354.86 576,-354.86 570,-354.86 564,-348.86 564,-342.86 564,-342.86 564,-252.91 564,-252.91 564,-246.91 570,-240.91 576,-240.91"/>
<text text-anchor="middle" x="696" y="-248.71" font-family="Times,serif" font-size="14.00">position (100) x clone (5)</text>
</g>
<g id="clust4" class="cluster">
<title>clusterspot (20) x clone (5)</title>
<path fill="none" stroke="black" d="M226,-240.91C226,-240.91 330,-240.91 330,-240.91 336,-240.91 342,-246.91 342,-252.91 342,-252.91 342,-564.79 342,-564.79 342,-570.79 336,-576.79 330,-576.79 330,-576.79 226,-576.79 226,-576.79 220,-576.79 214,-570.79 214,-564.79 214,-564.79 214,-252.91 214,-252.91 214,-246.91 220,-240.91 226,-240.91"/>
<text text-anchor="middle" x="278" y="-248.71" font-family="Times,serif" font-size="14.00">spot (20) x clone (5)</text>
</g>
<g id="clust5" class="cluster">
<title>clusterposition (100) x spot (20)</title>
<path fill="none" stroke="black" d="M465,-8C465,-8 650,-8 650,-8 656,-8 662,-14 662,-20 662,-20 662,-220.91 662,-220.91 662,-226.91 656,-232.91 650,-232.91 650,-232.91 465,-232.91 465,-232.91 459,-232.91 453,-226.91 453,-220.91 453,-220.91 453,-20 453,-20 453,-14 459,-8 465,-8"/>
<text text-anchor="middle" x="584" y="-15.8" font-family="Times,serif" font-size="14.00">position (100) x spot (20)</text>
</g>
<!-- ℓ -->
<g id="node1" class="node">
<title>ℓ</title>
<path fill="lightgrey" stroke="black" d="M78,-557.81C78,-557.81 12,-557.81 12,-557.81 6,-557.81 0,-551.81 0,-545.81 0,-545.81 0,-516.81 0,-516.81 0,-510.81 6,-504.81 12,-504.81 12,-504.81 78,-504.81 78,-504.81 84,-504.81 90,-510.81 90,-516.81 90,-516.81 90,-545.81 90,-545.81 90,-551.81 84,-557.81 78,-557.81"/>
<text text-anchor="middle" x="45" y="-542.61" font-family="Times,serif" font-size="14.00">ℓ</text>
<text text-anchor="middle" x="45" y="-527.61" font-family="Times,serif" font-size="14.00">~</text>
<text text-anchor="middle" x="45" y="-512.61" font-family="Times,serif" font-size="14.00">ConstantData</text>
</g>
<!-- F_prime -->
<g id="node7" class="node">
<title>F_prime</title>
<polygon fill="none" stroke="black" points="197.5,-446.86 106.5,-446.86 106.5,-393.86 197.5,-393.86 197.5,-446.86"/>
<text text-anchor="middle" x="152" y="-431.66" font-family="Times,serif" font-size="14.00">F_prime</text>
<text text-anchor="middle" x="152" y="-416.66" font-family="Times,serif" font-size="14.00">~</text>
<text text-anchor="middle" x="152" y="-401.66" font-family="Times,serif" font-size="14.00">Deterministic</text>
</g>
<!-- ℓ&#45;&gt;F_prime -->
<g id="edge2" class="edge">
<title>ℓ&#45;&gt;F_prime</title>
<path fill="none" stroke="black" d="M70.09,-504.77C84.87,-489.71 103.73,-470.51 119.63,-454.32"/>
<polygon fill="black" stroke="black" points="122.19,-456.71 126.7,-447.12 117.2,-451.8 122.19,-456.71"/>
</g>
<!-- β -->
<g id="node2" class="node">
<title>β</title>
<ellipse fill="none" stroke="black" cx="217" cy="-642.27" rx="57.97" ry="37.45"/>
<text text-anchor="middle" x="217" y="-653.57" font-family="Times,serif" font-size="14.00">β</text>
<text text-anchor="middle" x="217" y="-638.57" font-family="Times,serif" font-size="14.00">~</text>
<text text-anchor="middle" x="217" y="-623.57" font-family="Times,serif" font-size="14.00">Exponential</text>
</g>
<!-- Π -->
<g id="node14" class="node">
<title>Π</title>
<ellipse fill="none" stroke="black" cx="284" cy="-531.31" rx="28.98" ry="37.45"/>
<text text-anchor="middle" x="284" y="-542.61" font-family="Times,serif" font-size="14.00">Π</text>
<text text-anchor="middle" x="284" y="-527.61" font-family="Times,serif" font-size="14.00">~</text>
<text text-anchor="middle" x="284" y="-512.61" font-family="Times,serif" font-size="14.00">Beta</text>
</g>
<!-- β&#45;&gt;Π -->
<g id="edge4" class="edge">
<title>β&#45;&gt;Π</title>
<path fill="none" stroke="black" d="M238.02,-607.09C245.3,-595.24 253.51,-581.89 260.95,-569.79"/>
<polygon fill="black" stroke="black" points="263.96,-571.59 266.21,-561.24 257.99,-567.92 263.96,-571.59"/>
</g>
<!-- α -->
<g id="node3" class="node">
<title>α</title>
<ellipse fill="none" stroke="black" cx="351" cy="-642.27" rx="57.97" ry="37.45"/>
<text text-anchor="middle" x="351" y="-653.57" font-family="Times,serif" font-size="14.00">α</text>
<text text-anchor="middle" x="351" y="-638.57" font-family="Times,serif" font-size="14.00">~</text>
<text text-anchor="middle" x="351" y="-623.57" font-family="Times,serif" font-size="14.00">Exponential</text>
</g>
<!-- α&#45;&gt;Π -->
<g id="edge3" class="edge">
<title>α&#45;&gt;Π</title>
<path fill="none" stroke="black" d="M329.98,-607.09C322.7,-595.24 314.49,-581.89 307.05,-569.79"/>
<polygon fill="black" stroke="black" points="310.01,-567.92 301.79,-561.24 304.04,-571.59 310.01,-567.92"/>
</g>
<!-- F0 -->
<g id="node4" class="node">
<title>F0</title>
<path fill="lightgrey" stroke="black" d="M428,-446.86C428,-446.86 362,-446.86 362,-446.86 356,-446.86 350,-440.86 350,-434.86 350,-434.86 350,-405.86 350,-405.86 350,-399.86 356,-393.86 362,-393.86 362,-393.86 428,-393.86 428,-393.86 434,-393.86 440,-399.86 440,-405.86 440,-405.86 440,-434.86 440,-434.86 440,-440.86 434,-446.86 428,-446.86"/>
<text text-anchor="middle" x="395" y="-431.66" font-family="Times,serif" font-size="14.00">F0</text>
<text text-anchor="middle" x="395" y="-416.66" font-family="Times,serif" font-size="14.00">~</text>
<text text-anchor="middle" x="395" y="-401.66" font-family="Times,serif" font-size="14.00">ConstantData</text>
</g>
<!-- H -->
<g id="node13" class="node">
<title>H</title>
<ellipse fill="none" stroke="black" cx="288" cy="-309.38" rx="45.92" ry="37.45"/>
<text text-anchor="middle" x="288" y="-320.68" font-family="Times,serif" font-size="14.00">H</text>
<text text-anchor="middle" x="288" y="-305.68" font-family="Times,serif" font-size="14.00">~</text>
<text text-anchor="middle" x="288" y="-290.68" font-family="Times,serif" font-size="14.00">Dirichlet</text>
</g>
<!-- F0&#45;&gt;H -->
<g id="edge7" class="edge">
<title>F0&#45;&gt;H</title>
<path fill="none" stroke="black" d="M373.92,-393.74C365.5,-383.86 355.54,-372.6 346,-362.86 339.92,-356.65 333.26,-350.27 326.69,-344.19"/>
<polygon fill="black" stroke="black" points="328.79,-341.38 319.05,-337.22 324.07,-346.55 328.79,-341.38"/>
</g>
<!-- r -->
<g id="node5" class="node">
<title>r</title>
<ellipse fill="none" stroke="black" cx="723" cy="-420.36" rx="57.97" ry="37.45"/>
<text text-anchor="middle" x="723" y="-431.66" font-family="Times,serif" font-size="14.00">r</text>
<text text-anchor="middle" x="723" y="-416.66" font-family="Times,serif" font-size="14.00">~</text>
<text text-anchor="middle" x="723" y="-401.66" font-family="Times,serif" font-size="14.00">Exponential</text>
</g>
<!-- Φ -->
<g id="node10" class="node">
<title>Φ</title>
<ellipse fill="none" stroke="black" cx="723" cy="-309.38" rx="43.27" ry="37.45"/>
<text text-anchor="middle" x="723" y="-320.68" font-family="Times,serif" font-size="14.00">Φ</text>
<text text-anchor="middle" x="723" y="-305.68" font-family="Times,serif" font-size="14.00">~</text>
<text text-anchor="middle" x="723" y="-290.68" font-family="Times,serif" font-size="14.00">Gamma</text>
</g>
<!-- r&#45;&gt;Φ -->
<g id="edge10" class="edge">
<title>r&#45;&gt;Φ</title>
<path fill="none" stroke="black" d="M723,-382.77C723,-374.59 723,-365.81 723,-357.28"/>
<polygon fill="black" stroke="black" points="726.5,-357.06 723,-347.06 719.5,-357.06 726.5,-357.06"/>
</g>
<!-- F -->
<g id="node6" class="node">
<title>F</title>
<path fill="lightgrey" stroke="black" d="M186,-557.81C186,-557.81 120,-557.81 120,-557.81 114,-557.81 108,-551.81 108,-545.81 108,-545.81 108,-516.81 108,-516.81 108,-510.81 114,-504.81 120,-504.81 120,-504.81 186,-504.81 186,-504.81 192,-504.81 198,-510.81 198,-516.81 198,-516.81 198,-545.81 198,-545.81 198,-551.81 192,-557.81 186,-557.81"/>
<text text-anchor="middle" x="153" y="-542.61" font-family="Times,serif" font-size="14.00">F</text>
<text text-anchor="middle" x="153" y="-527.61" font-family="Times,serif" font-size="14.00">~</text>
<text text-anchor="middle" x="153" y="-512.61" font-family="Times,serif" font-size="14.00">ConstantData</text>
</g>
<!-- F&#45;&gt;F_prime -->
<g id="edge1" class="edge">
<title>F&#45;&gt;F_prime</title>
<path fill="none" stroke="black" d="M152.77,-504.77C152.64,-490.66 152.47,-472.91 152.33,-457.42"/>
<polygon fill="black" stroke="black" points="155.83,-457.09 152.24,-447.12 148.83,-457.15 155.83,-457.09"/>
</g>
<!-- F_prime&#45;&gt;H -->
<g id="edge8" class="edge">
<title>F_prime&#45;&gt;H</title>
<path fill="none" stroke="black" d="M176.21,-393.86C186.28,-383.77 198.33,-372.34 210,-362.86 220.4,-354.41 232.15,-345.99 243.31,-338.44"/>
<polygon fill="black" stroke="black" points="245.32,-341.31 251.7,-332.85 241.44,-335.48 245.32,-341.31"/>
</g>
<!-- Λ -->
<g id="node8" class="node">
<title>Λ</title>
<path fill="lightgrey" stroke="black" d="M536,-446.86C536,-446.86 470,-446.86 470,-446.86 464,-446.86 458,-440.86 458,-434.86 458,-434.86 458,-405.86 458,-405.86 458,-399.86 464,-393.86 470,-393.86 470,-393.86 536,-393.86 536,-393.86 542,-393.86 548,-399.86 548,-405.86 548,-405.86 548,-434.86 548,-434.86 548,-440.86 542,-446.86 536,-446.86"/>
<text text-anchor="middle" x="503" y="-431.66" font-family="Times,serif" font-size="14.00">Λ</text>
<text text-anchor="middle" x="503" y="-416.66" font-family="Times,serif" font-size="14.00">~</text>
<text text-anchor="middle" x="503" y="-401.66" font-family="Times,serif" font-size="14.00">ConstantData</text>
</g>
<!-- N -->
<g id="node9" class="node">
<title>N</title>
<ellipse fill="none" stroke="black" cx="503" cy="-309.38" rx="41.94" ry="37.45"/>
<text text-anchor="middle" x="503" y="-320.68" font-family="Times,serif" font-size="14.00">N</text>
<text text-anchor="middle" x="503" y="-305.68" font-family="Times,serif" font-size="14.00">~</text>
<text text-anchor="middle" x="503" y="-290.68" font-family="Times,serif" font-size="14.00">Poisson</text>
</g>
<!-- Λ&#45;&gt;N -->
<g id="edge9" class="edge">
<title>Λ&#45;&gt;N</title>
<path fill="none" stroke="black" d="M503,-393.81C503,-382.9 503,-369.81 503,-357.26"/>
<polygon fill="black" stroke="black" points="506.5,-356.92 503,-346.92 499.5,-356.92 506.5,-356.92"/>
</g>
<!-- D -->
<g id="node15" class="node">
<title>D</title>
<ellipse fill="lightgrey" stroke="black" cx="503" cy="-187.43" rx="41.94" ry="37.45"/>
<text text-anchor="middle" x="503" y="-198.73" font-family="Times,serif" font-size="14.00">D</text>
<text text-anchor="middle" x="503" y="-183.73" font-family="Times,serif" font-size="14.00">~</text>
<text text-anchor="middle" x="503" y="-168.73" font-family="Times,serif" font-size="14.00">Poisson</text>
</g>
<!-- N&#45;&gt;D -->
<g id="edge12" class="edge">
<title>N&#45;&gt;D</title>
<path fill="none" stroke="black" d="M503,-271.74C503,-260.34 503,-247.6 503,-235.58"/>
<polygon fill="black" stroke="black" points="506.5,-235.26 503,-225.26 499.5,-235.26 506.5,-235.26"/>
</g>
<!-- A_prob -->
<g id="node16" class="node">
<title>A_prob</title>
<polygon fill="none" stroke="black" points="653.5,-213.93 562.5,-213.93 562.5,-160.93 653.5,-160.93 653.5,-213.93"/>
<text text-anchor="middle" x="608" y="-198.73" font-family="Times,serif" font-size="14.00">A_prob</text>
<text text-anchor="middle" x="608" y="-183.73" font-family="Times,serif" font-size="14.00">~</text>
<text text-anchor="middle" x="608" y="-168.73" font-family="Times,serif" font-size="14.00">Deterministic</text>
</g>
<!-- Φ&#45;&gt;A_prob -->
<g id="edge14" class="edge">
<title>Φ&#45;&gt;A_prob</title>
<path fill="none" stroke="black" d="M701.06,-276.99C692.25,-265.2 681.67,-251.99 671,-240.91 664.4,-234.05 656.96,-227.2 649.55,-220.82"/>
<polygon fill="black" stroke="black" points="651.48,-217.87 641.58,-214.1 646.97,-223.22 651.48,-217.87"/>
</g>
<!-- C -->
<g id="node11" class="node">
<title>C</title>
<path fill="lightgrey" stroke="black" d="M650,-335.88C650,-335.88 584,-335.88 584,-335.88 578,-335.88 572,-329.88 572,-323.88 572,-323.88 572,-294.88 572,-294.88 572,-288.88 578,-282.88 584,-282.88 584,-282.88 650,-282.88 650,-282.88 656,-282.88 662,-288.88 662,-294.88 662,-294.88 662,-323.88 662,-323.88 662,-329.88 656,-335.88 650,-335.88"/>
<text text-anchor="middle" x="617" y="-320.68" font-family="Times,serif" font-size="14.00">C</text>
<text text-anchor="middle" x="617" y="-305.68" font-family="Times,serif" font-size="14.00">~</text>
<text text-anchor="middle" x="617" y="-290.68" font-family="Times,serif" font-size="14.00">ConstantData</text>
</g>
<!-- C&#45;&gt;A_prob -->
<g id="edge15" class="edge">
<title>C&#45;&gt;A_prob</title>
<path fill="none" stroke="black" d="M615.07,-282.65C613.79,-265.57 612.09,-242.93 610.68,-224.12"/>
<polygon fill="black" stroke="black" points="614.17,-223.83 609.93,-214.12 607.19,-224.35 614.17,-223.83"/>
</g>
<!-- Z -->
<g id="node12" class="node">
<title>Z</title>
<ellipse fill="none" stroke="black" cx="284" cy="-420.36" rx="48.17" ry="37.45"/>
<text text-anchor="middle" x="284" y="-431.66" font-family="Times,serif" font-size="14.00">Z</text>
<text text-anchor="middle" x="284" y="-416.66" font-family="Times,serif" font-size="14.00">~</text>
<text text-anchor="middle" x="284" y="-401.66" font-family="Times,serif" font-size="14.00">Bernoulli</text>
</g>
<!-- Z&#45;&gt;H -->
<g id="edge6" class="edge">
<title>Z&#45;&gt;H</title>
<path fill="none" stroke="black" d="M285.34,-382.77C285.64,-374.59 285.97,-365.81 286.28,-357.28"/>
<polygon fill="black" stroke="black" points="289.78,-357.18 286.65,-347.06 282.79,-356.93 289.78,-357.18"/>
</g>
<!-- H&#45;&gt;D -->
<g id="edge11" class="edge">
<title>H&#45;&gt;D</title>
<path fill="none" stroke="black" d="M325.45,-287.49C362.54,-266.8 419.34,-235.11 458.66,-213.17"/>
<polygon fill="black" stroke="black" points="460.73,-216.02 467.76,-208.09 457.32,-209.91 460.73,-216.02"/>
</g>
<!-- H&#45;&gt;A_prob -->
<g id="edge13" class="edge">
<title>H&#45;&gt;A_prob</title>
<path fill="none" stroke="black" d="M326.05,-287.9C357.31,-272.13 403.25,-251.31 446,-240.91 492.77,-229.52 509.33,-250.83 554,-232.91 561.53,-229.89 568.81,-225.41 575.45,-220.45"/>
<polygon fill="black" stroke="black" points="577.9,-222.98 583.5,-213.98 573.51,-217.52 577.9,-222.98"/>
</g>
<!-- Π&#45;&gt;Z -->
<g id="edge5" class="edge">
<title>Π&#45;&gt;Z</title>
<path fill="none" stroke="black" d="M284,-493.73C284,-485.56 284,-476.78 284,-468.25"/>
<polygon fill="black" stroke="black" points="287.5,-468.03 284,-458.03 280.5,-468.03 287.5,-468.03"/>
</g>
<!-- A -->
<g id="node17" class="node">
<title>A</title>
<ellipse fill="lightgrey" stroke="black" cx="557" cy="-76.48" rx="48.17" ry="37.45"/>
<text text-anchor="middle" x="557" y="-87.78" font-family="Times,serif" font-size="14.00">A</text>
<text text-anchor="middle" x="557" y="-72.78" font-family="Times,serif" font-size="14.00">~</text>
<text text-anchor="middle" x="557" y="-57.78" font-family="Times,serif" font-size="14.00">Binomial</text>
</g>
<!-- D&#45;&gt;A -->
<g id="edge16" class="edge">
<title>D&#45;&gt;A</title>
<path fill="none" stroke="black" d="M519.64,-152.85C524.63,-142.79 530.17,-131.61 535.42,-121.01"/>
<polygon fill="black" stroke="black" points="538.64,-122.4 539.95,-111.88 532.37,-119.29 538.64,-122.4"/>
</g>
<!-- A_prob&#45;&gt;A -->
<g id="edge17" class="edge">
<title>A_prob&#45;&gt;A</title>
<path fill="none" stroke="black" d="M596.04,-160.89C590.49,-149.03 583.74,-134.6 577.42,-121.09"/>
<polygon fill="black" stroke="black" points="580.54,-119.51 573.13,-111.94 574.2,-122.48 580.54,-119.51"/>
</g>
</g>
</svg>
