<?xml version="1.0" encoding="UTF-8" standalone="no"?>
<!DOCTYPE svg PUBLIC "-//W3C//DTD SVG 1.1//EN"
 "http://www.w3.org/Graphics/SVG/1.1/DTD/svg11.dtd">
<!-- Generated by graphviz version 6.0.1 (0)
 -->
<!-- Pages: 1 -->
<svg width="690pt" height="777pt"
 viewBox="0.00 0.00 690.00 776.72" xmlns="http://www.w3.org/2000/svg" xmlns:xlink="http://www.w3.org/1999/xlink">
<g id="graph0" class="graph" transform="scale(1 1) rotate(0) translate(4 772.72)">
<polygon fill="white" stroke="none" points="-4,4 -4,-772.72 686,-772.72 686,4 -4,4"/>
<g id="clust4" class="cluster">
<title>clusterspot (10)</title>
<path fill="none" stroke="black" d="M580,-251.88C580,-251.88 662,-251.88 662,-251.88 668,-251.88 674,-257.88 674,-263.88 674,-263.88 674,-331.88 674,-331.88 674,-337.88 668,-343.88 662,-343.88 662,-343.88 580,-343.88 580,-343.88 574,-343.88 568,-337.88 568,-331.88 568,-331.88 568,-263.88 568,-263.88 568,-257.88 574,-251.88 580,-251.88"/>
<text text-anchor="middle" x="641.5" y="-259.68" font-family="Times,serif" font-size="14.00">spot (10)</text>
</g>
<g id="clust1" class="cluster">
<title>clusterclone (5)</title>
<path fill="none" stroke="black" d="M110,-473.79C110,-473.79 194,-473.79 194,-473.79 200,-473.79 206,-479.79 206,-485.79 206,-485.79 206,-664.74 206,-664.74 206,-670.74 200,-676.74 194,-676.74 194,-676.74 110,-676.74 110,-676.74 104,-676.74 98,-670.74 98,-664.74 98,-664.74 98,-485.79 98,-485.79 98,-479.79 104,-473.79 110,-473.79"/>
<text text-anchor="middle" x="173.5" y="-481.59" font-family="Times,serif" font-size="14.00">clone (5)</text>
</g>
<g id="clust2" class="cluster">
<title>clusterposition (40) x clone (5)</title>
<path fill="none" stroke="black" d="M362,-240.91C362,-240.91 548,-240.91 548,-240.91 554,-240.91 560,-246.91 560,-252.91 560,-252.91 560,-342.86 560,-342.86 560,-348.86 554,-354.86 548,-354.86 548,-354.86 362,-354.86 362,-354.86 356,-354.86 350,-348.86 350,-342.86 350,-342.86 350,-252.91 350,-252.91 350,-246.91 356,-240.91 362,-240.91"/>
<text text-anchor="middle" x="485.5" y="-248.71" font-family="Times,serif" font-size="14.00">position (40) x clone (5)</text>
</g>
<g id="clust3" class="cluster">
<title>clusterspot (10) x clone (5)</title>
<path fill="none" stroke="black" d="M226,-251.88C226,-251.88 330,-251.88 330,-251.88 336,-251.88 342,-257.88 342,-263.88 342,-263.88 342,-675.72 342,-675.72 342,-681.72 336,-687.72 330,-687.72 330,-687.72 226,-687.72 226,-687.72 220,-687.72 214,-681.72 214,-675.72 214,-675.72 214,-263.88 214,-263.88 214,-257.88 220,-251.88 226,-251.88"/>
<text text-anchor="middle" x="278" y="-259.68" font-family="Times,serif" font-size="14.00">spot (10) x clone (5)</text>
</g>
<g id="clust5" class="cluster">
<title>clusterposition (40) x spot (10)</title>
<path fill="none" stroke="black" d="M359,-8C359,-8 544,-8 544,-8 550,-8 556,-14 556,-20 556,-20 556,-220.91 556,-220.91 556,-226.91 550,-232.91 544,-232.91 544,-232.91 359,-232.91 359,-232.91 353,-232.91 347,-226.91 347,-220.91 347,-220.91 347,-20 347,-20 347,-14 353,-8 359,-8"/>
<text text-anchor="middle" x="481.5" y="-15.8" font-family="Times,serif" font-size="14.00">position (40) x spot (10)</text>
</g>
<!-- ℓ -->
<g id="node1" class="node">
<title>ℓ</title>
<path fill="lightgrey" stroke="black" d="M78,-668.74C78,-668.74 12,-668.74 12,-668.74 6,-668.74 0,-662.74 0,-656.74 0,-656.74 0,-627.74 0,-627.74 0,-621.74 6,-615.74 12,-615.74 12,-615.74 78,-615.74 78,-615.74 84,-615.74 90,-621.74 90,-627.74 90,-627.74 90,-656.74 90,-656.74 90,-662.74 84,-668.74 78,-668.74"/>
<text text-anchor="middle" x="45" y="-653.54" font-family="Times,serif" font-size="14.00">ℓ</text>
<text text-anchor="middle" x="45" y="-638.54" font-family="Times,serif" font-size="14.00">~</text>
<text text-anchor="middle" x="45" y="-623.54" font-family="Times,serif" font-size="14.00">ConstantData</text>
</g>
<!-- F_prime -->
<g id="node7" class="node">
<title>F_prime</title>
<polygon fill="none" stroke="black" points="197.5,-557.79 106.5,-557.79 106.5,-504.79 197.5,-504.79 197.5,-557.79"/>
<text text-anchor="middle" x="152" y="-542.59" font-family="Times,serif" font-size="14.00">F_prime</text>
<text text-anchor="middle" x="152" y="-527.59" font-family="Times,serif" font-size="14.00">~</text>
<text text-anchor="middle" x="152" y="-512.59" font-family="Times,serif" font-size="14.00">Deterministic</text>
</g>
<!-- ℓ&#45;&gt;F_prime -->
<g id="edge1" class="edge">
<title>ℓ&#45;&gt;F_prime</title>
<path fill="none" stroke="black" d="M70.09,-615.7C84.87,-600.64 103.73,-581.44 119.63,-565.25"/>
<polygon fill="black" stroke="black" points="122.19,-567.64 126.7,-558.05 117.2,-562.73 122.19,-567.64"/>
</g>
<!-- F0 -->
<g id="node2" class="node">
<title>F0</title>
<path fill="lightgrey" stroke="black" d="M429,-557.79C429,-557.79 363,-557.79 363,-557.79 357,-557.79 351,-551.79 351,-545.79 351,-545.79 351,-516.79 351,-516.79 351,-510.79 357,-504.79 363,-504.79 363,-504.79 429,-504.79 429,-504.79 435,-504.79 441,-510.79 441,-516.79 441,-516.79 441,-545.79 441,-545.79 441,-551.79 435,-557.79 429,-557.79"/>
<text text-anchor="middle" x="396" y="-542.59" font-family="Times,serif" font-size="14.00">F0</text>
<text text-anchor="middle" x="396" y="-527.59" font-family="Times,serif" font-size="14.00">~</text>
<text text-anchor="middle" x="396" y="-512.59" font-family="Times,serif" font-size="14.00">ConstantData</text>
</g>
<!-- G -->
<g id="node11" class="node">
<title>G</title>
<ellipse fill="none" stroke="black" cx="286" cy="-420.34" rx="43.27" ry="37.45"/>
<text text-anchor="middle" x="286" y="-431.64" font-family="Times,serif" font-size="14.00">G</text>
<text text-anchor="middle" x="286" y="-416.64" font-family="Times,serif" font-size="14.00">~</text>
<text text-anchor="middle" x="286" y="-401.64" font-family="Times,serif" font-size="14.00">Gamma</text>
</g>
<!-- F0&#45;&gt;G -->
<g id="edge5" class="edge">
<title>F0&#45;&gt;G</title>
<path fill="none" stroke="black" d="M374.52,-504.63C365.92,-494.73 355.75,-483.49 346,-473.79 339.3,-467.13 331.9,-460.29 324.66,-453.84"/>
<polygon fill="black" stroke="black" points="326.72,-450.99 316.9,-447.02 322.1,-456.25 326.72,-450.99"/>
</g>
<!-- r -->
<g id="node3" class="node">
<title>r</title>
<path fill="lightgrey" stroke="black" d="M431,-446.84C431,-446.84 365,-446.84 365,-446.84 359,-446.84 353,-440.84 353,-434.84 353,-434.84 353,-405.84 353,-405.84 353,-399.84 359,-393.84 365,-393.84 365,-393.84 431,-393.84 431,-393.84 437,-393.84 443,-399.84 443,-405.84 443,-405.84 443,-434.84 443,-434.84 443,-440.84 437,-446.84 431,-446.84"/>
<text text-anchor="middle" x="398" y="-431.64" font-family="Times,serif" font-size="14.00">r</text>
<text text-anchor="middle" x="398" y="-416.64" font-family="Times,serif" font-size="14.00">~</text>
<text text-anchor="middle" x="398" y="-401.64" font-family="Times,serif" font-size="14.00">ConstantData</text>
</g>
<!-- Φ -->
<g id="node9" class="node">
<title>Φ</title>
<ellipse fill="none" stroke="black" cx="401" cy="-309.38" rx="43.27" ry="37.45"/>
<text text-anchor="middle" x="401" y="-320.68" font-family="Times,serif" font-size="14.00">Φ</text>
<text text-anchor="middle" x="401" y="-305.68" font-family="Times,serif" font-size="14.00">~</text>
<text text-anchor="middle" x="401" y="-290.68" font-family="Times,serif" font-size="14.00">Gamma</text>
</g>
<!-- r&#45;&gt;Φ -->
<g id="edge9" class="edge">
<title>r&#45;&gt;Φ</title>
<path fill="none" stroke="black" d="M398.7,-393.79C399,-382.88 399.36,-369.79 399.71,-357.25"/>
<polygon fill="black" stroke="black" points="403.22,-357 399.99,-346.91 396.22,-356.81 403.22,-357"/>
</g>
<!-- ζ_s -->
<g id="node4" class="node">
<title>ζ_s</title>
<path fill="lightgrey" stroke="black" d="M318,-768.72C318,-768.72 252,-768.72 252,-768.72 246,-768.72 240,-762.72 240,-756.72 240,-756.72 240,-727.72 240,-727.72 240,-721.72 246,-715.72 252,-715.72 252,-715.72 318,-715.72 318,-715.72 324,-715.72 330,-721.72 330,-727.72 330,-727.72 330,-756.72 330,-756.72 330,-762.72 324,-768.72 318,-768.72"/>
<text text-anchor="middle" x="285" y="-753.52" font-family="Times,serif" font-size="14.00">ζ_s</text>
<text text-anchor="middle" x="285" y="-738.52" font-family="Times,serif" font-size="14.00">~</text>
<text text-anchor="middle" x="285" y="-723.52" font-family="Times,serif" font-size="14.00">ConstantData</text>
</g>
<!-- Π -->
<g id="node10" class="node">
<title>Π</title>
<ellipse fill="none" stroke="black" cx="285" cy="-642.24" rx="28.98" ry="37.45"/>
<text text-anchor="middle" x="285" y="-653.54" font-family="Times,serif" font-size="14.00">Π</text>
<text text-anchor="middle" x="285" y="-638.54" font-family="Times,serif" font-size="14.00">~</text>
<text text-anchor="middle" x="285" y="-623.54" font-family="Times,serif" font-size="14.00">Beta</text>
</g>
<!-- ζ_s&#45;&gt;Π -->
<g id="edge3" class="edge">
<title>ζ_s&#45;&gt;Π</title>
<path fill="none" stroke="black" d="M285,-715.48C285,-707.65 285,-698.8 285,-690.04"/>
<polygon fill="black" stroke="black" points="288.5,-689.87 285,-679.87 281.5,-689.87 288.5,-689.87"/>
</g>
<!-- p -->
<g id="node5" class="node">
<title>p</title>
<path fill="lightgrey" stroke="black" d="M539,-446.84C539,-446.84 473,-446.84 473,-446.84 467,-446.84 461,-440.84 461,-434.84 461,-434.84 461,-405.84 461,-405.84 461,-399.84 467,-393.84 473,-393.84 473,-393.84 539,-393.84 539,-393.84 545,-393.84 551,-399.84 551,-405.84 551,-405.84 551,-434.84 551,-434.84 551,-440.84 545,-446.84 539,-446.84"/>
<text text-anchor="middle" x="506" y="-431.64" font-family="Times,serif" font-size="14.00">p</text>
<text text-anchor="middle" x="506" y="-416.64" font-family="Times,serif" font-size="14.00">~</text>
<text text-anchor="middle" x="506" y="-401.64" font-family="Times,serif" font-size="14.00">ConstantData</text>
</g>
<!-- p&#45;&gt;Φ -->
<g id="edge10" class="edge">
<title>p&#45;&gt;Φ</title>
<path fill="none" stroke="black" d="M481.38,-393.79C467.73,-379.63 450.55,-361.79 435.57,-346.25"/>
<polygon fill="black" stroke="black" points="437.88,-343.61 428.42,-338.83 432.84,-348.46 437.88,-343.61"/>
</g>
<!-- F -->
<g id="node6" class="node">
<title>F</title>
<path fill="lightgrey" stroke="black" d="M186,-668.74C186,-668.74 120,-668.74 120,-668.74 114,-668.74 108,-662.74 108,-656.74 108,-656.74 108,-627.74 108,-627.74 108,-621.74 114,-615.74 120,-615.74 120,-615.74 186,-615.74 186,-615.74 192,-615.74 198,-621.74 198,-627.74 198,-627.74 198,-656.74 198,-656.74 198,-662.74 192,-668.74 186,-668.74"/>
<text text-anchor="middle" x="153" y="-653.54" font-family="Times,serif" font-size="14.00">F</text>
<text text-anchor="middle" x="153" y="-638.54" font-family="Times,serif" font-size="14.00">~</text>
<text text-anchor="middle" x="153" y="-623.54" font-family="Times,serif" font-size="14.00">ConstantData</text>
</g>
<!-- F&#45;&gt;F_prime -->
<g id="edge2" class="edge">
<title>F&#45;&gt;F_prime</title>
<path fill="none" stroke="black" d="M152.77,-615.7C152.64,-601.59 152.47,-583.84 152.33,-568.35"/>
<polygon fill="black" stroke="black" points="155.83,-568.02 152.24,-558.05 148.83,-568.08 155.83,-568.02"/>
</g>
<!-- F_prime&#45;&gt;G -->
<g id="edge6" class="edge">
<title>F_prime&#45;&gt;G</title>
<path fill="none" stroke="black" d="M176.55,-504.58C186.57,-494.57 198.49,-483.25 210,-473.79 220.36,-465.27 232.07,-456.72 243.13,-449.06"/>
<polygon fill="black" stroke="black" points="245.15,-451.92 251.44,-443.4 241.21,-446.14 245.15,-451.92"/>
</g>
<!-- C -->
<g id="node8" class="node">
<title>C</title>
<path fill="lightgrey" stroke="black" d="M540,-335.88C540,-335.88 474,-335.88 474,-335.88 468,-335.88 462,-329.88 462,-323.88 462,-323.88 462,-294.88 462,-294.88 462,-288.88 468,-282.88 474,-282.88 474,-282.88 540,-282.88 540,-282.88 546,-282.88 552,-288.88 552,-294.88 552,-294.88 552,-323.88 552,-323.88 552,-329.88 546,-335.88 540,-335.88"/>
<text text-anchor="middle" x="507" y="-320.68" font-family="Times,serif" font-size="14.00">C</text>
<text text-anchor="middle" x="507" y="-305.68" font-family="Times,serif" font-size="14.00">~</text>
<text text-anchor="middle" x="507" y="-290.68" font-family="Times,serif" font-size="14.00">ConstantData</text>
</g>
<!-- A_prob -->
<g id="node16" class="node">
<title>A_prob</title>
<polygon fill="none" stroke="black" points="446.5,-213.93 355.5,-213.93 355.5,-160.93 446.5,-160.93 446.5,-213.93"/>
<text text-anchor="middle" x="401" y="-198.73" font-family="Times,serif" font-size="14.00">A_prob</text>
<text text-anchor="middle" x="401" y="-183.73" font-family="Times,serif" font-size="14.00">~</text>
<text text-anchor="middle" x="401" y="-168.73" font-family="Times,serif" font-size="14.00">Deterministic</text>
</g>
<!-- C&#45;&gt;A_prob -->
<g id="edge13" class="edge">
<title>C&#45;&gt;A_prob</title>
<path fill="none" stroke="black" d="M487.61,-282.87C477.59,-270.02 464.98,-254.35 453,-240.91 447.24,-234.44 440.89,-227.73 434.68,-221.35"/>
<polygon fill="black" stroke="black" points="437,-218.72 427.48,-214.06 432.01,-223.64 437,-218.72"/>
</g>
<!-- Φ&#45;&gt;A_prob -->
<g id="edge14" class="edge">
<title>Φ&#45;&gt;A_prob</title>
<path fill="none" stroke="black" d="M401,-271.74C401,-256.77 401,-239.51 401,-224.59"/>
<polygon fill="black" stroke="black" points="404.5,-224.2 401,-214.2 397.5,-224.2 404.5,-224.2"/>
</g>
<!-- Z -->
<g id="node13" class="node">
<title>Z</title>
<ellipse fill="none" stroke="black" cx="285" cy="-531.29" rx="48.17" ry="37.45"/>
<text text-anchor="middle" x="285" y="-542.59" font-family="Times,serif" font-size="14.00">Z</text>
<text text-anchor="middle" x="285" y="-527.59" font-family="Times,serif" font-size="14.00">~</text>
<text text-anchor="middle" x="285" y="-512.59" font-family="Times,serif" font-size="14.00">Bernoulli</text>
</g>
<!-- Π&#45;&gt;Z -->
<g id="edge4" class="edge">
<title>Π&#45;&gt;Z</title>
<path fill="none" stroke="black" d="M285,-604.66C285,-596.49 285,-587.71 285,-579.18"/>
<polygon fill="black" stroke="black" points="288.5,-578.96 285,-568.96 281.5,-578.96 288.5,-578.96"/>
</g>
<!-- H -->
<g id="node12" class="node">
<title>H</title>
<polygon fill="none" stroke="black" points="333.5,-335.88 242.5,-335.88 242.5,-282.88 333.5,-282.88 333.5,-335.88"/>
<text text-anchor="middle" x="288" y="-320.68" font-family="Times,serif" font-size="14.00">H</text>
<text text-anchor="middle" x="288" y="-305.68" font-family="Times,serif" font-size="14.00">~</text>
<text text-anchor="middle" x="288" y="-290.68" font-family="Times,serif" font-size="14.00">Deterministic</text>
</g>
<!-- G&#45;&gt;H -->
<g id="edge8" class="edge">
<title>G&#45;&gt;H</title>
<path fill="none" stroke="black" d="M286.67,-382.75C286.89,-371.02 287.13,-358.03 287.34,-346.34"/>
<polygon fill="black" stroke="black" points="290.84,-346.1 287.53,-336.04 283.85,-345.97 290.84,-346.1"/>
</g>
<!-- H&#45;&gt;A_prob -->
<g id="edge15" class="edge">
<title>H&#45;&gt;A_prob</title>
<path fill="none" stroke="black" d="M308.91,-282.87C319.7,-270.02 333.24,-254.35 346,-240.91 352.14,-234.44 358.87,-227.73 365.45,-221.36"/>
<polygon fill="black" stroke="black" points="368.26,-223.51 373.06,-214.07 363.42,-218.46 368.26,-223.51"/>
</g>
<!-- D -->
<g id="node17" class="node">
<title>D</title>
<ellipse fill="lightgrey" stroke="black" cx="506" cy="-187.43" rx="41.94" ry="37.45"/>
<text text-anchor="middle" x="506" y="-198.73" font-family="Times,serif" font-size="14.00">D</text>
<text text-anchor="middle" x="506" y="-183.73" font-family="Times,serif" font-size="14.00">~</text>
<text text-anchor="middle" x="506" y="-168.73" font-family="Times,serif" font-size="14.00">Poisson</text>
</g>
<!-- H&#45;&gt;D -->
<g id="edge12" class="edge">
<title>H&#45;&gt;D</title>
<path fill="none" stroke="black" d="M302.82,-282.68C312.94,-267.73 327.79,-250.08 346,-240.91 389.78,-218.85 410.85,-251.99 456,-232.91 461.76,-230.47 467.31,-227.1 472.48,-223.28"/>
<polygon fill="black" stroke="black" points="474.68,-226 480.27,-217 470.28,-220.55 474.68,-226"/>
</g>
<!-- Z&#45;&gt;G -->
<g id="edge7" class="edge">
<title>Z&#45;&gt;G</title>
<path fill="none" stroke="black" d="M285.34,-493.71C285.41,-485.53 285.49,-476.75 285.57,-468.23"/>
<polygon fill="black" stroke="black" points="289.07,-468.04 285.66,-458.01 282.07,-467.98 289.07,-468.04"/>
</g>
<!-- N -->
<g id="node14" class="node">
<title>N</title>
<path fill="lightgrey" stroke="black" d="M654,-335.88C654,-335.88 588,-335.88 588,-335.88 582,-335.88 576,-329.88 576,-323.88 576,-323.88 576,-294.88 576,-294.88 576,-288.88 582,-282.88 588,-282.88 588,-282.88 654,-282.88 654,-282.88 660,-282.88 666,-288.88 666,-294.88 666,-294.88 666,-323.88 666,-323.88 666,-329.88 660,-335.88 654,-335.88"/>
<text text-anchor="middle" x="621" y="-320.68" font-family="Times,serif" font-size="14.00">N</text>
<text text-anchor="middle" x="621" y="-305.68" font-family="Times,serif" font-size="14.00">~</text>
<text text-anchor="middle" x="621" y="-290.68" font-family="Times,serif" font-size="14.00">ConstantData</text>
</g>
<!-- N&#45;&gt;D -->
<g id="edge11" class="edge">
<title>N&#45;&gt;D</title>
<path fill="none" stroke="black" d="M600.66,-282.69C590.11,-269.79 576.79,-254.14 564,-240.91 557.49,-234.17 550.27,-227.25 543.2,-220.73"/>
<polygon fill="black" stroke="black" points="545.38,-217.99 535.63,-213.85 540.67,-223.17 545.38,-217.99"/>
</g>
<!-- A -->
<g id="node15" class="node">
<title>A</title>
<ellipse fill="lightgrey" stroke="black" cx="451" cy="-76.48" rx="48.17" ry="37.45"/>
<text text-anchor="middle" x="451" y="-87.78" font-family="Times,serif" font-size="14.00">A</text>
<text text-anchor="middle" x="451" y="-72.78" font-family="Times,serif" font-size="14.00">~</text>
<text text-anchor="middle" x="451" y="-57.78" font-family="Times,serif" font-size="14.00">Binomial</text>
</g>
<!-- A_prob&#45;&gt;A -->
<g id="edge16" class="edge">
<title>A_prob&#45;&gt;A</title>
<path fill="none" stroke="black" d="M412.72,-160.89C418.16,-149.03 424.79,-134.6 430.98,-121.09"/>
<polygon fill="black" stroke="black" points="434.2,-122.48 435.19,-111.94 427.83,-119.56 434.2,-122.48"/>
</g>
<!-- D&#45;&gt;A -->
<g id="edge17" class="edge">
<title>D&#45;&gt;A</title>
<path fill="none" stroke="black" d="M489.05,-152.85C483.92,-142.7 478.22,-131.4 472.82,-120.71"/>
<polygon fill="black" stroke="black" points="475.81,-118.86 468.18,-111.51 469.56,-122.01 475.81,-118.86"/>
</g>
</g>
</svg>
