<?xml version="1.0" encoding="UTF-8" standalone="no"?>
<!DOCTYPE svg PUBLIC "-//W3C//DTD SVG 1.1//EN"
 "http://www.w3.org/Graphics/SVG/1.1/DTD/svg11.dtd">
<!-- Generated by graphviz version 6.0.1 (0)
 -->
<!-- Pages: 1 -->
<svg width="676pt" height="777pt"
 viewBox="0.00 0.00 676.00 776.72" xmlns="http://www.w3.org/2000/svg" xmlns:xlink="http://www.w3.org/1999/xlink">
<g id="graph0" class="graph" transform="scale(1 1) rotate(0) translate(4 772.72)">
<polygon fill="white" stroke="none" points="-4,4 -4,-772.72 672,-772.72 672,4 -4,4"/>
<g id="clust1" class="cluster">
<title>clusterclone (5)</title>
<path fill="none" stroke="black" d="M474,-473.79C474,-473.79 558,-473.79 558,-473.79 564,-473.79 570,-479.79 570,-485.79 570,-485.79 570,-664.74 570,-664.74 570,-670.74 564,-676.74 558,-676.74 558,-676.74 474,-676.74 474,-676.74 468,-676.74 462,-670.74 462,-664.74 462,-664.74 462,-485.79 462,-485.79 462,-479.79 468,-473.79 474,-473.79"/>
<text text-anchor="middle" x="537.5" y="-481.59" font-family="Times,serif" font-size="14.00">clone (5)</text>
</g>
<g id="clust4" class="cluster">
<title>clusterspot (10)</title>
<path fill="none" stroke="black" d="M374,-251.88C374,-251.88 456,-251.88 456,-251.88 462,-251.88 468,-257.88 468,-263.88 468,-263.88 468,-331.88 468,-331.88 468,-337.88 462,-343.88 456,-343.88 456,-343.88 374,-343.88 374,-343.88 368,-343.88 362,-337.88 362,-331.88 362,-331.88 362,-263.88 362,-263.88 362,-257.88 368,-251.88 374,-251.88"/>
<text text-anchor="middle" x="435.5" y="-259.68" font-family="Times,serif" font-size="14.00">spot (10)</text>
</g>
<g id="clust2" class="cluster">
<title>clusterposition (40) x clone (5)</title>
<path fill="none" stroke="black" d="M20,-240.91C20,-240.91 206,-240.91 206,-240.91 212,-240.91 218,-246.91 218,-252.91 218,-252.91 218,-342.86 218,-342.86 218,-348.86 212,-354.86 206,-354.86 206,-354.86 20,-354.86 20,-354.86 14,-354.86 8,-348.86 8,-342.86 8,-342.86 8,-252.91 8,-252.91 8,-246.91 14,-240.91 20,-240.91"/>
<text text-anchor="middle" x="143.5" y="-248.71" font-family="Times,serif" font-size="14.00">position (40) x clone (5)</text>
</g>
<g id="clust3" class="cluster">
<title>clusterspot (10) x clone (5)</title>
<path fill="none" stroke="black" d="M238,-251.88C238,-251.88 342,-251.88 342,-251.88 348,-251.88 354,-257.88 354,-263.88 354,-263.88 354,-675.72 354,-675.72 354,-681.72 348,-687.72 342,-687.72 342,-687.72 238,-687.72 238,-687.72 232,-687.72 226,-681.72 226,-675.72 226,-675.72 226,-263.88 226,-263.88 226,-257.88 232,-251.88 238,-251.88"/>
<text text-anchor="middle" x="290" y="-259.68" font-family="Times,serif" font-size="14.00">spot (10) x clone (5)</text>
</g>
<g id="clust5" class="cluster">
<title>clusterposition (40) x spot (10)</title>
<path fill="none" stroke="black" d="M141,-8C141,-8 326,-8 326,-8 332,-8 338,-14 338,-20 338,-20 338,-220.91 338,-220.91 338,-226.91 332,-232.91 326,-232.91 326,-232.91 141,-232.91 141,-232.91 135,-232.91 129,-226.91 129,-220.91 129,-220.91 129,-20 129,-20 129,-14 135,-8 141,-8"/>
<text text-anchor="middle" x="263.5" y="-15.8" font-family="Times,serif" font-size="14.00">position (40) x spot (10)</text>
</g>
<!-- r -->
<g id="node1" class="node">
<title>r</title>
<path fill="lightgrey" stroke="black" d="M95,-446.84C95,-446.84 29,-446.84 29,-446.84 23,-446.84 17,-440.84 17,-434.84 17,-434.84 17,-405.84 17,-405.84 17,-399.84 23,-393.84 29,-393.84 29,-393.84 95,-393.84 95,-393.84 101,-393.84 107,-399.84 107,-405.84 107,-405.84 107,-434.84 107,-434.84 107,-440.84 101,-446.84 95,-446.84"/>
<text text-anchor="middle" x="62" y="-431.64" font-family="Times,serif" font-size="14.00">r</text>
<text text-anchor="middle" x="62" y="-416.64" font-family="Times,serif" font-size="14.00">~</text>
<text text-anchor="middle" x="62" y="-401.64" font-family="Times,serif" font-size="14.00">ConstantData</text>
</g>
<!-- Φ -->
<g id="node8" class="node">
<title>Φ</title>
<ellipse fill="none" stroke="black" cx="167" cy="-309.38" rx="43.27" ry="37.45"/>
<text text-anchor="middle" x="167" y="-320.68" font-family="Times,serif" font-size="14.00">Φ</text>
<text text-anchor="middle" x="167" y="-305.68" font-family="Times,serif" font-size="14.00">~</text>
<text text-anchor="middle" x="167" y="-290.68" font-family="Times,serif" font-size="14.00">Gamma</text>
</g>
<!-- r&#45;&gt;Φ -->
<g id="edge9" class="edge">
<title>r&#45;&gt;Φ</title>
<path fill="none" stroke="black" d="M86.62,-393.79C100.27,-379.63 117.45,-361.79 132.43,-346.25"/>
<polygon fill="black" stroke="black" points="135.16,-348.46 139.58,-338.83 130.12,-343.61 135.16,-348.46"/>
</g>
<!-- ℓ -->
<g id="node2" class="node">
<title>ℓ</title>
<path fill="lightgrey" stroke="black" d="M656,-668.74C656,-668.74 590,-668.74 590,-668.74 584,-668.74 578,-662.74 578,-656.74 578,-656.74 578,-627.74 578,-627.74 578,-621.74 584,-615.74 590,-615.74 590,-615.74 656,-615.74 656,-615.74 662,-615.74 668,-621.74 668,-627.74 668,-627.74 668,-656.74 668,-656.74 668,-662.74 662,-668.74 656,-668.74"/>
<text text-anchor="middle" x="623" y="-653.54" font-family="Times,serif" font-size="14.00">ℓ</text>
<text text-anchor="middle" x="623" y="-638.54" font-family="Times,serif" font-size="14.00">~</text>
<text text-anchor="middle" x="623" y="-623.54" font-family="Times,serif" font-size="14.00">ConstantData</text>
</g>
<!-- F_prime -->
<g id="node6" class="node">
<title>F_prime</title>
<polygon fill="none" stroke="black" points="561.5,-557.79 470.5,-557.79 470.5,-504.79 561.5,-504.79 561.5,-557.79"/>
<text text-anchor="middle" x="516" y="-542.59" font-family="Times,serif" font-size="14.00">F_prime</text>
<text text-anchor="middle" x="516" y="-527.59" font-family="Times,serif" font-size="14.00">~</text>
<text text-anchor="middle" x="516" y="-512.59" font-family="Times,serif" font-size="14.00">Deterministic</text>
</g>
<!-- ℓ&#45;&gt;F_prime -->
<g id="edge1" class="edge">
<title>ℓ&#45;&gt;F_prime</title>
<path fill="none" stroke="black" d="M597.91,-615.7C583.13,-600.64 564.27,-581.44 548.37,-565.25"/>
<polygon fill="black" stroke="black" points="550.8,-562.73 541.3,-558.05 545.81,-567.64 550.8,-562.73"/>
</g>
<!-- ζ_s -->
<g id="node3" class="node">
<title>ζ_s</title>
<path fill="lightgrey" stroke="black" d="M329,-768.72C329,-768.72 263,-768.72 263,-768.72 257,-768.72 251,-762.72 251,-756.72 251,-756.72 251,-727.72 251,-727.72 251,-721.72 257,-715.72 263,-715.72 263,-715.72 329,-715.72 329,-715.72 335,-715.72 341,-721.72 341,-727.72 341,-727.72 341,-756.72 341,-756.72 341,-762.72 335,-768.72 329,-768.72"/>
<text text-anchor="middle" x="296" y="-753.52" font-family="Times,serif" font-size="14.00">ζ_s</text>
<text text-anchor="middle" x="296" y="-738.52" font-family="Times,serif" font-size="14.00">~</text>
<text text-anchor="middle" x="296" y="-723.52" font-family="Times,serif" font-size="14.00">ConstantData</text>
</g>
<!-- Π -->
<g id="node10" class="node">
<title>Π</title>
<ellipse fill="none" stroke="black" cx="296" cy="-642.24" rx="28.98" ry="37.45"/>
<text text-anchor="middle" x="296" y="-653.54" font-family="Times,serif" font-size="14.00">Π</text>
<text text-anchor="middle" x="296" y="-638.54" font-family="Times,serif" font-size="14.00">~</text>
<text text-anchor="middle" x="296" y="-623.54" font-family="Times,serif" font-size="14.00">Beta</text>
</g>
<!-- ζ_s&#45;&gt;Π -->
<g id="edge3" class="edge">
<title>ζ_s&#45;&gt;Π</title>
<path fill="none" stroke="black" d="M296,-715.48C296,-707.65 296,-698.8 296,-690.04"/>
<polygon fill="black" stroke="black" points="299.5,-689.87 296,-679.87 292.5,-689.87 299.5,-689.87"/>
</g>
<!-- F0 -->
<g id="node4" class="node">
<title>F0</title>
<path fill="lightgrey" stroke="black" d="M440,-557.79C440,-557.79 374,-557.79 374,-557.79 368,-557.79 362,-551.79 362,-545.79 362,-545.79 362,-516.79 362,-516.79 362,-510.79 368,-504.79 374,-504.79 374,-504.79 440,-504.79 440,-504.79 446,-504.79 452,-510.79 452,-516.79 452,-516.79 452,-545.79 452,-545.79 452,-551.79 446,-557.79 440,-557.79"/>
<text text-anchor="middle" x="407" y="-542.59" font-family="Times,serif" font-size="14.00">F0</text>
<text text-anchor="middle" x="407" y="-527.59" font-family="Times,serif" font-size="14.00">~</text>
<text text-anchor="middle" x="407" y="-512.59" font-family="Times,serif" font-size="14.00">ConstantData</text>
</g>
<!-- G -->
<g id="node12" class="node">
<title>G</title>
<ellipse fill="none" stroke="black" cx="299" cy="-420.34" rx="43.27" ry="37.45"/>
<text text-anchor="middle" x="299" y="-431.64" font-family="Times,serif" font-size="14.00">G</text>
<text text-anchor="middle" x="299" y="-416.64" font-family="Times,serif" font-size="14.00">~</text>
<text text-anchor="middle" x="299" y="-401.64" font-family="Times,serif" font-size="14.00">Gamma</text>
</g>
<!-- F0&#45;&gt;G -->
<g id="edge7" class="edge">
<title>F0&#45;&gt;G</title>
<path fill="none" stroke="black" d="M385.97,-504.63C377.55,-494.74 367.58,-483.49 358,-473.79 351.42,-467.13 344.15,-460.29 337.03,-453.84"/>
<polygon fill="black" stroke="black" points="339.19,-451.08 329.4,-447.02 334.53,-456.3 339.19,-451.08"/>
</g>
<!-- p -->
<g id="node5" class="node">
<title>p</title>
<path fill="lightgrey" stroke="black" d="M203,-446.84C203,-446.84 137,-446.84 137,-446.84 131,-446.84 125,-440.84 125,-434.84 125,-434.84 125,-405.84 125,-405.84 125,-399.84 131,-393.84 137,-393.84 137,-393.84 203,-393.84 203,-393.84 209,-393.84 215,-399.84 215,-405.84 215,-405.84 215,-434.84 215,-434.84 215,-440.84 209,-446.84 203,-446.84"/>
<text text-anchor="middle" x="170" y="-431.64" font-family="Times,serif" font-size="14.00">p</text>
<text text-anchor="middle" x="170" y="-416.64" font-family="Times,serif" font-size="14.00">~</text>
<text text-anchor="middle" x="170" y="-401.64" font-family="Times,serif" font-size="14.00">ConstantData</text>
</g>
<!-- p&#45;&gt;Φ -->
<g id="edge10" class="edge">
<title>p&#45;&gt;Φ</title>
<path fill="none" stroke="black" d="M169.3,-393.79C169,-382.88 168.64,-369.79 168.29,-357.25"/>
<polygon fill="black" stroke="black" points="171.78,-356.81 168.01,-346.91 164.78,-357 171.78,-356.81"/>
</g>
<!-- F_prime&#45;&gt;G -->
<g id="edge6" class="edge">
<title>F_prime&#45;&gt;G</title>
<path fill="none" stroke="black" d="M495.99,-504.74C486.39,-493.92 474.14,-481.95 461,-473.79 427.21,-452.79 384.17,-439.38 350.96,-431.37"/>
<polygon fill="black" stroke="black" points="351.51,-427.91 340.98,-429.06 349.93,-434.73 351.51,-427.91"/>
</g>
<!-- F -->
<g id="node7" class="node">
<title>F</title>
<path fill="lightgrey" stroke="black" d="M548,-668.74C548,-668.74 482,-668.74 482,-668.74 476,-668.74 470,-662.74 470,-656.74 470,-656.74 470,-627.74 470,-627.74 470,-621.74 476,-615.74 482,-615.74 482,-615.74 548,-615.74 548,-615.74 554,-615.74 560,-621.74 560,-627.74 560,-627.74 560,-656.74 560,-656.74 560,-662.74 554,-668.74 548,-668.74"/>
<text text-anchor="middle" x="515" y="-653.54" font-family="Times,serif" font-size="14.00">F</text>
<text text-anchor="middle" x="515" y="-638.54" font-family="Times,serif" font-size="14.00">~</text>
<text text-anchor="middle" x="515" y="-623.54" font-family="Times,serif" font-size="14.00">ConstantData</text>
</g>
<!-- F&#45;&gt;F_prime -->
<g id="edge2" class="edge">
<title>F&#45;&gt;F_prime</title>
<path fill="none" stroke="black" d="M515.23,-615.7C515.36,-601.59 515.53,-583.84 515.67,-568.35"/>
<polygon fill="black" stroke="black" points="519.17,-568.08 515.76,-558.05 512.17,-568.02 519.17,-568.08"/>
</g>
<!-- A_prob -->
<g id="node17" class="node">
<title>A_prob</title>
<polygon fill="none" stroke="black" points="228.5,-213.93 137.5,-213.93 137.5,-160.93 228.5,-160.93 228.5,-213.93"/>
<text text-anchor="middle" x="183" y="-198.73" font-family="Times,serif" font-size="14.00">A_prob</text>
<text text-anchor="middle" x="183" y="-183.73" font-family="Times,serif" font-size="14.00">~</text>
<text text-anchor="middle" x="183" y="-168.73" font-family="Times,serif" font-size="14.00">Deterministic</text>
</g>
<!-- Φ&#45;&gt;A_prob -->
<g id="edge13" class="edge">
<title>Φ&#45;&gt;A_prob</title>
<path fill="none" stroke="black" d="M171.84,-272.07C173.88,-256.83 176.23,-239.16 178.26,-224"/>
<polygon fill="black" stroke="black" points="181.74,-224.34 179.59,-213.97 174.8,-223.42 181.74,-224.34"/>
</g>
<!-- C -->
<g id="node9" class="node">
<title>C</title>
<path fill="lightgrey" stroke="black" d="M94,-335.88C94,-335.88 28,-335.88 28,-335.88 22,-335.88 16,-329.88 16,-323.88 16,-323.88 16,-294.88 16,-294.88 16,-288.88 22,-282.88 28,-282.88 28,-282.88 94,-282.88 94,-282.88 100,-282.88 106,-288.88 106,-294.88 106,-294.88 106,-323.88 106,-323.88 106,-329.88 100,-335.88 94,-335.88"/>
<text text-anchor="middle" x="61" y="-320.68" font-family="Times,serif" font-size="14.00">C</text>
<text text-anchor="middle" x="61" y="-305.68" font-family="Times,serif" font-size="14.00">~</text>
<text text-anchor="middle" x="61" y="-290.68" font-family="Times,serif" font-size="14.00">ConstantData</text>
</g>
<!-- C&#45;&gt;A_prob -->
<g id="edge14" class="edge">
<title>C&#45;&gt;A_prob</title>
<path fill="none" stroke="black" d="M79.16,-282.82C89.07,-269.66 101.94,-253.74 115,-240.91 122.18,-233.85 130.3,-226.87 138.37,-220.41"/>
<polygon fill="black" stroke="black" points="140.66,-223.06 146.38,-214.14 136.35,-217.55 140.66,-223.06"/>
</g>
<!-- Z -->
<g id="node13" class="node">
<title>Z</title>
<ellipse fill="none" stroke="black" cx="296" cy="-531.29" rx="48.17" ry="37.45"/>
<text text-anchor="middle" x="296" y="-542.59" font-family="Times,serif" font-size="14.00">Z</text>
<text text-anchor="middle" x="296" y="-527.59" font-family="Times,serif" font-size="14.00">~</text>
<text text-anchor="middle" x="296" y="-512.59" font-family="Times,serif" font-size="14.00">Bernoulli</text>
</g>
<!-- Π&#45;&gt;Z -->
<g id="edge4" class="edge">
<title>Π&#45;&gt;Z</title>
<path fill="none" stroke="black" d="M296,-604.66C296,-596.49 296,-587.71 296,-579.18"/>
<polygon fill="black" stroke="black" points="299.5,-578.96 296,-568.96 292.5,-578.96 299.5,-578.96"/>
</g>
<!-- H -->
<g id="node11" class="node">
<title>H</title>
<polygon fill="none" stroke="black" points="333.5,-335.88 242.5,-335.88 242.5,-282.88 333.5,-282.88 333.5,-335.88"/>
<text text-anchor="middle" x="288" y="-320.68" font-family="Times,serif" font-size="14.00">H</text>
<text text-anchor="middle" x="288" y="-305.68" font-family="Times,serif" font-size="14.00">~</text>
<text text-anchor="middle" x="288" y="-290.68" font-family="Times,serif" font-size="14.00">Deterministic</text>
</g>
<!-- D -->
<g id="node16" class="node">
<title>D</title>
<ellipse fill="lightgrey" stroke="black" cx="288" cy="-187.43" rx="41.94" ry="37.45"/>
<text text-anchor="middle" x="288" y="-198.73" font-family="Times,serif" font-size="14.00">D</text>
<text text-anchor="middle" x="288" y="-183.73" font-family="Times,serif" font-size="14.00">~</text>
<text text-anchor="middle" x="288" y="-168.73" font-family="Times,serif" font-size="14.00">Poisson</text>
</g>
<!-- H&#45;&gt;D -->
<g id="edge12" class="edge">
<title>H&#45;&gt;D</title>
<path fill="none" stroke="black" d="M288,-282.65C288,-268.87 288,-251.47 288,-235.38"/>
<polygon fill="black" stroke="black" points="291.5,-235.04 288,-225.04 284.5,-235.04 291.5,-235.04"/>
</g>
<!-- H&#45;&gt;A_prob -->
<g id="edge15" class="edge">
<title>H&#45;&gt;A_prob</title>
<path fill="none" stroke="black" d="M265.47,-282.65C249.9,-264.86 229.04,-241.03 212.2,-221.79"/>
<polygon fill="black" stroke="black" points="214.71,-219.34 205.49,-214.12 209.44,-223.95 214.71,-219.34"/>
</g>
<!-- G&#45;&gt;H -->
<g id="edge8" class="edge">
<title>G&#45;&gt;H</title>
<path fill="none" stroke="black" d="M295.31,-382.75C294.12,-371.02 292.81,-358.03 291.63,-346.34"/>
<polygon fill="black" stroke="black" points="295.08,-345.63 290.59,-336.04 288.11,-346.34 295.08,-345.63"/>
</g>
<!-- Z&#45;&gt;G -->
<g id="edge5" class="edge">
<title>Z&#45;&gt;G</title>
<path fill="none" stroke="black" d="M297.01,-493.71C297.23,-485.53 297.47,-476.75 297.71,-468.23"/>
<polygon fill="black" stroke="black" points="301.21,-468.1 297.99,-458.01 294.22,-467.91 301.21,-468.1"/>
</g>
<!-- N -->
<g id="node14" class="node">
<title>N</title>
<path fill="lightgrey" stroke="black" d="M448,-335.88C448,-335.88 382,-335.88 382,-335.88 376,-335.88 370,-329.88 370,-323.88 370,-323.88 370,-294.88 370,-294.88 370,-288.88 376,-282.88 382,-282.88 382,-282.88 448,-282.88 448,-282.88 454,-282.88 460,-288.88 460,-294.88 460,-294.88 460,-323.88 460,-323.88 460,-329.88 454,-335.88 448,-335.88"/>
<text text-anchor="middle" x="415" y="-320.68" font-family="Times,serif" font-size="14.00">N</text>
<text text-anchor="middle" x="415" y="-305.68" font-family="Times,serif" font-size="14.00">~</text>
<text text-anchor="middle" x="415" y="-290.68" font-family="Times,serif" font-size="14.00">ConstantData</text>
</g>
<!-- N&#45;&gt;D -->
<g id="edge11" class="edge">
<title>N&#45;&gt;D</title>
<path fill="none" stroke="black" d="M395.68,-282.83C385.19,-269.67 371.61,-253.75 358,-240.91 349.11,-232.52 338.89,-224.22 329.06,-216.78"/>
<polygon fill="black" stroke="black" points="331.05,-213.9 320.93,-210.75 326.88,-219.52 331.05,-213.9"/>
</g>
<!-- A -->
<g id="node15" class="node">
<title>A</title>
<ellipse fill="lightgrey" stroke="black" cx="233" cy="-76.48" rx="48.17" ry="37.45"/>
<text text-anchor="middle" x="233" y="-87.78" font-family="Times,serif" font-size="14.00">A</text>
<text text-anchor="middle" x="233" y="-72.78" font-family="Times,serif" font-size="14.00">~</text>
<text text-anchor="middle" x="233" y="-57.78" font-family="Times,serif" font-size="14.00">Binomial</text>
</g>
<!-- D&#45;&gt;A -->
<g id="edge17" class="edge">
<title>D&#45;&gt;A</title>
<path fill="none" stroke="black" d="M271.05,-152.85C265.92,-142.7 260.22,-131.4 254.82,-120.71"/>
<polygon fill="black" stroke="black" points="257.81,-118.86 250.18,-111.51 251.56,-122.01 257.81,-118.86"/>
</g>
<!-- A_prob&#45;&gt;A -->
<g id="edge16" class="edge">
<title>A_prob&#45;&gt;A</title>
<path fill="none" stroke="black" d="M194.72,-160.89C200.16,-149.03 206.79,-134.6 212.98,-121.09"/>
<polygon fill="black" stroke="black" points="216.2,-122.48 217.19,-111.94 209.83,-119.56 216.2,-122.48"/>
</g>
</g>
</svg>
