<?xml version="1.0" encoding="UTF-8" standalone="no"?>
<!DOCTYPE svg PUBLIC "-//W3C//DTD SVG 1.1//EN"
 "http://www.w3.org/Graphics/SVG/1.1/DTD/svg11.dtd">
<!-- Generated by graphviz version 6.0.1 (0)
 -->
<!-- Pages: 1 -->
<svg width="358pt" height="522pt"
 viewBox="0.00 0.00 358.00 521.86" xmlns="http://www.w3.org/2000/svg" xmlns:xlink="http://www.w3.org/1999/xlink">
<g id="graph0" class="graph" transform="scale(1 1) rotate(0) translate(4 517.86)">
<polygon fill="white" stroke="none" points="-4,4 -4,-517.86 354,-517.86 354,4 -4,4"/>
<g id="clust2" class="cluster">
<title>clusterspot (10) x clone (5)</title>
<path fill="none" stroke="black" d="M20,-8C20,-8 124,-8 124,-8 130,-8 136,-14 136,-20 136,-20 136,-420.86 136,-420.86 136,-426.86 130,-432.86 124,-432.86 124,-432.86 20,-432.86 20,-432.86 14,-432.86 8,-426.86 8,-420.86 8,-420.86 8,-20 8,-20 8,-14 14,-8 20,-8"/>
<text text-anchor="middle" x="72" y="-15.8" font-family="Times,serif" font-size="14.00">spot (10) x clone (5)</text>
</g>
<g id="clust1" class="cluster">
<title>cluster5</title>
<path fill="none" stroke="black" d="M156,-218.93C156,-218.93 240,-218.93 240,-218.93 246,-218.93 252,-224.93 252,-230.93 252,-230.93 252,-409.88 252,-409.88 252,-415.88 246,-421.88 240,-421.88 240,-421.88 156,-421.88 156,-421.88 150,-421.88 144,-415.88 144,-409.88 144,-409.88 144,-230.93 144,-230.93 144,-224.93 150,-218.93 156,-218.93"/>
<text text-anchor="middle" x="240.5" y="-226.73" font-family="Times,serif" font-size="14.00">5</text>
</g>
<!-- ζ_s -->
<g id="node1" class="node">
<title>ζ_s</title>
<path fill="lightgrey" stroke="black" d="M113,-513.86C113,-513.86 47,-513.86 47,-513.86 41,-513.86 35,-507.86 35,-501.86 35,-501.86 35,-472.86 35,-472.86 35,-466.86 41,-460.86 47,-460.86 47,-460.86 113,-460.86 113,-460.86 119,-460.86 125,-466.86 125,-472.86 125,-472.86 125,-501.86 125,-501.86 125,-507.86 119,-513.86 113,-513.86"/>
<text text-anchor="middle" x="80" y="-498.66" font-family="Times,serif" font-size="14.00">ζ_s</text>
<text text-anchor="middle" x="80" y="-483.66" font-family="Times,serif" font-size="14.00">~</text>
<text text-anchor="middle" x="80" y="-468.66" font-family="Times,serif" font-size="14.00">ConstantData</text>
</g>
<!-- Π -->
<g id="node6" class="node">
<title>Π</title>
<ellipse fill="none" stroke="black" cx="80" cy="-387.38" rx="28.98" ry="37.45"/>
<text text-anchor="middle" x="80" y="-398.68" font-family="Times,serif" font-size="14.00">Π</text>
<text text-anchor="middle" x="80" y="-383.68" font-family="Times,serif" font-size="14.00">~</text>
<text text-anchor="middle" x="80" y="-368.68" font-family="Times,serif" font-size="14.00">Beta</text>
</g>
<!-- ζ_s&#45;&gt;Π -->
<g id="edge3" class="edge">
<title>ζ_s&#45;&gt;Π</title>
<path fill="none" stroke="black" d="M80,-460.62C80,-452.79 80,-443.94 80,-435.18"/>
<polygon fill="black" stroke="black" points="83.5,-435.01 80,-425.01 76.5,-435.01 83.5,-435.01"/>
</g>
<!-- ℓ -->
<g id="node2" class="node">
<title>ℓ</title>
<path fill="lightgrey" stroke="black" d="M338,-413.88C338,-413.88 272,-413.88 272,-413.88 266,-413.88 260,-407.88 260,-401.88 260,-401.88 260,-372.88 260,-372.88 260,-366.88 266,-360.88 272,-360.88 272,-360.88 338,-360.88 338,-360.88 344,-360.88 350,-366.88 350,-372.88 350,-372.88 350,-401.88 350,-401.88 350,-407.88 344,-413.88 338,-413.88"/>
<text text-anchor="middle" x="305" y="-398.68" font-family="Times,serif" font-size="14.00">ℓ</text>
<text text-anchor="middle" x="305" y="-383.68" font-family="Times,serif" font-size="14.00">~</text>
<text text-anchor="middle" x="305" y="-368.68" font-family="Times,serif" font-size="14.00">ConstantData</text>
</g>
<!-- F_prime -->
<g id="node3" class="node">
<title>F_prime</title>
<polygon fill="none" stroke="black" points="243.5,-302.93 152.5,-302.93 152.5,-249.93 243.5,-249.93 243.5,-302.93"/>
<text text-anchor="middle" x="198" y="-287.73" font-family="Times,serif" font-size="14.00">F_prime</text>
<text text-anchor="middle" x="198" y="-272.73" font-family="Times,serif" font-size="14.00">~</text>
<text text-anchor="middle" x="198" y="-257.73" font-family="Times,serif" font-size="14.00">Deterministic</text>
</g>
<!-- ℓ&#45;&gt;F_prime -->
<g id="edge2" class="edge">
<title>ℓ&#45;&gt;F_prime</title>
<path fill="none" stroke="black" d="M279.91,-360.84C265.13,-345.78 246.27,-326.58 230.37,-310.39"/>
<polygon fill="black" stroke="black" points="232.8,-307.87 223.3,-303.19 227.81,-312.78 232.8,-307.87"/>
</g>
<!-- G -->
<g id="node5" class="node">
<title>G</title>
<ellipse fill="none" stroke="black" cx="81" cy="-165.48" rx="43.27" ry="37.45"/>
<text text-anchor="middle" x="81" y="-176.78" font-family="Times,serif" font-size="14.00">G</text>
<text text-anchor="middle" x="81" y="-161.78" font-family="Times,serif" font-size="14.00">~</text>
<text text-anchor="middle" x="81" y="-146.78" font-family="Times,serif" font-size="14.00">Gamma</text>
</g>
<!-- F_prime&#45;&gt;G -->
<g id="edge5" class="edge">
<title>F_prime&#45;&gt;G</title>
<path fill="none" stroke="black" d="M172.26,-249.86C162.28,-240.08 150.7,-228.89 140,-218.93 133.15,-212.55 125.75,-205.84 118.59,-199.44"/>
<polygon fill="black" stroke="black" points="120.75,-196.67 110.95,-192.63 116.09,-201.9 120.75,-196.67"/>
</g>
<!-- F -->
<g id="node4" class="node">
<title>F</title>
<path fill="lightgrey" stroke="black" d="M230,-413.88C230,-413.88 164,-413.88 164,-413.88 158,-413.88 152,-407.88 152,-401.88 152,-401.88 152,-372.88 152,-372.88 152,-366.88 158,-360.88 164,-360.88 164,-360.88 230,-360.88 230,-360.88 236,-360.88 242,-366.88 242,-372.88 242,-372.88 242,-401.88 242,-401.88 242,-407.88 236,-413.88 230,-413.88"/>
<text text-anchor="middle" x="197" y="-398.68" font-family="Times,serif" font-size="14.00">F</text>
<text text-anchor="middle" x="197" y="-383.68" font-family="Times,serif" font-size="14.00">~</text>
<text text-anchor="middle" x="197" y="-368.68" font-family="Times,serif" font-size="14.00">ConstantData</text>
</g>
<!-- F&#45;&gt;F_prime -->
<g id="edge1" class="edge">
<title>F&#45;&gt;F_prime</title>
<path fill="none" stroke="black" d="M197.23,-360.84C197.36,-346.73 197.53,-328.98 197.67,-313.49"/>
<polygon fill="black" stroke="black" points="201.17,-313.22 197.76,-303.19 194.17,-313.16 201.17,-313.22"/>
</g>
<!-- H -->
<g id="node7" class="node">
<title>H</title>
<polygon fill="none" stroke="black" points="126.5,-92 35.5,-92 35.5,-39 126.5,-39 126.5,-92"/>
<text text-anchor="middle" x="81" y="-76.8" font-family="Times,serif" font-size="14.00">H</text>
<text text-anchor="middle" x="81" y="-61.8" font-family="Times,serif" font-size="14.00">~</text>
<text text-anchor="middle" x="81" y="-46.8" font-family="Times,serif" font-size="14.00">Deterministic</text>
</g>
<!-- G&#45;&gt;H -->
<g id="edge7" class="edge">
<title>G&#45;&gt;H</title>
<path fill="none" stroke="black" d="M81,-127.99C81,-119.58 81,-110.63 81,-102.25"/>
<polygon fill="black" stroke="black" points="84.5,-102.01 81,-92.01 77.5,-102.01 84.5,-102.01"/>
</g>
<!-- Z -->
<g id="node8" class="node">
<title>Z</title>
<ellipse fill="none" stroke="black" cx="80" cy="-276.43" rx="48.17" ry="37.45"/>
<text text-anchor="middle" x="80" y="-287.73" font-family="Times,serif" font-size="14.00">Z</text>
<text text-anchor="middle" x="80" y="-272.73" font-family="Times,serif" font-size="14.00">~</text>
<text text-anchor="middle" x="80" y="-257.73" font-family="Times,serif" font-size="14.00">Bernoulli</text>
</g>
<!-- Π&#45;&gt;Z -->
<g id="edge4" class="edge">
<title>Π&#45;&gt;Z</title>
<path fill="none" stroke="black" d="M80,-349.8C80,-341.63 80,-332.85 80,-324.32"/>
<polygon fill="black" stroke="black" points="83.5,-324.1 80,-314.1 76.5,-324.1 83.5,-324.1"/>
</g>
<!-- Z&#45;&gt;G -->
<g id="edge6" class="edge">
<title>Z&#45;&gt;G</title>
<path fill="none" stroke="black" d="M80.34,-238.85C80.41,-230.67 80.49,-221.89 80.57,-213.37"/>
<polygon fill="black" stroke="black" points="84.07,-213.18 80.66,-203.15 77.07,-213.12 84.07,-213.18"/>
</g>
</g>
</svg>
